<svg width="18" height="18" viewBox="0 0 18 18" fill="none" xmlns="http://www.w3.org/2000/svg">
<g clip-path="url(#clip0_19912_734)">
<mask id="mask0_19912_734" style="mask-type:luminance" maskUnits="userSpaceOnUse" x="1" y="1" width="18" height="18">
<path d="M6.75 5.25H15C15.4125 5.25 15.75 5.5875 15.75 6V14.25C15.75 14.6625 15.4125 15 15 15H3C2.5875 15 2.25 14.6625 2.25 14.25V6C2.25 5.5875 2.5875 5.25 3 5.25H6.75Z" stroke="white" stroke-width="1.5" stroke-linecap="round" stroke-linejoin="round"/>
<path d="M6.75 5.25V3C6.75 2.5875 7.0875 2.25 7.5 2.25H10.5C10.9125 2.25 11.25 2.5875 11.25 3V5.25" stroke="white" stroke-width="1.5" stroke-linecap="round" stroke-linejoin="round"/>
<path d="M14.25 9.75C16.7325 9.75 18.75 11.7675 18.75 14.25C18.75 16.7325 16.7325 18.75 14.25 18.75C11.7675 18.75 9.75 16.7325 9.75 14.25C9.75 11.7675 11.7675 9.75 14.25 9.75Z" fill="black"/>
<path d="M12 14.25L13.3125 15.5625L16.125 12.75" stroke="white" stroke-width="1.5" stroke-linecap="round" stroke-linejoin="round"/>
</mask>
<g mask="url(#mask0_19912_734)">
<path d="M18 0H0V18H18V0Z" fill="#686868"/>
</g>
</g>
<defs>
<clipPath id="clip0_19912_734">
<rect width="18" height="18" fill="white"/>
</clipPath>
</defs>
</svg>
