<svg width="22" height="22" viewBox="0 0 22 22" fill="none" xmlns="http://www.w3.org/2000/svg">
<path d="M18.3333 14.2083C17.2333 14.2083 16.0417 14.025 15.0333 13.6583H14.7583C14.4833 13.6583 14.3 13.75 14.1167 13.9333L12.1 15.95C9.53333 14.575 7.33333 12.4667 6.05 9.9L8.06667 7.88333C8.34167 7.60833 8.43333 7.24167 8.25 6.96667C7.975 5.95833 7.79167 4.76667 7.79167 3.66667C7.79167 3.20833 7.33333 2.75 6.875 2.75H3.66667C3.20833 2.75 2.75 3.20833 2.75 3.66667C2.75 12.2833 9.71667 19.25 18.3333 19.25C18.7917 19.25 19.25 18.7917 19.25 18.3333V15.125C19.25 14.6667 18.7917 14.2083 18.3333 14.2083ZM4.58333 4.58333H5.95833C6.05 5.40833 6.23333 6.23333 6.41667 6.96667L5.31667 8.06667C4.95 6.96667 4.675 5.775 4.58333 4.58333ZM17.4167 17.4167C16.225 17.325 15.0333 17.05 13.9333 16.6833L15.0333 15.5833C15.7667 15.7667 16.5917 15.95 17.4167 15.95V17.4167Z" fill="#686868"/>
</svg>
