<?xml version="1.0" encoding="UTF-8"?><svg id="Layer_1" xmlns="http://www.w3.org/2000/svg" viewBox="0 0 1000 1000"><path d="M428.93,585.3c2.65-5.04,2.61-9.51-.16-14.5-2.07-3.73-4.21-5.89-6.39-6.42-5.56-1.27-15.08,5.08-22.81,10.22-7.16,4.76-13.92,9.25-20.73,10.64-32.79,6.66-64.76-10.41-74.36-39.75l-4.15-12.67h150.13c2.29-1.91,5.42-16.02,4.79-24.96-2.27-32.55-23.68-59.37-57.28-71.74-12.11-4.46-24.56-6.63-36.7-6.63-24.85,0-48.4,9.09-65.17,26.22-34.04,34.75-31.5,77.78-17.78,106.46,13.9,29.08,46.12,58.47,95.35,53.74,16.61-1.6,47.14-15.17,55.27-30.62ZM307.1,492.56c7.01-21.23,33.75-34.97,54.51-35.51.36,0,.73-.01,1.09-.01,20.03,0,47.68,14.04,56.31,34.85l5.54,13.37h-121.65l4.2-12.69ZM528.67,429.68l-8.59.53-1.52-8.47c-2.27-12.65.8-26.45,8.21-36.92,6.2-8.78,14.71-14.28,24.63-15.91,5.77-.94,13.22-1.07,21.12-1.2,13.81-.23,36.92-.61,41.78-7.91,2.1-3.18.5-8.95-1.22-13.24-3.53-8.83-30.18-11.96-63.48-7.48-18.24,2.47-34.44,12.07-45.63,27.02-11.37,15.21-16.06,33.85-13.21,52.47l1.85,12.06-12.16-.96c-9.18-.74-17.17,1.62-20.93,6.12-2.58,3.1-3.13,7.5-1.65,13.07,1.84,6.87,6.48,8.56,16.9,9.94,5.8.77,13.75,1.83,15.9,9.8l.49,1.82-.24,1.87c-1.92,15.72-.86,35.06.16,53.77,1.28,23.58,2.61,47.97-1.6,68.05-2.94,13.99-14.08,27.41-27.1,32.63-8.35,3.36-16.85,3.26-24.35,3.28-.48,0-.94,0-1.4,0-11.83,0-14.95.88-17.24,7.51-3.49,10.1-.45,14.01.55,15.3,4.47,5.74,16.73,8.83,30.44,7.65,27.83-2.35,63.39-27.91,68.04-57.49v-142.28l8.77-.82c4.11-.38,8.74-.44,13.54-.49,23.14-.22,31-2.19,31.89-13.44.52-6.42-1.38-9.15-2.85-10.65-7.59-7.72-29.37-6.38-41.11-5.65ZM271.21,452.28c2.09-2.85,1.4-8.44.45-12.63-1.55-6.86-9.51-10.32-23.73-10.32-4.46,0-9.53.34-15.22,1.02-32.24,3.85-61.79,29.27-70.25,60.43-5.92,21.77-6.88,82.39-4.11,106.63,1.06,9.2,5.46,15.53,11.79,16.92,6.35,1.4,13.45-2.31,18.4-9.51,1.67-10.71.86-25.26,0-40.6-2.19-39.1-4.92-87.76,35.67-102.01,7.15-2.52,15.38-3.22,23.34-3.9,9.63-.83,20.54-1.77,23.66-6.03ZM692.49,429.57c-3.93-.45-7.82-.68-11.69-.68-39.31,0-74.55,23.1-86.34,57.97-6.39,18.9-7.88,90.46-4.79,115.8,1.17,9.56,10.43,11.14,13.24,11.4,5.49.58,12.16-1.34,13.8-6.57,3.44-10.99,2.24-31.32,1.08-50.98-1.06-17.86-2.06-34.72-.08-47.85,1.85-12.23,13.21-31.13,22.95-38.15h0c14.14-10.19,27.42-10.31,38.09-10.4,7.31-.07,13.64-.12,19.69-3.1,8.21-4.05,7.48-12.27,7.06-14.7-.91-5.28-4.87-11.78-13.02-12.73ZM840.16,436.29c-3.63-4.36-12.92-6.75-25.02-6.75-4.02,0-8.34.26-12.88.81-30.29,3.64-60.26,26.86-69.7,53.99-6.65,19.09-7.47,94.98-4.71,118.31,1.17,9.94,8.27,11.64,11.26,11.91,5.63.44,12.78-2.47,15.14-10.17,3.73-12.2,2.77-29.26,1.76-47.32-2.29-40.91-5.15-91.83,53.78-99.5,4.45-.59,8.94-.42,13.3-.26,13.28.47,15.94-.44,17.71-6.12,2.12-6.84,1.91-11.85-.62-14.89Z" fill="#fff"/></svg>