<?xml version="1.0" encoding="UTF-8"?><svg id="Layer_1" xmlns="http://www.w3.org/2000/svg" viewBox="0 0 1000 1000"><circle cx="500" cy="500" r="481" fill="#13dfec"/><path d="M430.95,584.53c2.59-4.93,2.55-9.3-.16-14.18-2.02-3.65-4.12-5.76-6.25-6.28-5.44-1.24-14.75,4.97-22.31,10-7.01,4.66-13.62,9.05-20.27,10.41-32.07,6.52-63.34-10.18-72.73-38.88l-4.06-12.39h146.84c2.24-1.86,5.3-15.67,4.68-24.41-2.22-31.84-23.16-58.07-56.03-70.17-11.84-4.36-24.02-6.48-35.89-6.48-24.31,0-47.34,8.89-63.75,25.64-33.29,33.99-30.81,76.08-17.39,104.13,13.6,28.44,45.11,57.19,93.26,52.56,16.25-1.56,46.1-14.84,54.06-29.95ZM311.78,493.82c6.86-20.77,33.01-34.2,53.31-34.73.35,0,.71-.01,1.06-.01,19.59,0,46.64,13.74,55.08,34.08l5.42,13.08h-118.98l4.11-12.42ZM528.5,432.32l-8.4.52-1.49-8.29c-2.22-12.37.78-25.87,8.03-36.11,6.07-8.59,14.39-13.96,24.09-15.56,5.64-.92,12.93-1.05,20.66-1.18,13.51-.23,36.12-.6,40.86-7.74,2.06-3.11.49-8.76-1.19-12.95-3.45-8.64-29.52-11.7-62.09-7.32-17.85,2.42-33.69,11.8-44.63,26.43-11.12,14.88-15.71,33.11-12.92,51.33l1.81,11.79-11.89-.94c-8.98-.72-16.79,1.59-20.47,5.99-2.52,3.03-3.06,7.33-1.62,12.79,1.8,6.72,6.34,8.37,16.53,9.73,5.68.75,13.45,1.79,15.56,9.59l.48,1.78-.23,1.83c-1.87,15.37-.84,34.29.16,52.59,1.26,23.07,2.56,46.92-1.57,66.56-2.88,13.68-13.77,26.8-26.51,31.92-8.17,3.29-16.48,3.19-23.82,3.21-.47,0-.92,0-1.37,0-11.57,0-14.62.86-16.87,7.34-3.42,9.88-.44,13.7.54,14.96,4.38,5.62,16.37,8.64,29.77,7.48,27.23-2.3,62-27.3,66.55-56.23v-139.16l8.58-.8c4.02-.37,8.55-.43,13.25-.48,22.64-.22,30.32-2.15,31.19-13.14.51-6.28-1.35-8.95-2.79-10.42-7.42-7.55-28.73-6.24-40.21-5.53ZM276.68,454.41c2.04-2.79,1.37-8.26.44-12.36-1.51-6.71-9.31-10.09-23.21-10.09-4.37,0-9.32.33-14.89,1-31.54,3.77-60.43,28.63-68.71,59.11-5.79,21.29-6.73,80.59-4.02,104.29,1.03,9,5.35,15.19,11.53,16.55,6.21,1.37,13.16-2.26,17.99-9.3,1.63-10.48.84-24.7,0-39.72-2.14-38.24-4.81-85.83,34.89-99.77,7-2.46,15.05-3.15,22.83-3.82,9.42-.81,20.09-1.73,23.14-5.89ZM688.73,432.2c-3.84-.44-7.65-.66-11.43-.66-38.45,0-72.91,22.59-84.44,56.7-6.25,18.49-7.71,88.48-4.69,113.26,1.14,9.35,10.2,10.9,12.95,11.15,5.37.57,11.89-1.31,13.5-6.43,3.36-10.75,2.19-30.64,1.05-49.87-1.03-17.47-2.01-33.96-.08-46.81,1.81-11.96,12.92-30.45,22.44-37.31h0c13.83-9.97,26.82-10.08,37.26-10.17,7.15-.06,13.34-.12,19.26-3.03,8.03-3.96,7.32-12.01,6.91-14.38-.89-5.17-4.76-11.53-12.73-12.45ZM833.17,438.78c-3.55-4.26-12.64-6.61-24.47-6.61-3.93,0-8.16.26-12.6.79-29.63,3.56-58.94,26.27-68.18,52.81-6.51,18.68-7.3,92.9-4.61,115.72,1.14,9.72,8.09,11.38,11.01,11.65,5.5.43,12.5-2.41,14.81-9.95,3.65-11.94,2.71-28.62,1.72-46.28-2.24-40.02-5.04-89.82,52.6-97.32,4.35-.57,8.74-.41,13.01-.26,12.99.46,15.59-.43,17.32-5.99,2.08-6.69,1.86-11.59-.61-14.56Z" fill="#fff"/></svg>