<?xml version="1.0" encoding="UTF-8"?><svg id="Layer_1" xmlns="http://www.w3.org/2000/svg" viewBox="0 0 1000 1000"><path d="M580.67,220.25c80.41,11.92,150.45,50.05,202.78,104.42,11.46-10.92,27.66-16.64,44.54-14.14,29.07,4.31,49.15,31.37,44.84,60.44-2.62,17.65-13.62,31.98-28.37,39.56,31.93,63.03,45.34,136.21,34.19,211.42-9.13,61.62-33.67,117.14-69.09,163.27,23.37,16.16,36.87,44.68,32.42,74.68-6.24,42.07-45.4,71.12-87.47,64.89-26.38-3.91-47.63-20.76-58.29-43.15-64.76,34.87-140.92,49.91-219.27,38.29-180.89-26.82-309.36-186.17-301.5-364.94-56.52-28.13-91.17-90.28-81.41-156.11,12.13-81.85,88.32-138.36,170.16-126.23,17.94,2.66,34.65,8.39,49.7,16.59,73.28-56.07,168.28-83.59,266.77-68.99h0Z" fill="#d7f7f7" fill-rule="evenodd"/><path d="M731.02,356.76c1-.11,1.49,1.14.6,1.69-.12.07-.25.11-.39.13l-.54.06-.96.11-.95.12-.94.13-.39.06c-.43.06-.84-.15-1.01-.53-.25-.55.12-1.19.74-1.28l.41-.06.96-.13.97-.12.97-.11.54-.06h0ZM721.46,358.17c.43-.08.86.12,1.05.5.26.54-.07,1.18-.68,1.3l-.39.07-.89.18-.88.18-.88.19-.69.15c-1.02.22-1.62-1.03-.77-1.63.11-.07.21-.11.34-.15l.71-.16.89-.19.9-.18.9-.18.39-.07h0ZM712.04,360.38c.93-.27,1.64.82.96,1.5-.12.12-.26.2-.42.25l-.56.16-.82.24-.81.24-.8.25-.65.21c-.98.31-1.72-.87-.93-1.55.1-.08.2-.14.32-.18l.67-.21.82-.26.82-.25.83-.24.56-.16h0ZM702.88,363.46c.21-.08.4-.09.61-.04.89.24.95,1.38.11,1.73l-.92.37-.74.3-.73.31-.72.31-.37.16c-.39.17-.85.09-1.13-.22-.42-.45-.26-1.17.32-1.43l.39-.17.74-.32.75-.31.75-.31.94-.38h0ZM694.11,367.47c.38-.2.86-.13,1.16.17.43.44.31,1.13-.24,1.43l-.75.4-.66.36-.65.36-.65.37-.58.34c-.94.54-1.94-.56-1.21-1.38.06-.07.13-.12.21-.17l.59-.35.66-.38.67-.37.67-.37.77-.41h0ZM685.89,372.46c.82-.57,1.89.3,1.41,1.16-.07.12-.16.22-.28.31l-.21.14-.58.41-.57.42-.57.42-.56.42-.52.4c-.73.57-1.8-.11-1.52-.97.05-.17.17-.33.31-.44l.54-.41.58-.43.58-.43.59-.43.6-.42.21-.14h0ZM678.41,378.43c.26-.24.61-.32.95-.22.7.21.91,1.03.38,1.53l-.48.44-.49.46-.49.47-.48.47-.47.47-.26.26c-.31.32-.81.39-1.2.17-.51-.3-.62-.98-.2-1.4l.27-.28.49-.49.49-.48.5-.48.51-.48.48-.44h0ZM671.85,385.31c.55-.64,1.61-.36,1.71.47.02.24-.04.46-.2.66l-.42.52-.41.51-.4.51-.39.51-.39.51-.25.35c-.58.8-1.91.31-1.73-.68.03-.13.08-.25.16-.36l.27-.36.4-.53.4-.53.41-.52.42-.52.43-.53h0ZM666.37,393.01c.14-.24.39-.4.67-.45.8-.13,1.4.68.99,1.35l-.22.37-.32.54-.31.54-.31.55-.3.55-.34.63c-.41.79-1.65.63-1.81-.24-.03-.2,0-.37.09-.56l.36-.67.31-.56.32-.56.32-.56.33-.56.22-.37h0ZM662.1,401.36c.4-.93,1.85-.67,1.85.33,0,.12-.02.22-.07.34l-.24.57-.23.57-.22.57-.22.57-.21.57-.19.53c-.27.79-1.45.85-1.79.08-.1-.21-.1-.44-.03-.65l.2-.55.22-.59.22-.59.23-.59.24-.59.24-.59h0ZM659.12,410.2c.09-.38.44-.67.85-.7.66-.06,1.17.51,1.01,1.12l-.17.67-.14.59-.14.59-.13.59-.12.59-.1.5c-.07.38-.4.69-.81.74-.65.09-1.2-.44-1.08-1.06l.1-.52.13-.61.13-.61.14-.61.15-.61.17-.69h0ZM657.46,419.34c.03-.3.21-.55.47-.7.68-.38,1.51.13,1.43.87l-.07.68-.05.6-.05.6-.04.6-.04.6-.03.52c-.05.97-1.44,1.23-1.85.31-.05-.12-.07-.24-.06-.37l.03-.54.04-.62.04-.61.05-.61.06-.61.07-.7h0ZM657.15,428.6c-.01-.41.25-.77.65-.91.6-.2,1.25.21,1.27.82l.03.65.03.6.04.6.04.6.05.6.05.56c.09.98-1.28,1.41-1.81.52-.06-.1-.09-.22-.1-.34l-.05-.58-.05-.61-.04-.61-.04-.61-.03-.61-.03-.67Z" fill="#210328" fill-rule="evenodd" opacity=".41"/><polygon points="716.76 361.25 745.2 352.15 717.15 353.03 716.76 361.25" fill="#221e54" fill-rule="evenodd" opacity=".53"/><polygon points="745.2 352.15 714.38 348.79 717.15 353.03 745.2 352.15" fill="#15e9f4" fill-rule="evenodd"/><polygon points="719.34 356.59 725.45 366.14 745.2 352.15 719.34 356.59" fill="#15e9f4" fill-rule="evenodd"/><polygon points="716.76 361.25 719.34 356.59 721.59 360.1 716.76 361.25" fill="#221e54" fill-rule="evenodd"/><path d="M113.22,337.97c-.32.13-.68.09-.98-.09-.78-.48-.67-1.64.18-1.97l.44-.17.45-.16.45-.15.45-.15.2-.06c1.06-.31,1.89.96,1.13,1.81-.14.15-.3.25-.5.31l-.16.05-.42.13-.41.14-.41.15-.41.16h0ZM121.31,336.16c-1.14.09-1.67-1.43-.64-2.06.15-.08.3-.13.47-.14l.55-.04.48-.03.48-.02h.48s.49-.02.49-.02h.49s.49,0,.49,0h.49s.63.04.63.04c.23.01.45.1.63.24.83.68.31,2.02-.76,1.96l-.57-.02h-.46s-.46-.02-.46-.02h-.46s-.46,0-.46,0h-.45s-.45.03-.45.03l-.45.02-.52.04h0ZM132,336.93c-1.15-.24-1.19-1.9.01-2.17.15-.03.29-.03.44,0l.54.11.5.11.5.12.5.12.5.13.5.13.5.14.5.14.37.11c.33.1.6.36.72.68.3.86-.49,1.69-1.36,1.43l-.35-.1-.48-.14-.48-.13-.48-.13-.48-.12-.48-.12-.47-.11-.47-.11-.52-.11h0ZM142.3,340.24c-1.11-.49-.75-2.15.5-2.12.14,0,.26.04.39.09l.68.3.49.22.49.22.48.23.48.23.48.24.48.24.49.25c1.04.55.62,2.15-.59,2.08-.15-.01-.29-.05-.43-.12l-.46-.24-.47-.23-.47-.23-.47-.22-.47-.22-.47-.22-.47-.21-.66-.29h0ZM143.18,338.21l3.04,3.89,1.03-1.96-4.07-1.93h0ZM151.88,345.37c-.92-.58-.5-2.03.59-2.03.22,0,.42.06.61.18l.71.46.45.3.45.3.45.31.45.31.45.31.75.54c.73.54.54,1.67-.32,1.95-.33.1-.7.04-.98-.16l-.72-.52-.87-.61-.44-.3-.44-.3-.44-.29-.69-.45h0ZM160.58,351.9c-.86-.77-.12-2.18,1.02-1.9.17.05.32.12.45.24l.77.69.4.36.4.36.39.37.39.37.39.37.55.54c.81.84-.02,2.18-1.13,1.83-.18-.06-.3-.14-.44-.27l-.52-.51-.37-.36-.76-.71-.38-.35c-.38-.35-.76-.69-1.15-1.03h0ZM168.18,359.68c-.12-.16-.2-.32-.23-.52-.16-1.14,1.23-1.74,1.95-.88l.26.32.33.4.32.4.32.41.31.41.31.41.3.41.3.41.28.4c.71,1.03-.53,2.25-1.55,1.54-.1-.07-.18-.16-.25-.26l-.27-.38-.29-.4-.29-.4-.3-.39-.3-.39-.31-.39-.31-.39-.32-.39-.26-.32h0ZM174.24,368.64c-.22-.42-.14-.95.19-1.29.53-.53,1.41-.4,1.77.27l.3.58.22.43.21.43.21.43.2.43.19.43.19.43.18.43.21.53c.17.44.04.94-.31,1.24-.58.5-1.48.27-1.75-.44l-.19-.48-.17-.41-.18-.41-.18-.41-.19-.41-.19-.41-.2-.41-.21-.41-.29-.56h0ZM177.84,378.69c-.19-1.2,1.4-1.79,2.04-.75.07.13.11.23.14.38l.05.27.07.43.06.43.06.43.05.43.04.43.03.43.03.43.02.43v.43s.02.46.02.46c-.03,1.25-1.79,1.51-2.17.3-.03-.11-.04-.21-.04-.32v-.39s-.02-.39-.02-.39l-.02-.39-.02-.39-.03-.39-.04-.4-.04-.4-.05-.4-.06-.4-.06-.4-.05-.27h0ZM180.02,378.32l-1.79,4.57,2.21.03-.42-4.6h0ZM177.29,389.09c.12-.36.43-.64.8-.73.85-.19,1.57.6,1.3,1.43l-.06.19-.14.4-.15.4-.16.4-.17.4-.17.39-.18.39-.19.39-.2.39-.21.39-.22.38-.08.13c-.17.29-.48.49-.81.52-.92.1-1.55-.89-1.07-1.67l.25-.43.19-.34.18-.35.17-.35.16-.35.16-.35.15-.35.14-.36.13-.36.12-.36.06-.19h0ZM172.36,397.47c.71.02,1.34.75.99,1.56-.06.14-.16.27-.27.38l-.25.23-.37.33-.38.33-.39.32-.4.32-.41.32-.42.31-.43.31-.54.37c-1.06.68-2.25-.63-1.46-1.63.08-.09.15-.16.25-.22l.48-.33.4-.29.39-.29.38-.29.37-.3.36-.3.34-.29s-.09-.03-.13-.04c-.14-.06-.27-.14-.38-.26-.99-1.02-2.05-1.99-3.17-2.87-.94-.75-.18-2.26,1.01-1.92.13.04.26.1.37.19.2.16.39.32.59.48l.53.45c.79.69,1.53,1.39,2.26,2.14.29.3.37.68.29,1.01h0ZM162.61,403.5c.98-.45,1.96.66,1.4,1.58-.11.19-.29.35-.49.44l-.58.25-.58.25-.59.24-.6.24-.61.23-.62.23-.61.22c-1.02.36-1.9-.81-1.26-1.7.14-.18.31-.31.53-.39l.59-.21.6-.22.59-.23.58-.23.57-.23.56-.24.55-.24h0ZM153.18,405.27c.99.65.4,2.22-.81,2.01-.15-.03-.27-.08-.4-.16-1.49-.96-2.44-2.43-3-4.08-.33-1.03.82-1.88,1.72-1.23.18.14.31.31.38.53.4,1.18,1.05,2.25,2.11,2.93h0ZM150.98,396.46c-.13.45-.51.76-.98.8-.76.06-1.36-.68-1.14-1.41.43-1.56,1.25-3.13,2.37-4.3.33-.35.85-.44,1.28-.23.67.33.84,1.22.32,1.76-.88.93-1.5,2.15-1.84,3.38h0ZM157.97,391.05c-.49-.03-.9-.36-1.02-.84-.18-.71.39-1.41,1.12-1.37h.22s.26.02.26.02l.26.02.26.03.26.03.27.04.27.05.27.05.27.06.27.06.27.07.27.07.27.08.27.08.27.09.27.09.44.17c1.13.47.8,2.13-.43,2.13-.14,0-.26-.03-.39-.08l-.37-.14-.23-.08-.23-.08-.23-.07-.23-.07-.23-.06-.23-.06-.22-.05-.22-.05-.22-.04-.22-.04-.22-.03-.22-.03-.21-.02-.21-.02h-.21s-.22-.02-.22-.02h0ZM174.62,402.96c-.69-1,.46-2.21,1.49-1.58.13.08.22.17.31.3.88,1.23,1.7,2.49,2.46,3.79.57,1.02-.56,2.1-1.55,1.49-.16-.1-.27-.22-.36-.38-.73-1.24-1.51-2.45-2.35-3.63h0ZM179.9,412.39c-.23-.56.01-1.19.56-1.44.56-.26,1.24,0,1.48.58.2.48.4.95.59,1.43l.16.41.31.82c.19.52.37,1.04.54,1.56.15.47-.02.98-.43,1.26-.61.41-1.44.12-1.67-.57-.17-.5-.34-.99-.52-1.49-.2-.53-.4-1.05-.6-1.57-.14-.33-.27-.66-.41-.99h0ZM183.06,422.72c-.07-.36.04-.71.29-.97.62-.65,1.72-.31,1.88.57l.1.54.08.45.07.45.07.45.07.45.06.46.06.46.05.46.08.76c.08,1.07-1.22,1.63-1.94.82-.15-.19-.24-.38-.26-.62l-.07-.72-.05-.44-.05-.44-.06-.43-.06-.43-.07-.43-.07-.43-.07-.43-.1-.52h0ZM183.79,433.45c.02-.31.15-.56.38-.76.75-.64,1.88-.08,1.83.9l-.02.38-.03.47-.04.47-.04.47-.05.48-.05.48-.06.48-.06.48-.07.48-.05.33c-.05.3-.22.57-.47.74-.81.54-1.86-.14-1.71-1.09l.05-.3.07-.45.06-.45.06-.45.05-.45.05-.45.04-.45.04-.45.03-.45.02-.38h0ZM181.83,444.01c.14-.45.58-.76,1.04-.76.76,0,1.29.73,1.05,1.46l-.07.22-.16.48-.17.48-.17.48-.18.48-.19.47-.19.47-.2.47-.21.47-.1.22c-.16.35-.5.6-.88.64-.86.1-1.49-.78-1.13-1.56l.28-.64.19-.45.18-.45.18-.45.17-.45.17-.45.16-.45.15-.45.07-.22h0ZM177.18,453.7c.28-.42.8-.6,1.28-.44.69.24.97,1.05.57,1.66l-.23.35-.31.46-.31.46-.32.46-.33.46-.34.45-.34.45-.46.59c-.31.39-.84.51-1.3.32-.67-.3-.88-1.14-.43-1.71l.42-.54.33-.43.32-.43.31-.43.31-.44.3-.44.29-.44.23-.35Z" fill="#210328" fill-rule="evenodd" opacity=".41"/><polygon points="129.07 337.38 103.49 336.68 126.65 330.41 129.07 337.38" fill="#1a1840" fill-rule="evenodd" opacity=".49"/><polygon points="103.49 336.68 127.84 326.07 126.65 330.41 103.49 336.68" fill="#15e9f4" fill-rule="evenodd"/><polygon points="125.77 334.02 123.21 343.77 103.49 336.68 125.77 334.02" fill="#15e9f4" fill-rule="evenodd"/><polygon points="129.07 337.38 125.77 334.02 124.83 337.6 129.07 337.38" fill="#221e54" fill-rule="evenodd"/><path d="M828.24,808.8c-.31.09-.63.04-.9-.15-.7-.51-.52-1.59.3-1.83l.9-.28.89-.28.87-.28.86-.28.4-.13c1.01-.33,1.8.88,1.09,1.68-.12.13-.27.23-.44.29l-.4.13-.87.28-.89.28-.9.28-.92.28h0ZM863.31,678.77c.25-.03.46.02.67.15.82.52.54,1.78-.43,1.9-1.29.15-2.64.42-3.89.78-1.07.29-1.78-1.05-.96-1.77.12-.11.24-.17.4-.22,1.37-.39,2.8-.69,4.22-.85h0ZM853.13,681.93c.83-.4,1.73.38,1.44,1.25-.09.26-.27.48-.52.6-1.21.6-2.38,1.25-3.52,1.97-.38.24-.88.2-1.22-.09-.53-.46-.47-1.29.12-1.67,1.2-.75,2.43-1.44,3.7-2.07h0ZM844.29,687.72c.79-.66,1.96.12,1.65,1.12-.07.19-.16.34-.32.48-1.04.85-2.05,1.77-3.01,2.72-.66.64-1.76.18-1.76-.74,0-.28.1-.54.31-.74,1-.98,2.05-1.94,3.14-2.83h0ZM836.92,695.27c.63-.79,1.9-.31,1.85.71-.02.22-.09.4-.22.57-.84,1.06-1.63,2.15-2.37,3.28-.25.37-.71.55-1.14.43-.67-.19-.97-.98-.59-1.57.78-1.18,1.6-2.31,2.48-3.42h0ZM831.37,704.28c.46-1.04,2.01-.7,1.98.46,0,.13-.03.24-.09.36l-.23.55-.2.48-.19.48-.18.48-.17.48-.16.48-.15.48-.09.32c-.1.35-.38.63-.73.73-.78.2-1.47-.5-1.26-1.28l.1-.36.16-.52.17-.52.18-.52.19-.52.2-.52.21-.52.25-.58h0ZM828.85,714.65c.04-.78.88-1.24,1.56-.85.33.2.53.55.51.94l-.03.49-.02.48v.48s-.01.48-.01.48v.48s.02.47.02.47l.02.47.03.47v.19c.1,1.14-1.45,1.57-1.96.52-.05-.11-.08-.22-.09-.35l-.02-.22-.03-.51-.02-.51v-.51s-.02-.51-.02-.51v-.51s.01-.51.01-.51l.02-.51.03-.49h0ZM829.92,725.2c-.26-1.08,1.11-1.76,1.81-.9.1.12.16.25.2.4l.12.48.13.47.13.47.14.47.14.47.15.47.16.47.19.56c.15.43.01.9-.35,1.17-.56.42-1.36.18-1.6-.47l-.21-.6-.16-.49-.16-.49-.15-.49-.15-.49-.14-.49-.13-.5-.13-.5h0ZM833.55,735.1c-.15-.31-.13-.66.04-.96.42-.72,1.47-.68,1.83.07l.39.83.23.47.47.93c.25.48.49.96.75,1.43.54,1.01-.71,2.02-1.6,1.27-.09-.08-.16-.17-.22-.28-.26-.49-.52-.98-.77-1.47l-.48-.95-.23-.48-.4-.84h0ZM838.54,744.28c-.56-.92.5-1.99,1.44-1.41.14.09.25.2.33.34.71,1.17,1.44,2.34,2.17,3.5.54.85-.33,1.9-1.28,1.51-.2-.09-.35-.21-.47-.4-.75-1.17-1.48-2.35-2.2-3.54h0ZM844.13,753.03c-.61-.93.48-2.05,1.44-1.43.11.08.21.18.29.29.76,1.15,1.52,2.3,2.28,3.46.59.9-.41,2.01-1.4,1.46-.13-.08-.24-.19-.33-.32-.76-1.15-1.52-2.3-2.28-3.45h0ZM849.77,761.68c-.53-.87.36-1.9,1.29-1.5.2.09.35.22.46.4.74,1.18,1.46,2.36,2.17,3.56.52.92-.46,1.92-1.4,1.42-.17-.1-.28-.21-.38-.38-.69-1.18-1.41-2.35-2.13-3.51h0ZM854.79,770.58c-.47-1.04.81-1.97,1.65-1.19.1.09.17.19.23.31l.39.83.19.42.18.42.18.42.17.41.17.41.16.41.22.57c.39,1.11-1.05,1.92-1.8.98-.06-.09-.11-.17-.15-.27l-.2-.53-.16-.39-.16-.39-.17-.4-.17-.4-.18-.4-.18-.4-.19-.4-.19-.41h0ZM857.9,780.08c-.14-1.04,1.21-1.6,1.85-.76.11.15.18.3.2.49l.02.16.05.4.04.4.03.4.02.4.02.4v.4s0,.4,0,.4v.4s-.03.4-.03.4l-.03.4-.02.2c-.04.43-.35.8-.78.9-.69.17-1.36-.39-1.28-1.11v-.15s.04-.35.04-.35v-.35s.02-.35.02-.35v-.71s-.02-.36-.02-.36l-.02-.36-.03-.36-.04-.36-.04-.37-.02-.16h0ZM856.41,789.52c.52-.98,2.01-.57,1.95.55-.01.15-.05.28-.12.41l-.04.08-.2.37-.21.37-.22.37-.23.37-.25.37-.26.37-.27.36-.28.36-.29.36-.19.23c-.31.36-.8.46-1.22.27-.62-.29-.79-1.08-.35-1.61l.16-.19.26-.33.25-.33.24-.33.23-.33.22-.33.21-.33.2-.33.19-.33.18-.33.04-.08h0ZM849.87,796.8c.31-.23.73-.26,1.07-.09.7.36.77,1.3.14,1.76l-.33.25-.46.33-.48.33-.49.33-.5.33-.52.33-.53.32-.22.13c-.92.54-1.97-.51-1.4-1.45.1-.15.2-.24.35-.34l.2-.12.5-.31.49-.31.48-.31.47-.31.45-.31.44-.31.33-.25h0ZM841.09,801.85c.42-.19.92-.08,1.21.27.45.52.27,1.33-.35,1.62l-.88.4-.69.3-.71.3-.72.3-.86.35c-.42.16-.89.04-1.17-.3-.45-.54-.24-1.37.42-1.63l.83-.34.7-.29.69-.29.67-.3.86-.39Z" fill="#210328" fill-rule="evenodd" opacity=".41"/><polygon points="863.59 681.23 888.25 666.8 862.21 673.1 863.59 681.23" fill="#221e54" fill-rule="evenodd" opacity=".61"/><polygon points="888.25 666.8 858.72 669.48 862.21 673.1 888.25 666.8" fill="#15e9f4" fill-rule="evenodd"/><polygon points="865.01 676.16 872.75 684.33 888.25 666.8 865.01 676.16" fill="#15e9f4" fill-rule="evenodd"/><polygon points="863.59 681.23 865.01 676.16 867.86 679.16 863.59 681.23" fill="#221e54" fill-rule="evenodd"/><path d="M246.63,735.17c-.96-.61-1.77-.8-2.63-.95h-.11c-.72-.14-1.53-.03-2.2.06-.77.11-1.41.19-2.02.02-1.23-.36-1.75-1.17-1.23-2.99.31-1.06,1.09-1.8,2.05-2.33,1.11-.6,2.49-.91,3.46-1.02,1.8-.22,1.83-1.24,1.86-2.34.01-.49.02-.99.11-1.54.28-1.89,1.21-2.88,2.4-3.36,1.05-.43,2.22-.38,3.25-.23,1.12.16,1.92.17,2.37-.08.34-.19.56-.68.66-1.58h0c.13-1.2.7-2.08,1.43-2.71.97-.84,2.2-1.19,2.96-1.33,2.61-.46,3.6.52,3.9,2.22.15.86.03,1.81-.1,2.81-.13.98-.26,2.02-.09,2.76.21.91.6,1.87,1.11,2.77.52.92,1.15,1.75,1.79,2.37,2.19,2.09,2,5.36.45,8.3-.65,1.24-1.56,2.43-2.62,3.44-1.08,1.02-2.32,1.86-3.65,2.37-2.92,1.13-6.16.76-8.83-2.44-1.9-2.28-3.23-3.52-4.33-4.21Z" fill="#e0d2fc" fill-rule="evenodd"/><path d="M293.19,706.31c.36.69.64,1.43.83,2.19.39,1.58.38,3.25-.11,4.72-.5,1.5-1.48,2.8-3.03,3.61-.48.25-1.02.46-1.61.6l-.41.1-.24-.34c-.3-.43-.55-.86-.75-1.3-.79-1.74-.77-3.49-.18-5.06.58-1.54,1.7-2.9,3.11-3.89.5-.35,1.03-.66,1.6-.91l.53-.24.27.52Z" fill="#e0d2fc" fill-rule="evenodd"/><path d="M291.57,721.7c.11.32-.06.67-.38.78-.32.11-.67-.06-.78-.38-.02-.05-6.34-18.06-16.39-26.78-.26-.22-.28-.61-.06-.87.22-.26.61-.28.87-.06,10.29,8.93,16.72,27.25,16.74,27.3Z" fill="#210328" fill-rule="evenodd" opacity=".41"/><path d="M295.31,720.84c-.87.34-1.7.8-2.47,1.33-1.59,1.13-2.88,2.64-3.59,4.34-.72,1.72-.85,3.64-.09,5.56.24.6.56,1.2.98,1.79l.17.24.29-.07c.61-.15,1.17-.35,1.68-.58,2.06-.95,3.39-2.52,4.08-4.37.68-1.83.73-3.92.23-5.93-.18-.71-.42-1.41-.73-2.08l-.17-.37-.38.15h0ZM279.83,746.28c.94.09,1.89.07,2.83-.07,1.95-.28,3.8-1.05,5.22-2.25,1.44-1.22,2.43-2.89,2.63-4.95.06-.65.05-1.33-.06-2.06l-.04-.29-.29-.07c-.62-.14-1.21-.22-1.78-.25-2.28-.09-4.2.71-5.67,2.06-1.45,1.33-2.46,3.19-2.93,5.23-.17.72-.27,1.46-.3,2.2l-.02.41.41.04h0ZM274.71,739.83l-.41-.04.02-.41c.02-.58.1-1.17.24-1.74.37-1.61,1.17-3.08,2.32-4.13,1.17-1.07,2.69-1.71,4.5-1.63.45.02.92.08,1.41.2l.29.07.04.29c.08.58.1,1.12.05,1.63-.16,1.64-.95,2.96-2.09,3.93-1.12.95-2.59,1.56-4.12,1.78-.74.11-1.49.13-2.23.05h0ZM268.19,734.34c.63.17,1.27.26,1.92.27,1.35.03,2.69-.28,3.79-.94,1.12-.67,1.98-1.7,2.35-3.08.12-.43.18-.9.19-1.4v-.29s-.27-.11-.27-.11c-.4-.16-.79-.29-1.18-.37h0c-1.54-.32-2.94.01-4.1.76-1.14.74-2.02,1.89-2.57,3.21-.19.47-.34.95-.45,1.45l-.08.4.4.11h0ZM263.35,730.45l-.4-.11.08-.4c.07-.34.17-.67.3-.98.37-.9.98-1.68,1.75-2.18.79-.52,1.75-.75,2.81-.53h0c.26.06.53.14.8.25l.27.11v.29c-.01.34-.06.66-.14.96-.25.96-.85,1.66-1.62,2.12-.75.45-1.66.66-2.57.64-.44,0-.87-.07-1.3-.18h0ZM252.88,722.75l-.22-.35.33-.24c.4-.28.82-.52,1.26-.73,1.25-.57,2.62-.8,3.9-.57,1.3.23,2.5.91,3.38,2.14.16.23.32.49.46.76,24.43,2.87,36.15,18.44,36.18,18.49.15.19.11.46-.08.61-.19.15-.46.11-.61-.08-.03-.04-11.52-15.32-35.57-18.16-.3.3-.62.54-.94.75-1.17.73-2.45.89-3.67.62-1.2-.26-2.34-.91-3.27-1.81-.45-.43-.84-.92-1.17-1.44h0ZM266.76,718c-.15.44-.25.91-.3,1.37-.09.98.06,1.97.48,2.8.43.86,1.14,1.54,2.13,1.89.31.11.65.18,1.02.22l.29.03.13-.26c.14-.29.25-.57.33-.84.32-1.11.15-2.15-.34-3.03-.48-.87-1.26-1.57-2.2-2.04-.33-.17-.68-.3-1.03-.4l-.39-.11-.13.39h0ZM275.72,716.42c-.42.53-.78,1.12-1.07,1.75-.59,1.3-.85,2.73-.68,4.06h0c.18,1.36.81,2.63,2,3.57.37.29.8.55,1.28.78l.27.12.21-.21c.33-.32.61-.65.85-.99.96-1.36,1.22-2.85.98-4.28-.24-1.41-.98-2.75-2.03-3.84-.37-.38-.78-.73-1.22-1.04l-.33-.23-.25.32h0ZM285.13,719.11c-.55.42-1.04.9-1.47,1.42-.9,1.11-1.51,2.42-1.67,3.77-.17,1.36.13,2.75,1.04,3.95.29.38.63.74,1.05,1.07l.23.18.26-.15c.4-.23.76-.48,1.07-.74,1.27-1.08,1.9-2.46,2.02-3.91.12-1.42-.26-2.91-1.01-4.22-.27-.47-.57-.91-.92-1.32l-.26-.31-.32.25Z" fill="#15e9f4" fill-rule="evenodd"/><path d="M311.48,699.88c-.52-.33-1.09-.6-1.67-.8-1.22-.41-2.53-.52-3.72-.24-1.2.29-2.28.96-3.01,2.11-.23.36-.43.77-.58,1.22l-.06.18.15.13c.32.27.64.49.97.67,1.31.73,2.67.83,3.93.48,1.24-.35,2.38-1.14,3.26-2.18.31-.37.59-.77.83-1.2l.13-.24-.23-.14h0ZM291.85,701.48c.32.54.7,1.04,1.14,1.49.91.93,2.04,1.63,3.23,1.92,1.21.3,2.49.18,3.67-.52.37-.22.73-.49,1.08-.83l.14-.14-.08-.18c-.16-.39-.35-.74-.56-1.05-.84-1.26-2.02-1.97-3.31-2.24-1.28-.26-2.66-.07-3.94.46-.45.19-.89.42-1.29.7l-.22.15.14.23h0ZM293.31,696.24c.25.42.55.82.9,1.17.72.74,1.61,1.28,2.56,1.52.96.23,1.98.14,2.92-.41.29-.17.58-.39.86-.66l.14-.14-.08-.18c-.13-.31-.28-.58-.44-.83-.66-1-1.6-1.56-2.62-1.77-1.01-.21-2.11-.06-3.11.37-.36.15-.7.33-1.02.55l-.22.15.14.23h0ZM293.72,690.61c.15.4.36.78.6,1.13.51.73,1.2,1.33,1.98,1.66.79.34,1.68.4,2.57.06.28-.11.55-.25.83-.44l.16-.11-.05-.19c-.07-.28-.16-.54-.26-.77h0c-.43-.95-1.15-1.57-2-1.9-.84-.32-1.8-.35-2.72-.13-.32.08-.64.19-.95.33l-.25.11.1.25h0ZM293.92,686.51c.1.27.24.53.41.77.35.5.81.9,1.34,1.13.54.23,1.15.28,1.76.04.19-.07.38-.17.57-.3l.16-.11-.05-.19c-.05-.19-.11-.36-.18-.53h0c-.29-.65-.79-1.08-1.37-1.3-.57-.22-1.22-.24-1.85-.09-.22.05-.44.13-.64.22l-.25.11.1.25h0ZM293.97,677.91l.1-.25.26.09c.3.1.6.24.88.39.79.45,1.44,1.09,1.82,1.87.39.78.49,1.69.17,2.64-.06.18-.14.36-.23.54,7.96,14.2,4.18,26.52,4.17,26.56-.04.15-.2.24-.36.19-.15-.05-.24-.2-.19-.36.01-.04,3.72-12.12-4.11-26.1-.28-.05-.53-.12-.77-.21-.85-.34-1.42-.96-1.76-1.72-.33-.74-.42-1.61-.3-2.46.06-.41.16-.81.32-1.19h0ZM301.91,683.49c-.3.09-.58.22-.85.38-.56.33-1.03.8-1.31,1.35-.29.56-.39,1.21-.18,1.88.06.21.15.42.28.63l.1.17.19-.03c.21-.03.4-.08.58-.15.72-.26,1.21-.76,1.49-1.36.28-.59.35-1.29.24-1.97-.04-.24-.1-.48-.18-.71l-.09-.25-.26.08h0ZM306.24,687.68c-.45-.02-.91.02-1.35.11-.92.19-1.79.6-2.44,1.22h0c-.66.63-1.09,1.46-1.13,2.46-.01.31.01.64.08.99l.04.19.19.03c.3.05.59.07.86.07,1.1-.02,2-.46,2.67-1.14.66-.68,1.09-1.6,1.26-2.58.06-.35.09-.7.08-1.06v-.27s-.27-.01-.27-.01h0ZM308.46,693.76c-.44-.13-.89-.21-1.33-.23-.94-.05-1.88.14-2.67.57-.79.44-1.42,1.14-1.71,2.09-.09.3-.15.63-.17.98v.19s.17.08.17.08c.28.13.55.22.82.28,1.07.26,2.05.06,2.88-.44.81-.49,1.46-1.27,1.87-2.18.15-.32.26-.66.35-1l.06-.26-.26-.08Z" fill="#15e9f4" fill-rule="evenodd"/><path d="M279.88,738.6c8.22-7.24,21.43-8.29,26.65,3.74-8.58,9.83-20.48,5.52-26.65-3.74Z" fill="#15e9f4" fill-rule="evenodd"/><path d="M283.7,739.57c-.17-.02-.29-.19-.27-.38.02-.19.18-.32.35-.3l4.07.56-2.39-2.6c-.12-.13-.12-.35,0-.48.12-.13.32-.13.45,0l2.96,3.23,5.14.7-2.56-3.71c-.1-.15-.07-.37.07-.48.14-.11.34-.08.44.07l2.93,4.24,5.65.77-2.96-4.47c-.1-.15-.07-.37.07-.48.14-.11.34-.08.44.08l3.3,4.99,5.18.71c.17.02.29.19.27.38-.02.19-.18.32-.35.3l-5.1-.7-4.5,3.99c-.14.12-.33.1-.44-.05-.11-.15-.09-.36.04-.48l4.04-3.58-5.69-.78-3.91,3.33c-.14.12-.34.09-.44-.06-.11-.15-.08-.36.06-.48l3.42-2.91-5.17-.71-3.65,2.3c-.15.1-.34.04-.43-.12-.09-.16-.04-.37.12-.47l2.93-1.85-4.06-.55Z" fill="#844bf0" fill-rule="evenodd"/><path d="M277.42,757.66c9.65-16.45,30.43-25.87,44.85-9.58-8.94,20.82-30.27,20.86-44.85,9.58Z" fill="#d7c6fb" fill-rule="evenodd"/><path d="M284.03,756.75c-.17.04-.34-.08-.37-.27-.03-.19.08-.37.25-.4l7.47-1.63-5.72-3.1c-.16-.08-.22-.29-.14-.46.08-.17.27-.24.42-.15l6.45,3.49,9.22-2.01-6.41-4.79c-.14-.11-.18-.32-.08-.48.1-.16.3-.2.44-.09l6.92,5.16,10.08-2.19-7.41-5.78c-.14-.11-.17-.32-.07-.48.1-.15.3-.19.44-.08l7.89,6.15,8.8-1.92c.17-.04.34.08.37.27.03.19-.08.37-.25.4l-8.67,1.89s-.02.04-.03.06l-5.28,9.07c-.09.16-.29.21-.44.11-.15-.1-.19-.31-.1-.47l5-8.59-10.15,2.21-4.7,7.72c-.1.16-.29.2-.44.1-.15-.1-.18-.32-.09-.47l4.36-7.16-9.28,2.02-4.79,5.89c-.12.14-.32.16-.45.03-.13-.12-.14-.34-.03-.48l4.24-5.22-7.46,1.62Z" fill="#844bf0" fill-rule="evenodd"/><path d="M310.78,681.41c13.3,7.97,21.6,26.53,9.53,40.64-16.68-7.09-17.68-26.66-9.53-40.64Z" fill="#00efe8" fill-rule="evenodd"/><path d="M311.74,687.44c-.04-.18.06-.37.23-.42.17-.05.34.06.38.25l1.58,6.62,2.1-5.28c.07-.17.26-.25.42-.18.16.07.23.28.16.45l-2.43,6.09,1.96,8.21,3.39-6.04c.09-.16.29-.21.43-.12.15.1.2.31.1.47l-3.71,6.6,2.14,9,4.12-7.01c.09-.16.29-.21.44-.11.15.1.19.31.1.47l-4.43,7.55,1.89,7.95c.04.18-.06.37-.23.42-.17.05-.34-.06-.38-.25l-1.86-7.83s-.02-.01-.03-.02l-7.33-4.36c-.15-.09-.21-.3-.12-.46.08-.17.28-.23.43-.14l6.84,4.07-2.16-9.05-6.23-3.89c-.15-.09-.2-.3-.12-.47.09-.16.28-.22.43-.13l5.7,3.55-1.97-8.27-4.81-4.06c-.14-.12-.16-.33-.05-.48.11-.15.31-.18.44-.06l4.16,3.52-1.57-6.62Z" fill="#161616" fill-rule="evenodd" opacity=".46"/><path d="M287.18,692.65c28.87,3.97,55.76,30.56,43.44,64.82-34.33.18-48.85-33.78-43.44-64.82Z" fill="#76ffff" fill-rule="evenodd"/><path d="M293.06,702.43c-.1-.15-.07-.37.07-.48.14-.11.34-.08.44.07l7.62,11.29.33-11.89c0-.19.15-.34.33-.33.17,0,.31.16.31.35l-.36,12.77,9.29,13.76,2.22-14.03c.03-.19.19-.31.37-.28.17.03.29.21.26.39l-2.33,14.69,10.14,15.01,2.89-16.3c.03-.19.2-.31.37-.27.17.03.28.21.25.4l-3.01,16.93,8.62,12.77c.1.15.07.37-.07.48-.14.11-.34.08-.44-.07l-8.52-12.62s-.11.03-.16.03l-15.9-2.13c-.17-.02-.3-.19-.27-.38.02-.19.18-.32.35-.3l15.51,2.08-10.2-15.11h-.03s-13.72-2.15-13.72-2.15c-.17-.03-.29-.2-.27-.39.03-.19.19-.32.36-.29l13.14,2.05-9.36-13.86-11.31-3.56c-.17-.05-.26-.24-.21-.42.05-.18.22-.29.39-.23l10.52,3.31-7.61-11.28Z" fill="#161616" fill-rule="evenodd" opacity=".46"/><path d="M287.57,753.81c.47.9.83,1.86,1.07,2.85.51,2.06.49,4.22-.14,6.13-.65,1.95-1.92,3.64-3.93,4.69-.63.33-1.33.59-2.1.78l-.53.13-.31-.45c-.39-.56-.71-1.12-.97-1.69-1.03-2.27-1-4.53-.24-6.57.75-2,2.2-3.76,4.04-5.06.65-.45,1.34-.85,2.07-1.18l.69-.31.35.67Z" fill="#e0d2fc" fill-rule="evenodd"/><path d="M270.16,696.05c-.43-.28-.8-.36-1.19-.43h-.05c-.33-.06-.69-.01-1,.03-.35.05-.64.09-.91,0-.56-.16-.79-.53-.56-1.35.14-.48.49-.82.93-1.05.5-.27,1.12-.41,1.56-.46.82-.1.83-.56.84-1.06,0-.22.01-.45.05-.7.13-.85.55-1.3,1.09-1.52.47-.19,1-.17,1.47-.11.51.07.87.08,1.07-.04.16-.09.25-.31.3-.72h0c.06-.54.32-.94.64-1.22.44-.38,1-.54,1.34-.6,1.18-.21,1.63.23,1.77,1,.07.39.01.82-.05,1.27-.06.44-.12.92-.04,1.25.09.41.27.85.5,1.25.24.42.52.79.81,1.07.99.94.9,2.42.2,3.75-.3.56-.7,1.1-1.18,1.55-.49.46-1.05.84-1.65,1.07-1.32.51-2.79.34-3.99-1.11-.86-1.03-1.46-1.59-1.96-1.9Z" fill="#8af9f6" fill-rule="evenodd"/><path d="M286.52,696.73c.3.57.53,1.18.68,1.81.32,1.31.31,2.68-.09,3.9-.41,1.25-1.23,2.33-2.52,3-.4.21-.85.38-1.34.5l-.41.1-.24-.34c-.25-.35-.45-.71-.62-1.07-.66-1.45-.64-2.9-.15-4.2.48-1.27,1.4-2.4,2.57-3.22.41-.29.85-.54,1.32-.75l.53-.24.27.52Z" fill="#8af9f6" fill-rule="evenodd"/><path d="M274.57,706.78c-.54-.4-1.04-.86-1.47-1.38l-.37-.45.42-.4c.38-.36.8-.69,1.25-.97,1.26-.8,2.71-1.25,4.12-1.2,1.45.05,2.85.61,3.99,1.82.28.3.54.64.79,1.02l.22.35-.25.34c-.31.43-.65.79-1.01,1.09-1.16.97-2.52,1.33-3.89,1.23-1.34-.1-2.67-.63-3.8-1.46Z" fill="#8af9f6" fill-rule="evenodd"/><path d="M278.58,718.52c-.66-.48-1.26-1.05-1.79-1.67l-.37-.45.42-.4c.47-.44.98-.83,1.52-1.18,1.53-.97,3.28-1.52,4.99-1.46,1.74.06,3.44.73,4.81,2.19.34.36.66.77.96,1.24l.22.35-.25.34c-.38.52-.79.95-1.22,1.32-1.39,1.17-3.04,1.6-4.69,1.49-1.62-.12-3.23-.77-4.61-1.77Z" fill="#8af9f6" fill-rule="evenodd"/><path d="M278.91,741.36c.39.74.69,1.54.89,2.35.42,1.7.4,3.49-.12,5.07-.54,1.62-1.6,3.03-3.27,3.9-.52.27-1.1.49-1.74.65l-.53.13-.31-.45c-.32-.46-.59-.93-.8-1.39-.85-1.88-.83-3.76-.2-5.45.62-1.66,1.82-3.11,3.34-4.18.53-.37,1.11-.7,1.71-.98l.69-.31.35.67Z" fill="#8af9f6" fill-rule="evenodd"/><path d="M268.6,769.66c-.86-.63-1.64-1.36-2.32-2.17l-.49-.58.55-.52c.61-.57,1.27-1.08,1.97-1.53,1.98-1.26,4.26-1.97,6.49-1.89,2.26.07,4.47.95,6.25,2.84.44.47.86,1,1.24,1.61l.29.46-.32.44c-.49.67-1.02,1.24-1.59,1.71-1.81,1.52-3.95,2.08-6.09,1.93-2.1-.15-4.2-.99-5.98-2.3Z" fill="#8af9f6" fill-rule="evenodd"/><path d="M285.47,773.79c.15.42-.07.87-.49,1.02-.42.15-.87-.07-1.02-.49-.02-.07-8.23-23.46-21.28-34.78-.33-.29-.37-.79-.08-1.12.29-.33.79-.37,1.12-.08,13.37,11.6,21.72,35.39,21.74,35.46Z" fill="#210328" fill-rule="evenodd" opacity=".41"/><path d="M290.32,772.68c-1.13.45-2.21,1.03-3.2,1.73-2.06,1.46-3.74,3.42-4.66,5.63-.93,2.24-1.1,4.73-.12,7.22.31.78.73,1.56,1.27,2.33l.22.31.37-.09c.79-.2,1.52-.45,2.19-.76,2.67-1.23,4.4-3.28,5.3-5.68.88-2.38.95-5.1.3-7.7-.23-.92-.55-1.83-.95-2.7l-.22-.48-.49.19h0ZM270.21,805.72c1.22.12,2.46.09,3.68-.09,2.53-.37,4.93-1.36,6.78-2.92,1.87-1.59,3.16-3.75,3.42-6.43.08-.84.06-1.73-.07-2.67l-.05-.38-.37-.09c-.81-.19-1.58-.29-2.31-.32-2.97-.12-5.46.93-7.37,2.68-1.89,1.73-3.19,4.15-3.8,6.79-.22.94-.35,1.9-.39,2.86l-.02.53.53.05h0ZM263.58,797.34l-.53-.05.02-.53c.03-.76.14-1.52.31-2.26.48-2.09,1.52-4,3.01-5.37,1.51-1.39,3.49-2.22,5.84-2.12.58.02,1.19.11,1.83.26l.37.09.05.38c.11.75.12,1.45.06,2.12-.21,2.13-1.23,3.85-2.72,5.11-1.46,1.24-3.36,2.02-5.36,2.31-.96.14-1.94.16-2.9.07h0ZM255.1,790.21c.81.22,1.65.33,2.49.35,1.75.03,3.49-.37,4.92-1.22,1.45-.87,2.57-2.2,3.06-4.01.15-.56.24-1.17.25-1.82v-.38s-.35-.15-.35-.15c-.52-.21-1.03-.37-1.53-.48h0c-2.01-.42-3.82.02-5.32.99-1.47.96-2.63,2.45-3.34,4.17-.25.61-.45,1.24-.58,1.89l-.11.52.51.14h0ZM248.82,785.16l-.51-.14.11-.52c.09-.44.22-.87.39-1.28.48-1.17,1.27-2.18,2.27-2.84,1.03-.67,2.27-.97,3.65-.68h0c.34.07.69.18,1.04.32l.36.15v.38c-.02.44-.08.86-.18,1.25-.33,1.24-1.1,2.16-2.1,2.75-.97.58-2.15.86-3.34.83-.57-.01-1.14-.09-1.69-.24h0ZM235.21,775.16l-.28-.45.43-.31c.51-.36,1.06-.68,1.64-.94,1.62-.74,3.4-1.03,5.07-.75,1.69.29,3.25,1.18,4.39,2.78.21.3.41.63.6.99,31.74,3.73,46.95,23.96,47,24.01.19.25.14.6-.1.79-.25.19-.6.14-.79-.1-.04-.06-14.97-19.89-46.19-23.58-.39.39-.8.71-1.22.97-1.52.95-3.18,1.15-4.77.81-1.56-.33-3.04-1.19-4.25-2.35-.58-.56-1.09-1.19-1.52-1.87h0ZM253.24,768.99c-.2.57-.33,1.18-.39,1.79-.12,1.27.08,2.55.63,3.64.56,1.11,1.47,2.01,2.77,2.46.4.14.84.24,1.32.28l.38.04.17-.34c.19-.37.33-.74.43-1.09.41-1.44.19-2.79-.44-3.94-.62-1.12-1.64-2.04-2.85-2.65-.43-.22-.88-.39-1.34-.52l-.51-.15-.17.5h0ZM264.89,766.94c-.55.69-1.02,1.46-1.39,2.27-.77,1.68-1.11,3.54-.88,5.28h0c.23,1.77,1.05,3.42,2.59,4.64.48.38,1.03.72,1.66,1.01l.35.16.27-.27c.43-.41.8-.84,1.11-1.29,1.25-1.77,1.59-3.71,1.27-5.56-.31-1.83-1.27-3.58-2.64-4.99-.48-.5-1.01-.95-1.59-1.36l-.43-.31-.33.42h0ZM277.11,770.44c-.71.54-1.36,1.17-1.91,1.85-1.16,1.44-1.96,3.15-2.17,4.89-.22,1.77.16,3.57,1.35,5.13.37.49.82.96,1.36,1.39l.3.24.33-.19c.52-.3.98-.62,1.39-.97,1.65-1.4,2.47-3.19,2.62-5.07.15-1.85-.34-3.78-1.31-5.48-.34-.6-.75-1.18-1.2-1.71l-.34-.4-.42.32Z" fill="#15e9f4" fill-rule="evenodd"/><path d="M270.28,795.74c10.68-9.41,27.83-10.77,34.62,4.86-11.15,12.77-26.6,7.17-34.62-4.86Z" fill="#15e9f4" fill-rule="evenodd"/><path d="M275.25,797c-.22-.03-.38-.25-.35-.5.03-.24.23-.42.46-.39l5.29.72-3.1-3.38c-.16-.17-.16-.46,0-.63.16-.17.42-.17.58,0l3.85,4.19,6.67.91-3.33-4.82c-.13-.2-.1-.47.08-.62.18-.15.44-.11.57.09l3.8,5.51,7.34,1-3.84-5.81c-.13-.2-.09-.48.1-.62.18-.14.44-.1.57.1l4.29,6.48,6.73.92c.22.03.38.25.35.5-.03.24-.23.42-.46.39l-6.62-.9-5.85,5.19c-.18.16-.43.13-.58-.06-.14-.19-.12-.47.06-.63l5.25-4.65-7.38-1.01-5.08,4.33c-.18.15-.44.12-.58-.07-.14-.19-.11-.47.07-.62l4.44-3.78-6.72-.92-4.74,2.99c-.2.12-.45.05-.56-.16-.11-.21-.05-.49.15-.61l3.81-2.4-5.27-.72Z" fill="#161616" fill-rule="evenodd" opacity=".43"/><path d="M267.09,820.5c12.53-21.37,39.52-33.6,58.25-12.44-11.61,27.05-39.32,27.09-58.25,12.44Z" fill="#76ffff" fill-rule="evenodd"/><path d="M275.67,819.32c-.22.05-.44-.11-.48-.35-.04-.24.1-.48.33-.52l9.71-2.11-7.44-4.02c-.2-.11-.28-.38-.18-.6.1-.22.35-.31.55-.2l8.38,4.53,11.97-2.61-8.33-6.22c-.19-.14-.23-.42-.1-.62.13-.2.38-.25.57-.12l8.98,6.71,13.1-2.85-9.63-7.5c-.18-.14-.22-.42-.09-.62.13-.2.39-.25.57-.1l10.25,7.99,11.43-2.49c.22-.05.44.11.48.35.04.24-.1.48-.33.52l-11.26,2.45s-.02.06-.04.08l-6.86,11.79c-.12.21-.37.27-.57.14-.19-.13-.25-.4-.13-.61l6.49-11.16-13.18,2.87-6.1,10.03c-.13.21-.38.26-.57.13-.19-.13-.24-.41-.12-.61l5.66-9.3-12.05,2.62-6.22,7.65c-.15.18-.41.2-.58.04-.17-.16-.19-.44-.04-.63l5.5-6.78-9.7,2.11Z" fill="#161616" fill-rule="evenodd" opacity=".46"/><path d="M279.76,736.07c37.5,5.16,72.42,39.69,56.43,84.19-44.59.24-63.45-43.88-56.43-84.19Z" fill="#15e9f4" fill-rule="evenodd"/><path d="M287.4,748.77c-.13-.2-.09-.48.09-.62.18-.15.44-.1.57.09l9.9,14.66.43-15.44c0-.25.2-.44.42-.43.23,0,.41.21.4.46l-.47,16.59,12.07,17.87,2.89-18.22c.04-.24.25-.41.47-.37.22.04.37.27.34.51l-3.02,19.08,13.17,19.5,3.76-21.17c.04-.24.26-.4.48-.36.22.04.37.28.33.52l-3.9,21.99,11.2,16.58c.13.2.09.48-.09.62-.18.15-.44.1-.57-.09l-11.07-16.39c-.07.03-.14.04-.21.03l-20.65-2.76c-.22-.03-.38-.25-.36-.49.03-.24.23-.42.46-.39l20.14,2.7-13.25-19.63h-.04s-17.82-2.79-17.82-2.79c-.22-.03-.38-.26-.35-.5.03-.24.24-.41.46-.38l17.07,2.66-12.15-18-14.69-4.63c-.22-.07-.34-.31-.28-.55.06-.24.29-.37.51-.3l13.66,4.3-9.89-14.65Z" fill="#161616" fill-rule="evenodd" opacity=".46"/><path d="M679.76,752.34c-.51.99-.89,2.05-1.15,3.13-.53,2.26-.5,4.63.21,6.72.73,2.14,2.14,3.97,4.36,5.11.69.35,1.46.64,2.31.84l.58.14.34-.49c.42-.61.77-1.24,1.05-1.86,1.11-2.49,1.05-4.98.2-7.2-.84-2.19-2.45-4.1-4.48-5.51-.71-.49-1.48-.92-2.28-1.28l-.75-.33-.38.74Z" fill="#e0d2fc" fill-rule="evenodd"/><path d="M712.42,737.46c.62-.4,1.13-.53,1.69-.63h.07c.46-.09.98-.03,1.42.03.49.06.91.12,1.3,0,.79-.24,1.12-.76.77-1.93-.2-.68-.71-1.16-1.33-1.49-.72-.38-1.6-.57-2.23-.64-1.16-.13-1.18-.79-1.21-1.5-.01-.32-.02-.64-.08-.99-.19-1.21-.8-1.84-1.57-2.15-.68-.27-1.43-.23-2.1-.13-.72.11-1.24.12-1.53-.04-.22-.12-.36-.44-.43-1.01h0c-.09-.77-.46-1.33-.93-1.73-.63-.53-1.42-.75-1.92-.84-1.68-.28-2.32.35-2.5,1.45-.09.55,0,1.16.08,1.81.09.63.18,1.3.08,1.78-.13.59-.38,1.21-.7,1.79-.33.6-.73,1.13-1.14,1.53-1.4,1.35-1.26,3.46-.24,5.34.43.8,1.01,1.56,1.7,2.2.7.65,1.51,1.18,2.36,1.51,1.89.71,3.97.45,5.67-1.62,1.21-1.48,2.06-2.28,2.76-2.73Z" fill="#76ffff" fill-rule="evenodd"/><path d="M689.14,738.62c-.42.82-.74,1.69-.95,2.58-.44,1.87-.41,3.82.18,5.55.6,1.77,1.78,3.3,3.62,4.24.57.29,1.21.53,1.91.69l.58.14.34-.49c.35-.51.64-1.02.87-1.54.92-2.07.87-4.13.17-5.98-.69-1.81-2.02-3.39-3.7-4.55-.59-.41-1.22-.76-1.88-1.05l-.75-.34-.38.74Z" fill="#76ffff" fill-rule="evenodd"/><path d="M706.27,752.78c.77-.57,1.47-1.24,2.08-1.98l.53-.64-.61-.56c-.55-.51-1.15-.97-1.79-1.37-1.8-1.13-3.87-1.75-5.89-1.66-2.06.09-4.05.9-5.66,2.63-.39.43-.77.92-1.11,1.47l-.32.51.36.48c.45.6.94,1.12,1.45,1.54,1.66,1.37,3.61,1.87,5.56,1.71,1.9-.15,3.79-.93,5.4-2.13Z" fill="#76ffff" fill-rule="evenodd"/><path d="M700.69,769.54c.93-.69,1.79-1.5,2.53-2.4l.53-.64-.61-.56c-.67-.62-1.4-1.18-2.17-1.66-2.19-1.37-4.69-2.12-7.13-2.02-2.48.1-4.89,1.08-6.82,3.17-.48.52-.93,1.11-1.35,1.78l-.32.51.36.48c.54.73,1.13,1.35,1.76,1.86,2,1.65,4.35,2.25,6.69,2.06,2.3-.18,4.59-1.13,6.53-2.58Z" fill="#76ffff" fill-rule="evenodd"/><path d="M682.25,774.22c-.16.46.09.95.54,1.11.46.16.95-.09,1.11-.54.03-.07,8.81-25.79,23-38.32.36-.32.39-.87.07-1.23-.32-.36-.87-.39-1.23-.07-14.55,12.84-23.47,38.98-23.5,39.06Z" fill="#15e9f4" fill-rule="evenodd"/><path d="M674.13,781.5c1.47.23,2.91.64,4.27,1.2,2.84,1.18,5.36,3.07,7.05,5.45,1.71,2.41,2.57,5.33,2.07,8.54-.16,1.01-.45,2.05-.89,3.1l-.18.43h-.47c-.99-.03-1.93-.14-2.8-.33-3.51-.75-6.11-2.72-7.82-5.33-1.69-2.59-2.49-5.81-2.41-9.08.03-1.16.16-2.32.4-3.46l.13-.63.64.1h0ZM706.86,815.4c-1.42.47-2.9.76-4.39.88-3.1.24-6.23-.3-8.84-1.66-2.64-1.38-4.76-3.61-5.79-6.73-.32-.98-.54-2.04-.63-3.2l-.04-.46.42-.2c.91-.44,1.8-.77,2.67-1,3.49-.94,6.74-.36,9.47,1.21,2.7,1.55,4.9,4.08,6.34,7.05.51,1.06.92,2.16,1.23,3.29l.17.62-.61.2h0ZM712.51,803.67l.61-.2-.17-.62c-.24-.89-.57-1.77-.97-2.6-1.13-2.35-2.87-4.35-5.01-5.58-2.17-1.25-4.74-1.71-7.51-.96-.69.18-1.39.45-2.11.79l-.42.2.04.46c.07.92.24,1.76.5,2.54.82,2.48,2.49,4.25,4.59,5.34,2.06,1.08,4.54,1.51,6.99,1.32,1.18-.09,2.35-.32,3.47-.69h0ZM720.68,792.92c-.91.47-1.88.84-2.87,1.08-2.07.51-4.25.49-6.17-.14-1.96-.65-3.65-1.93-4.7-3.94-.33-.63-.6-1.33-.79-2.1l-.11-.45.38-.27c.56-.39,1.12-.72,1.69-.97h0c2.27-1.03,4.55-1,6.59-.24,2.01.75,3.78,2.21,5.09,4.07.46.65.86,1.35,1.19,2.09l.27.59-.57.3h0ZM726.79,785.23l.57-.3-.27-.59c-.23-.5-.5-.97-.81-1.41-.89-1.26-2.09-2.25-3.46-2.76-1.4-.52-2.96-.54-4.52.16h0c-.39.18-.77.4-1.15.66l-.38.27.11.45c.13.53.31,1,.54,1.44.73,1.39,1.89,2.27,3.23,2.71,1.31.43,2.79.44,4.2.1.67-.16,1.33-.41,1.94-.73h0ZM740.3,769.71l.22-.61-.6-.25c-.71-.29-1.45-.52-2.2-.68-2.12-.45-4.32-.32-6.22.47-1.93.8-3.55,2.27-4.47,4.48-.17.41-.32.86-.44,1.34-36.73,12.92-49.41,41.03-49.45,41.12-.16.34,0,.75.33.91.34.16.75,0,.91-.33.04-.08,12.47-27.65,48.61-40.39.57.35,1.14.63,1.71.83,2.06.72,4.08.52,5.88-.31,1.76-.81,3.3-2.22,4.42-3.93.54-.82.98-1.71,1.3-2.63h0ZM717.21,767.2c.39.63.71,1.31.94,2.02.48,1.47.58,3.06.23,4.49-.37,1.47-1.22,2.78-2.64,3.66-.44.27-.94.51-1.49.69l-.44.14-.3-.36c-.32-.39-.59-.79-.8-1.18-.88-1.61-.98-3.27-.53-4.8.44-1.5,1.41-2.87,2.68-3.91.45-.37.94-.7,1.45-.98l.57-.31.34.55h0ZM702.82,767.87c.84.68,1.6,1.46,2.25,2.33,1.36,1.79,2.26,3.91,2.46,6.04h0c.2,2.17-.34,4.34-1.84,6.2-.47.58-1.04,1.13-1.71,1.64l-.37.28-.4-.24c-.62-.38-1.17-.79-1.66-1.23-1.95-1.77-2.88-3.98-3-6.28-.12-2.26.56-4.59,1.81-6.63.44-.72.95-1.4,1.52-2.03l.43-.48.5.41h0ZM689.23,775.3l-.59-.27-.3.57c-.39.75-.72,1.54-.96,2.35-.7,2.29-.77,4.71-.09,6.87.69,2.19,2.14,4.11,4.47,5.33.58.3,1.21.56,1.91.78l.45.14.29-.36c.52-.66.93-1.34,1.24-2.02.99-2.18.96-4.42.23-6.47-.72-2.01-2.12-3.84-3.89-5.23-.84-.66-1.77-1.24-2.77-1.69Z" fill="#15e9f4" fill-rule="evenodd"/><path d="M653.64,743.4c.74-.48,1.54-.87,2.37-1.16,1.73-.6,3.6-.77,5.29-.38,1.72.39,3.25,1.34,4.31,2.97.33.51.61,1.09.84,1.73l.09.26-.21.18c-.45.38-.91.71-1.37.97-1.85,1.06-3.79,1.22-5.58.74-1.78-.48-3.41-1.59-4.67-3.07-.45-.52-.85-1.09-1.19-1.69l-.19-.33.32-.21h0ZM681.6,745.45c-.44.77-.98,1.49-1.6,2.13-1.28,1.34-2.88,2.34-4.58,2.77-1.72.44-3.54.29-5.24-.69-.53-.31-1.05-.69-1.55-1.17l-.2-.19.11-.26c.23-.55.49-1.05.78-1.5,1.18-1.8,2.85-2.83,4.68-3.22,1.82-.38,3.79-.14,5.61.61.65.27,1.27.59,1.85.97l.32.21-.19.33h0ZM679.46,738c-.35.61-.78,1.18-1.26,1.68-1.01,1.06-2.28,1.85-3.62,2.19-1.37.35-2.81.23-4.16-.55-.42-.24-.83-.55-1.23-.93l-.2-.19.11-.26c.18-.44.39-.84.62-1.19.93-1.43,2.26-2.25,3.71-2.56,1.44-.3,3-.11,4.44.48.51.21,1,.47,1.46.77l.32.21-.19.33h0ZM678.82,730c-.21.57-.5,1.12-.84,1.62-.72,1.05-1.69,1.91-2.79,2.39-1.12.49-2.38.59-3.65.12-.4-.15-.79-.35-1.18-.62l-.23-.16.06-.27c.09-.4.21-.76.36-1.1h0c.6-1.36,1.62-2.25,2.83-2.72,1.19-.46,2.56-.52,3.87-.21.46.11.92.26,1.36.45l.35.15-.14.36h0ZM678.48,724.16c-.15.39-.34.76-.57,1.1-.49.71-1.15,1.29-1.9,1.62-.77.34-1.64.41-2.51.08-.27-.1-.54-.24-.81-.42l-.23-.16.06-.27c.06-.27.15-.52.25-.75h0c.41-.93,1.11-1.54,1.94-1.87.81-.32,1.74-.35,2.63-.15.31.07.62.18.92.31l.35.15-.14.36h0ZM678.31,711.92l-.15-.36-.36.13c-.43.15-.85.34-1.25.57-1.12.64-2.04,1.58-2.57,2.68-.54,1.12-.67,2.41-.21,3.76.09.25.2.51.33.77-11.16,20.31-5.63,37.81-5.61,37.86.07.21.29.34.51.27s.34-.29.27-.51c-.02-.05-5.44-17.21,5.53-37.2.39-.07.76-.18,1.09-.31,1.2-.49,2.02-1.39,2.49-2.47.46-1.06.58-2.3.4-3.5-.09-.58-.24-1.15-.47-1.68h0ZM667.07,719.96c.42.12.83.3,1.22.52.8.46,1.47,1.12,1.88,1.9.42.8.56,1.72.28,2.67-.09.3-.22.6-.39.9l-.14.24-.28-.04c-.3-.05-.57-.12-.83-.21-1.03-.36-1.73-1.06-2.14-1.92-.4-.84-.51-1.83-.36-2.8.05-.34.14-.68.25-1.01l.13-.36.37.11h0ZM660.95,725.97c.64-.03,1.29.02,1.92.14,1.32.25,2.56.84,3.49,1.7h0c.95.88,1.57,2.06,1.64,3.48.02.44-.01.91-.11,1.41l-.05.27-.27.05c-.43.08-.83.11-1.22.11-1.57,0-2.86-.62-3.82-1.59-.95-.96-1.57-2.26-1.83-3.66-.09-.49-.14-1-.13-1.51v-.38s.39-.02.39-.02h0ZM657.87,734.66c.62-.19,1.26-.31,1.9-.35,1.34-.08,2.68.17,3.8.78,1.14.62,2.04,1.6,2.46,2.96.13.43.22.89.25,1.39l.02.28-.25.12c-.39.18-.78.32-1.16.41-1.52.38-2.92.11-4.1-.59-1.16-.69-2.09-1.79-2.69-3.08-.21-.46-.38-.94-.51-1.43l-.09-.37.37-.11Z" fill="#15e9f4" fill-rule="evenodd"/><path d="M711.01,794.44c-14.45-12.52-37.51-14.15-46.45,6.92,15.12,17.03,35.81,9.33,46.45-6.92Z" fill="#76ffff" fill-rule="evenodd"/><path d="M704.34,796.19c.3-.04.51-.34.47-.67-.04-.33-.32-.56-.62-.51l-7.1,1.03,4.13-4.58c.21-.24.21-.61-.01-.85-.22-.23-.57-.23-.78,0l-5.12,5.67-8.95,1.3,4.42-6.51c.18-.27.12-.64-.12-.83-.25-.2-.59-.14-.77.13l-5.05,7.44-9.84,1.43,5.1-7.85c.17-.27.11-.64-.14-.83-.25-.19-.59-.13-.77.14l-5.69,8.76-9.02,1.31c-.3.04-.51.34-.47.67.04.33.32.56.62.51l8.88-1.29,7.91,6.9c.24.21.58.17.77-.09.19-.26.15-.63-.09-.84l-7.1-6.19,9.91-1.44,6.87,5.75c.24.2.59.15.77-.11.18-.26.14-.64-.1-.84l-6.01-5.03,9.01-1.31,6.4,3.96c.27.16.6.07.75-.22.15-.29.06-.65-.21-.82l-5.14-3.18,7.08-1.03Z" fill="#161616" fill-rule="evenodd" opacity=".43"/><path d="M702.83,825.24c-13.93-23.3-43.62-36.46-63.96-13.1,12.98,29.54,43.34,29.33,63.96,13.1Z" fill="#15e9f4" fill-rule="evenodd"/><path d="M693.4,824.03c.24.05.48-.12.52-.39.05-.26-.12-.52-.36-.57l-10.66-2.23,8.11-4.48c.22-.12.31-.42.19-.66-.11-.24-.39-.34-.61-.21l-9.14,5.05-13.15-2.74,9.07-6.89c.2-.15.25-.46.11-.68-.14-.22-.42-.28-.63-.12l-9.78,7.43-14.38-3,10.48-8.31c.2-.16.24-.46.09-.68-.15-.22-.43-.26-.63-.11l-11.16,8.85-12.55-2.62c-.24-.05-.48.12-.53.39-.04.26.12.52.36.57l12.36,2.58s.02.06.04.09l7.63,12.85c.13.23.41.29.62.15.21-.14.27-.45.13-.67l-7.22-12.17,14.47,3.02,6.78,10.94c.14.22.42.28.62.13.21-.15.26-.45.12-.67l-6.29-10.14,13.24,2.76,6.88,8.33c.17.2.45.22.64.04.18-.18.2-.49.03-.69l-6.1-7.38,10.65,2.22Z" fill="#161616" fill-rule="evenodd" opacity=".43"/><path d="M654.42,717.1c-18.83,11.51-30.43,38.03-13.08,57.96,23.66-10.29,24.85-38.16,13.08-57.96Z" fill="#76ffff" fill-rule="evenodd"/><path d="M653.12,725.69c.06-.26-.09-.53-.33-.59-.24-.07-.49.09-.54.35l-2.16,9.45-3.06-7.49c-.1-.25-.37-.36-.59-.25-.23.11-.33.39-.23.64l3.53,8.64-2.68,11.72-4.9-8.55c-.13-.23-.41-.3-.62-.16-.21.14-.27.44-.14.67l5.36,9.36-2.94,12.83-5.95-9.93c-.14-.23-.41-.29-.62-.15-.21.15-.27.45-.13.67l6.4,10.7-2.6,11.34c-.06.26.09.53.33.59.24.07.49-.09.54-.35l2.56-11.16s.03-.02.05-.03l10.38-6.29c.22-.13.29-.43.17-.66-.12-.24-.4-.32-.61-.19l-9.69,5.88,2.96-12.91,8.83-5.61c.21-.14.29-.43.16-.67-.13-.23-.4-.31-.62-.18l-8.06,5.12,2.7-11.8,6.8-5.84c.19-.17.23-.47.07-.68-.15-.21-.44-.25-.63-.08l-5.88,5.05,2.16-9.44Z" fill="#161616" fill-rule="evenodd" opacity=".43"/><path d="M688.15,732.83c-41.05,6-79,44.17-61.06,92.8,48.87-.15,69.14-48.68,61.06-92.8Z" fill="#15e9f4" fill-rule="evenodd"/><path d="M679.89,746.81c.14-.22.1-.52-.1-.68-.2-.16-.48-.11-.63.11l-10.71,16.16-.62-16.92c0-.27-.22-.48-.47-.47-.25,0-.44.23-.43.5l.67,18.18-13.06,19.7-3.33-19.94c-.04-.27-.28-.44-.52-.4-.24.05-.41.3-.36.56l3.49,20.88-14.25,21.49-4.31-23.17c-.05-.26-.29-.44-.53-.38-.24.05-.4.31-.35.57l4.48,24.06-12.12,18.28c-.14.22-.1.52.1.68.2.16.48.11.63-.11l11.98-18.07c.07.03.15.05.23.04l22.61-3.22c.25-.03.42-.28.38-.54-.03-.27-.26-.45-.51-.42l-22.05,3.14,14.34-21.63h.04s19.51-3.22,19.51-3.22c.25-.04.41-.29.38-.55-.04-.27-.27-.45-.51-.41l-18.68,3.08,13.15-19.84,16.05-5.21c.24-.08.37-.35.3-.61-.07-.26-.32-.41-.56-.33l-14.93,4.84,10.7-16.14Z" fill="#161616" fill-rule="evenodd" opacity=".43"/><path d="M501.45,842.02c-224.31,0-406.14,3.54-406.14,7.91s181.84,7.91,406.14,7.91,406.14-3.54,406.14-7.91-181.84-7.91-406.14-7.91Z" fill="#3d3d3d" fill-rule="evenodd"/><path d="M656.52,329.42h0c1.66,0,3.01,1.39,3.01,3.08v93.71c0,1.69-1.35,3.08-3.01,3.08h0c-1.66,0-3.01-1.39-3.01-3.08v-93.71c0-1.69,1.35-3.08,3.01-3.08Z" fill="#360e94" fill-rule="evenodd"/><path d="M656.52,480.03h0c1.66,0,3.01-1.39,3.01-3.08v-33.66c0-1.69-1.35-3.08-3.01-3.08h0c-1.66,0-3.01,1.39-3.01,3.08v33.66c0,1.69,1.35,3.08,3.01,3.08Z" fill="#360e94" fill-rule="evenodd"/><path d="M347.52,240.66h275.63c18.77,0,34.13,15.71,34.13,34.91v540.64c0,19.2-15.35,34.91-34.13,34.91h-275.63c-18.77,0-34.13-15.71-34.13-34.91V275.57c0-19.2,15.35-34.91,34.13-34.91Z" fill="#a67df5" fill-rule="evenodd"/><path d="M347.52,242.31h275.63c17.88,0,32.51,14.97,32.51,33.26v540.64c0,18.29-14.63,33.26-32.51,33.26h-275.63c-17.88,0-32.51-14.97-32.51-33.26V275.57c0-18.29,14.63-33.26,32.51-33.26Z" fill="#161616" fill-rule="evenodd"/><path d="M623.15,255.09c11.01,0,20.02,9.21,20.02,20.48v540.64c0,11.27-9.01,20.48-20.02,20.48h-275.63c-11.01,0-20.02-9.21-20.02-20.48V275.57c0-11.27,9.01-20.48,20.02-20.48h275.63Z" fill="#360e94" fill-rule="evenodd"/><path d="M623.15,258.37c9.25,0,16.82,7.74,16.82,17.2v540.64c0,9.46-7.57,17.2-16.82,17.2h-275.63c-9.25,0-16.82-7.74-16.82-17.2V275.57c0-9.46,7.57-17.2,16.82-17.2h275.63Z" fill="#d7f7f7" fill-rule="evenodd"/><path d="M589.4,258.37l-224.03,575.04h-17.84c-9.25,0-16.81-7.74-16.81-17.2V275.57c0-9.46,7.57-17.2,16.81-17.2h241.88Z" fill="#f3ffff" fill-rule="evenodd"/><path d="M274.08,257.15h-39.52c-.97,0-1.76.79-1.76,1.76v25.88c0,.97.79,1.76,1.76,1.76h21.32l14.74,7.6c.11.06.24.04.34-.04.09-.09.12-.21.08-.33l-2.87-7.22h5.9c.97,0,1.76-.79,1.76-1.76v-25.88c0-.97-.79-1.76-1.76-1.76Z" fill="#b7d9f9" fill-rule="evenodd"/><path d="M258.69,284.82l15.17,7.83c.17.09.37.06.51-.07.14-.13.19-.33.12-.51l-2.88-7.25h5.88c1.08,0,1.97-.88,1.97-1.97v-26.7c0-1.08-.88-1.97-1.97-1.97h-40.77c-1.08,0-1.97.88-1.97,1.97v26.7c0,1.08.88,1.97,1.97,1.97h21.96Z" fill="#631aec" fill-rule="evenodd"/><path d="M277.49,254.33h-40.77c-1,0-1.82.82-1.82,1.82v26.7c0,1,.82,1.82,1.82,1.82h22l15.21,7.84c.12.06.25.04.35-.05.1-.09.13-.22.08-.34l-2.96-7.45h6.09c1,0,1.82-.82,1.82-1.82v-26.7c0-1-.82-1.82-1.82-1.82Z" fill="#fff" fill-rule="evenodd"/><path d="M257.11,265.28c-1.14-2.29-2.29-3.43-4.58-3.43-2.53,0-4.58,2.05-4.58,4.58,0,4.58,2.69,7.53,9.15,11.13,5.82-3.53,9.15-6.56,9.15-11.13,0-2.53-2.05-4.58-4.58-4.58-2.29,0-3.43,1.14-4.58,3.43Z" fill="#15e9f4" fill-rule="evenodd"/><path d="M824.65,433.83h40.62c1,0,1.81.82,1.81,1.81v26.61c0,1-.82,1.81-1.81,1.81h-21.92l-15.15,7.82c-.12.06-.25.04-.35-.05-.1-.09-.13-.22-.08-.34l2.95-7.43h-6.07c-1,0-1.81-.82-1.81-1.81v-26.61c0-1,.82-1.81,1.81-1.81Z" fill="#b7d9f9" fill-rule="evenodd"/><path d="M846.66,462.28l-15.6,8.05c-.18.09-.38.06-.53-.07-.15-.13-.19-.34-.12-.52l2.96-7.46h-6.04c-1.11,0-2.02-.91-2.02-2.02v-27.45c0-1.11.91-2.02,2.02-2.02h41.91c1.11,0,2.02.91,2.02,2.02v27.45c0,1.11-.91,2.02-2.02,2.02h-22.58Z" fill="#631aec" fill-rule="evenodd"/><path d="M827.33,430.93h41.91c1.03,0,1.87.84,1.87,1.87v27.45c0,1.03-.84,1.87-1.87,1.87h-22.62l-15.63,8.06c-.12.06-.26.04-.36-.05-.1-.09-.13-.23-.08-.35l3.04-7.66h-6.26c-1.03,0-1.87-.84-1.87-1.87v-27.45c0-1.03.84-1.87,1.87-1.87Z" fill="#fff" fill-rule="evenodd"/><path d="M848.28,442.18c1.18-2.35,2.35-3.53,4.71-3.53,2.6,0,4.71,2.11,4.71,4.71,0,4.71-2.77,7.74-9.41,11.45-5.99-3.63-9.41-6.74-9.41-11.45,0-2.6,2.11-4.71,4.71-4.71,2.35,0,3.53,1.18,4.71,3.53Z" fill="#15e9f4" fill-rule="evenodd"/><path d="M213.02,369.23l-3.44,10.4-10.45,3.28c-.33.1-.51.45-.41.78.04.13.12.24.23.32l8.83,6.49-.11,10.96c0,.34.27.62.62.63.15,0,.28-.05.39-.13l8.88-6.38,10.39,3.49c.33.11.68-.07.79-.39.04-.13.04-.26,0-.38l-3.33-10.44,6.53-8.8c.2-.28.15-.67-.13-.87-.12-.09-.26-.13-.4-.12l-10.93-.06-6.35-8.93c-.2-.28-.59-.35-.87-.15-.11.08-.19.19-.23.31Z" fill="#ffc105" fill-rule="evenodd"/><path d="M213.02,369.23l-3.44,10.4-4.28,1.34c3.52,2.54,7.62,4.91,12.15,6.94,3.05,1.37,6.08,2.48,9.03,3.36l-1.09-3.43,6.53-8.8c.2-.28.15-.67-.13-.87-.12-.09-.26-.13-.4-.12l-10.93-.06-6.35-8.93c-.2-.28-.59-.35-.87-.15-.11.08-.19.19-.23.31Z" fill="#ffde05" fill-rule="evenodd"/><path d="M764.4,308.61l-.17,13.36-10.95,7.65c-.34.24-.43.71-.19,1.05.1.14.23.23.38.28l12.65,4.29,3.9,12.78c.12.4.55.62.95.5.17-.05.31-.16.4-.3l7.97-10.68,13.36.24c.42,0,.76-.33.77-.74,0-.17-.05-.32-.14-.45l-7.71-10.91,4.36-12.63c.14-.4-.07-.83-.47-.96-.17-.06-.35-.05-.51,0l-12.72,3.95-10.67-8.05c-.33-.25-.81-.19-1.06.15-.1.13-.15.29-.15.45Z" fill="#ffc105" fill-rule="evenodd"/><path d="M764.4,308.61l-.17,13.36-4.48,3.13c5.03,1.65,10.67,2.9,16.68,3.59,4.04.47,7.98.65,11.73.58l-2.53-3.58,4.36-12.63c.14-.4-.07-.83-.47-.96-.17-.06-.35-.05-.51,0l-12.72,3.95-10.67-8.05c-.33-.25-.81-.19-1.06.15-.1.13-.15.29-.15.45Z" fill="#ffde05" fill-rule="evenodd"/><path d="M826.84,818.58s1.86,12.79-.17,15.74c-.79,1.16-1.05,8.93-1.78,12.43-.31,1.49-1.74,1.03-1.9,1.03-1.06.02-1.61-8.95-1.61-8.95,0,0-2.16-2.65-6.78,10.25-4.74,6.1-19.67,6.11-22.71,2.74-1.93-8.53,7.07-4.98,12.22-21.67,0,0,1.6-6,8.64-10.87,3.82-2.43,13.55-.95,14.08-.72Z" fill-rule="evenodd"/><path d="M767.73,817.33s1.86,12.79-.17,15.74c-.79,1.16-1.05,8.93-1.78,12.43-.31,1.49-1.74,1.03-1.9,1.03-1.06.02-1.61-8.95-1.61-8.95,0,0-2.09-5.41-12.65,10.19-4.74,6.1-22.55,6.05-25.59,2.68-2.66-10.12,13.28-8.28,18.1-21.55,0,0,1.6-6,8.64-10.87,3.81-2.43,16.43-.95,16.96-.72Z" fill-rule="evenodd"/><path d="M748.31,818.75s21.45,4,20.18-.68c-8.32-30.56,5.36-49.08-.53-75.98-2.74-12.52,10.39-34.53,11.5-36.45l15.95-72.74-51.51-2.42c-4.56,18.89-4.4,61.34-1.77,107.72,1.36,24.04,7.78,50.3,6.17,80.55Z" fill="#16161e" fill-rule="evenodd"/><path d="M760.98,820.3c4.37.2,8.06-.2,7.51-2.23-8.32-30.56,5.36-49.08-.53-75.98-2.74-12.52,10.39-34.53,11.5-36.45l12.03-54.87-36.16-7.62c6.51,14.26,13.25,45.39,4.97,84.65-1.01,4.79-.94,9.97.07,14.96,1.04,5.1,1.59,12.21.58,23.14,0,0-2.42,29.17.02,54.39Z" fill-rule="evenodd"/><path d="M812.14,629.24c17.07,31.62-10.93,52.05-5.44,107.32.29,2.88-.27,6.67,1.94,8.8,9.17,8.85,15.51,44.69,19.1,75.31-8.03,2.52-9.15,2.54-18.26.45-4.43-29.95-20.91-51.54-27.36-74-4.68-16.29-7.29-34.73-10.74-52.16-2.63-13.32-3.17-23.41-11.25-35.14-5.48-7.97-10.67-19.78-12.78-33.16l64.79,2.59Z" fill="#16161e" fill-rule="evenodd"/><path d="M812.14,629.24c17.07,31.62-10.93,52.05-5.44,107.32.29,2.88-.27,6.67,1.94,8.8,9.17,8.85,15.51,44.69,19.1,75.31-2.42.76-4.21,1.29-5.79,1.61-1.02-26.75-21.09-75.31-21.09-75.31-7.23-28.02.27-74.18.27-74.18,2.73-11.22.73-28.41-2.34-44.08l13.36.54Z" fill-rule="evenodd"/><path d="M784.23,495.98s-15.11-16.2-4.94-21.72c-.72-23.39,66.55-10.19,37,38.7-6.73,11.14-.69,28.71,13.84,26.95-13.91,21.11-57.3,2.86-45.9-43.93Z" fill="#06051e" fill-rule="evenodd"/><path d="M766.93,534.29s-16.67-1.58-25.89,24.11c-6.42,17.88-4.37,37.81-4.37,37.81,0,0-12.12,20.79-5.16,22.11l23.85,4.51,11.57-88.54Z" fill="#210328" fill-rule="evenodd" opacity=".41"/><path d="M767.4,529.71c-8.13,9.24-33.35,33.18-16.1,49.98,7.14,6.96,5.56,17.85,7.83,32.09,0,0-10.18,12.06-3.55,19.25l23.02,6.23s30.04,3.35,34.89-3.49c5.56-7.85-1.76-5.63-2.98-16.83-3.03-27.9,6.09-59.54,5.63-75.13-3.08-5.55-20.22-16.99-23.41-15.78l-25.34,3.68Z" fill="#15e9f4" fill-rule="evenodd"/><path d="M805.88,603.45s-15.32,13.74-22.13,24.79l-9.34,8.69,23.29-19.74,19.66-19.09,6.05-25.63-10.95-18.95-5.93-14.98c-22.8,28.17,8.32,44.7-.66,64.93Z" fill="#210328" fill-rule="evenodd" opacity=".41"/><path d="M783.47,643.98l-7.47-8.4c-.68-.76,1.69-1.14,2.51-1.75,11.91-8.98,20.04-24.48,30.68-29.38-.51-5.44-.29-10.48.41-17.01l17.21-1.51c.42,6.67-2.33,15.12-2,22.55-12.1,13.99-32,20.63-41.34,35.51Z" fill="#fdddb6" fill-rule="evenodd"/><path d="M809.33,590.08c-.8-12.16-9.37-22.34-9.55-28.7,4.04-54.94,27.98-12.42,27.03,24.54-8.62.46-12.66,1.23-17.47,4.16Z" fill="#15e9f4" fill-rule="evenodd"/><path d="M788.13,469.21c-4.69-1.36-9.52,1.06-10.78,5.4-1.26,4.34,1.53,8.96,6.23,10.32,4.69,1.36,9.52-1.06,10.78-5.4,1.26-4.34-1.53-8.96-6.23-10.32Z" fill="#ff7200" fill-rule="evenodd"/><path d="M787.15,470.35c-5.32-1.54-10.65.73-11.9,5.07-1.26,4.34,2.04,9.11,7.36,10.64,5.32,1.54,10.65-.73,11.9-5.07,1.26-4.34-2.04-9.11-7.36-10.64Z" fill="#ffa000" fill-rule="evenodd"/><path d="M793.42,507.58c-2.3-1.96-6.43-.88-9.23,2.41-2.8,3.29-3.21,7.54-.91,9.49,2.3,1.96,6.43.88,9.23-2.41,2.8-3.29,3.21-7.54.91-9.49Z" fill="#fdddb6" fill-rule="evenodd"/><path d="M760.57,530.79s5.29,4.62,2.72,10.38c0,0,3.21,7.25,13.38,5.04,5.43-1.27,18.1-12.53,16.51-19.59,0,0-2.37.26-3.19-1.17,0,0-3.43-7.71-2.78-16.79l-26.64,22.13Z" fill="#fdcb90" fill-rule="evenodd"/><path d="M751.67,504.56s-.68,10.17.33,15.67c-.35,4.09,6.35,12.74,9.83,13.65,1.84.48,7.31.46,18.19-7.31,0,0,4.5-3.94,6.62-7.98,0,0,11.64-18.74,8.28-25.83,0,0-5.56-16.63-20.87-16.19,0,0-16.14-1.91-18.73,6.84-5.51,8.26-4.69,14.52-3.64,21.16Z" fill="#fdddb6" fill-rule="evenodd"/><path d="M750.27,511.1c.53-3.35.59-3.94,1.22-8.07,7.64,3.76,23.15,4.04,30.62-6.27-1.86,8.04,2.7,12.22,6.35,14.42l-2.51,8.61,7.05-12.28c8.1-11.73,11.27-28.88-4.4-34.6-18.76-9.49-35.64,1.31-38.16,20.22-.85,6.39-1.16,17.69-.17,17.98Z" fill-rule="evenodd"/><path d="M742.19,532.07l-14.96,40.25-41.41,11.33c-1.3.35-2.06,1.69-1.71,2.99.14.52.44.96.84,1.27l33.65,26.67-2.02,42.9c-.06,1.34.98,2.48,2.32,2.54.57.03,1.11-.15,1.54-.46l35.69-23.72,40.18,15.18c1.26.47,2.66-.16,3.14-1.42.19-.5.2-1.03.07-1.51l-11.55-41.36,26.85-33.51c.84-1.05.67-2.59-.38-3.43-.45-.36-1-.54-1.53-.53l-42.79-1.79-23.58-35.89c-.74-1.13-2.25-1.44-3.38-.7-.45.3-.78.72-.95,1.19Z" fill="#ffc105" fill-rule="evenodd"/><path d="M742.18,532.07l-14.96,40.25-16.96,4.64c13.43,10.44,29.16,20.31,46.6,28.91,11.73,5.79,23.45,10.6,34.88,14.44l-3.79-13.58,26.85-33.51c.84-1.05.67-2.59-.38-3.43-.45-.36-1-.54-1.53-.54l-42.79-1.79-23.58-35.89c-.74-1.13-2.25-1.44-3.38-.7-.45.3-.78.72-.95,1.19Z" fill="#ffde05" fill-rule="evenodd"/><path d="M755.53,632.81s-.23,5.46,2.33,8.27c0,0,6.16,2.78,8.81,5.09,2.57,2.23,11.47-.83,11.46-.82-.01,0,3.09-1.5,1.24-3.52-.85-.93-2.61-1.7-3.68-1.32-9.03,3.19-7.18-5.66-9.05-7.34-2.22-2.01-8.96-3.76-11.12-.36Z" fill="#fdddb6" fill-rule="evenodd"/><polygon points="225.53 816.68 224.5 833.29 207.52 833.49 206.53 815.44 225.53 816.68" fill="#332a7c" fill-rule="evenodd"/><polygon points="181.56 816.22 180.33 832.03 162.83 831.98 162.26 815.64 181.56 816.22" fill="#332a7c" fill-rule="evenodd"/><path d="M227.96,820.14s-24.58,3.28-24.08-1.49c2.59-24.97-1.93-57.11,1.39-71.71,2.2-9.66-6.47-20.28-7.56-31.04l-15.75-84.87,48.57,1.74c2.69,19.07,10.09,69.26,5.61,111.92-1.93,18.35-7.23,52.84-8.18,75.45Z" fill="#16161e" fill-rule="evenodd"/><path d="M212.88,821.24c-4.98,0-9.21-.58-9-2.59,2.59-24.97-1.93-57.11,1.39-71.71,2.2-9.66-6.47-20.28-7.56-31.04l-10.19-54.92,22.03-3.13s-1.28,51.82,5.14,78.8c0,0,1.38,51.04-1.8,84.6Z" fill-rule="evenodd"/><path d="M163.71,630.4c-3.92,10.77-5.83,29.52-.16,50.53-.63,16.44,4.67,41.66,4.61,57.63-.04,11.84-8.68,51.1-9.78,79.94,7.44,2.5,17.78,2.53,26.23.45,3.86-30.45,9.34-49.26,14.42-76.11,2.91-15.38,5.18-36.41,7.99-50.91,2.56-13.21,1.65-17.8,10.55-28.28,6.79-8,14.5-22.47,13.93-31.87l-67.8-1.37Z" fill="#16161e" fill-rule="evenodd"/><path d="M163.71,630.4c-3.92,10.77-5.82,29.52-.16,50.53-.63,16.44,4.67,41.66,4.61,57.63-.04,11.84-8.68,51.1-9.78,79.94,2.73.92,5.84,1.5,9.1,1.77,3.56-24.71,14.36-79.37,14.36-79.37.43-7.28-3.85-62.09-3.85-62.09-3.49-11.12-2.54-33.61-.76-48.14l-13.53-.26Z" fill-rule="evenodd"/><path d="M214.41,849.27c7.84.09,12.83-.9,21.24-.09,23.07,2.22,26.87-.14,26.01-6.71,0-1.93-25.84-10.48-35.11-19.83-1.17-1.18-5.47.3-6.34,1.87-.71,1.3-.64,3.24-.34,4.26-3.77,1.4-9.48-.23-12.92-1.02-1.72-.39-2.02,2.75-2.11,6.47-.24,10.6-1.14,14.93,9.56,15.05Z" fill-rule="evenodd"/><path d="M185.4,850.21c10.93.04,13.7-2.12,12.51-7.85-.55-3-13.47-10.9-15.86-18.22-.5-.21-1.5-.35-2.74-.43-3.97-.26-10.46.05-11.32.45-1.2,1.49-2.02,3.58-2.2,5.26-1.73.4-2.41-.45-3.08-.89-2.11-1.39-1.56,12.79-.9,16.29,1.28,6.89,14.45,5.35,23.6,5.38Z" fill-rule="evenodd"/><path d="M298.96,493.88c7.74-5.38,9.66-23.47,16.03-18.98l1.08.76,2.51-.88c5.06-1.21,11.9,14.32,6.58,19.6,0,0-2.68,3.23-4.74.72,0,0-2.25,5.75-10.79,7.17-8.83,8.1-23.67,37.34-41.68,40.85-5.47-.54-28.72,7.12-42.8,2.86-4.1-9.85-2.15-21.07,6.25-21.23,9.11-.18,18.02-6.5,34.79-.03,9.2-14.94,25.82-21.83,32.76-30.83Z" fill="#fdddb6" fill-rule="evenodd"/><path d="M205.73,525.11c7.92-5.08,18.16-6.68,28-3.77,7.37-.18,23.44-.84,29.3,1.52,13.01-12.42,19.9-15.81,31.85-25.98,3.62,3.57,7.84,10.92,9.1,14.41-12.38,13.75-16.65,22.06-34.3,32.77-6.26,1.31-32.34,3.34-44.46,5.45-30.82,15.09-29.63-17.89-19.49-24.39Z" fill="#15e9f4" fill-rule="evenodd"/><path d="M301.32,505.82c1.2,2.11,2.16,4.09,2.66,5.47-12.38,13.76-16.65,22.06-34.3,32.77-6.26,1.31-32.34,3.34-44.46,5.45-21.62,10.59-27.49-2.48-25.56-13.48,25.36,1.91,68.3,1.21,68.3,1.21,3.16-1.84,19.12-17.32,33.37-31.42Z" fill="#210328" fill-rule="evenodd" opacity=".41"/><path d="M204.38,517.17c20.43,2.28,31.68,22.46,23.5,85.06,0,0,14.57,27.94,2.2,36.63l-28.95,4.86c-14.9,2.49-50.65-.92-40.72-19.97,12.16-23.34-4.25-73.17.86-94.24,6.43-13.47,17.27-14.9,22.6-14.88,10.06-1.58,10.58,2.71,20.5,2.55Z" fill="#15e9f4" fill-rule="evenodd"/><path d="M234.93,629.65c-.4,3.76-1.81,7.07-4.85,9.2l-28.94,4.86c-14.9,2.49-50.65-.92-40.72-19.97,12.16-23.34-4.25-73.17.86-94.24,6.43-13.47,17.27-14.9,22.6-14.88,3.52-.55,5.87-.39,7.86.05-9.72,7.88-14.79,17.88-9.72,30.49,0,0-4.97,17.09-5.22,47.08-.32,36.98,22.57,49.57,58.13,37.41Z" fill="#210328" fill-rule="evenodd" opacity=".41"/><path d="M212.36,516.77s-5.5,5.39-2.33,11.53c0,0-.34,8.48-11.61,6.7-6.02-1.05-19.61-12.45-18.32-20.29,0,0,2.61.13,3.42-1.48,0,0,3.27-8.65,1.99-18.56l26.85,22.1Z" fill="#fcbe72" fill-rule="evenodd"/><path d="M293.36,390.01l-15.8,31.22-34.57,5.38c-1.08.17-1.83,1.18-1.66,2.26.07.44.27.82.56,1.1l24.81,24.68-5.57,34.55c-.17,1.08.57,2.1,1.65,2.27.46.07.91-.02,1.29-.23l31.07-15.93,31.14,15.97c.98.5,2.17.11,2.67-.86.2-.39.26-.81.19-1.21l-5.56-34.55,24.81-24.68c.78-.77.78-2.03,0-2.81-.33-.34-.76-.53-1.19-.57l-34.48-5.37-15.8-31.22c-.49-.98-1.69-1.37-2.67-.88-.39.2-.69.51-.88.88Z" fill="#ffc105" fill-rule="evenodd"/><path d="M293.36,390.01l-15.8,31.22-14.16,2.2c9.92,9.68,21.75,19.12,35.08,27.68,8.97,5.76,18.02,10.73,26.92,14.89l-1.83-11.34,24.81-24.68c.78-.77.78-2.03,0-2.81-.33-.34-.76-.53-1.19-.57l-34.48-5.37-15.8-31.22c-.49-.98-1.69-1.37-2.67-.88-.39.2-.69.51-.88.88Z" fill="#ffde05" fill-rule="evenodd"/><path d="M225.29,479.12s1.53,14.15,1.55,20.86c0,0-.19,5.99-9.49,14.6-.44.4-1.07.96-1.5,1.17-2.07.97-6.13,2.58-20.68-4.19,0,0-6.18-3.66-9.57-7.96,0,0-17.86-19.55-15.46-28.66,0,0,4.44-16.71,22.6-19.57,0,0,20.35-6.68,25.34,3.07,8.32,8.53,7,12.62,7.22,20.68Z" fill="#fdddb6" fill-rule="evenodd"/><path d="M236.63,457.7s-7.76,2.78-13.28,1.05c0,0,3.74-1.28,6.02-7.6-12.02,8.83-33.56-21.68-55.92,5.87-.9-1.6-1.72-3.98-1.39-5.9-2,3.81-3.35,7.79-2.9,10.93l-5.49-1.93,3.1,6.56c-9.68,9.72,6.52,26.22,12.32,32.47,2.59,5.83,6.96,8.14,10.25,10.16l-2.55-6.56c-5.22-1.98-13.47-13.21-3.61-11.92,2.41,4.49,2.1,4.34,5.29,8.49l.99-.5c-1.29-2.69-1.54-5.35-1.76-7.49.79-.73,2.82-5.53-.35-10.81,8.74,1.01,46.33-4.84,49.29-22.83Z" fill="#131316" fill-rule="evenodd"/><path d="M266.99,479.02c8.27-6.51,9.23-26.81,16.63-22.22l1.25.78,2.74-1.14c5.56-1.68,14.21,15.18,8.62,21.42,0,0-2.78,3.78-5.24,1.11,0,0-2.14,6.56-11.56,8.7-9.32,9.61-25.81,41.91-43.79,48.29-6.13-.25-31.56,9.83-47.54,5.99-5.22-10.72-3.78-23.35,5.58-24.09,10.15-.8,19.67-8.43,38.79-2.32,9.27-17.27,27.36-26.03,34.51-36.52Z" fill="#fdddb6" fill-rule="evenodd"/><path d="M165.08,519.95c8.49-6.18,19.81-8.64,30.97-6.04,8.2-.68,26.08-2.48,32.77-.23,13.69-14.7,21.16-18.93,33.81-31.06,4.27,3.74,9.46,11.66,11.09,15.47-12.9,16.15-17.12,25.69-36.1,38.79-6.9,1.87-35.84,5.85-49.22,8.99-33.37,18.85-34.21-18.01-23.33-25.92Z" fill="#15e9f4" fill-rule="evenodd"/><path d="M270.62,492.51c1.38,2.15,2.49,4.16,3.11,5.59-12.9,16.15-17.12,25.69-36.1,38.79-6.9,1.87-35.84,5.85-49.22,8.99-21.58,12.19-29.55,1.08-29.55-10.43,23.16,9.69,73.41-5.67,73.41-5.67,0,0,23.6-22.7,38.36-37.27Z" fill="#210328" fill-rule="evenodd" opacity=".41"/><path d="M514.23,532.39c-16.06-9.27-42.03-9.27-57.98,0-.08.04-.15.09-.22.13-10.28,6.06-13.77,14.53-10.52,22.25,1.73,4.11,5.37,8,10.93,11.21,16.07,9.28,42.03,9.28,58,0,15.96-9.27,15.87-24.31-.19-33.59h0Z" fill="#15e9f4"/><path d="M521.71,528.04c-20.19-11.66-52.93-11.66-72.99,0-.54.31-1.06.63-1.57.95l1.03.41c.46-.29.93-.57,1.42-.86,19.58-11.38,51.55-11.38,71.26,0,19.71,11.38,19.82,29.9.24,41.28-19.58,11.38-51.55,11.38-71.27,0-7.23-4.17-11.83-9.31-13.77-14.7l-1.24.04c1.98,5.56,6.69,10.86,14.14,15.16,20.19,11.66,52.94,11.66,73,0,20.06-11.66,19.95-30.62-.24-42.28h0Z" fill="#15e9f4"/><path d="M529,523.8c-24.23-13.99-63.55-13.99-87.62,0-.99.57-1.94,1.17-2.84,1.77l2.73,1.08c.78-.51,1.6-1.02,2.44-1.51,22.8-13.25,60.03-13.25,82.98,0,22.96,13.25,23.08,34.82.28,48.07-22.81,13.25-60.04,13.25-82.99,0-8.72-5.03-14.14-11.27-16.27-17.79l-3.3.12c2.19,6.97,7.94,13.64,17.25,19.01,24.24,13.99,63.55,13.99,87.63,0,24.08-13.99,23.95-36.76-.29-50.76h0Z" fill="#15e9f4"/><path d="M543.92,515.14c-32.51-18.77-85.25-18.77-117.55,0-32.31,18.78-32.14,49.32.38,68.09,13.68,7.9,30.95,12.48,48.76,13.73l-.17-4.08c-15.97-1.24-31.39-5.41-43.68-12.5-29.79-17.2-29.94-45.18-.35-62.38,29.59-17.2,77.91-17.2,107.69,0,19.3,11.14,26.16,26.81,20.56,41.14l6.6,1.38c6.46-15.77-.98-33.09-22.25-45.37h0Z" fill="#15e9f4"/><path d="M421.4,586.34c-35.48-20.49-35.68-53.82-.42-74.31,35.25-20.49,92.81-20.49,128.29,0,35.48,20.49,35.67,53.82.42,74.31-35.25,20.49-92.8,20.49-128.29,0h0ZM550.43,511.36c-17.5-10.1-40.72-15.67-65.39-15.67-24.67,0-47.83,5.57-65.22,15.67-17.39,10.1-26.92,23.54-26.84,37.83.08,14.29,9.76,27.72,27.26,37.83,17.5,10.1,40.73,15.67,65.39,15.67,24.66,0,47.83-5.56,65.21-15.67,17.39-10.1,26.92-23.54,26.84-37.83-.08-14.29-9.76-27.72-27.26-37.83h0Z" fill="#15e9f4"/><path d="M602.94,525.15l-2.83.49c12.58,20.5,8.36,43.7-12.68,62.33l2.36.97c13.29-11.7,20.39-25.41,20.31-39.76-.05-8.31-2.5-16.41-7.16-24.03h0ZM568.85,495.64c-23.06-12.11-52.63-18.73-83.92-18.73-33.33,0-64.62,7.52-88.11,21.17-23.49,13.65-36.37,31.8-36.26,51.11.11,19.31,13.19,37.45,36.83,51.1,23.65,13.65,55.02,21.17,88.35,21.17,19.96,0,39.18-2.69,56.44-7.79l-1.44-1.48c-45.66,13.39-103.04,9.03-141.32-13.08-47.68-27.53-47.94-72.33-.56-99.86,45.94-26.7,120.04-27.51,167.97-2.43l2.03-1.18h0Z" fill="#15e9f4"/><path d="M586.26,490.53c-13.71-7.92-29.69-14.05-47.47-18.22-17.18-4.03-35.32-6.07-53.92-6.07-18.6,0-36.71,2.04-53.85,6.07-17.74,4.17-33.65,10.3-47.27,18.22-13.63,7.92-24.15,17.15-31.3,27.44-6.9,9.94-10.37,20.44-10.31,31.21.06,10.77,3.65,21.28,10.66,31.21.46.65.92,1.29,1.4,1.92l2.77-.53c-22.59-29.76-13.02-65.77,28.81-90.08,54.53-31.69,143.56-31.69,198.45,0,54.89,31.69,55.18,83.26.65,114.95-33.93,19.72-81.22,27.17-125.33,22.35l-.7,1.66c8.83.97,17.84,1.47,26.95,1.46,18.6,0,36.71-2.04,53.85-6.07,17.74-4.17,33.64-10.3,47.27-18.22,13.62-7.92,24.15-17.15,31.3-27.44,6.9-9.94,10.37-20.44,10.31-31.21-.06-10.77-3.64-21.27-10.66-31.21-7.26-10.29-17.9-19.52-31.61-27.44h0Z" fill="#15e9f4"/><path d="M595.46,485.18c-14.96-8.64-32.39-15.33-51.8-19.88-10.82-2.54-22.01-4.36-33.43-5.44l.21.54c30.91,2.96,60.59,11.33,84.45,25.11,60.8,35.1,61.12,92.22.72,127.33-60.41,35.1-159.02,35.11-219.82,0-60.8-35.1-61.12-92.22-.71-127.33,7.25-4.21,15.05-7.92,23.26-11.12l-.19-.52c-8.45,3.28-16.35,7.06-23.65,11.3-14.87,8.64-26.36,18.71-34.16,29.94-7.53,10.84-11.31,22.3-11.25,34.06.07,11.75,3.98,23.21,11.63,34.06,7.92,11.23,19.53,21.3,34.49,29.94,14.97,8.64,32.4,15.33,51.81,19.88,18.75,4.4,38.54,6.63,58.83,6.63,20.29,0,40.06-2.23,58.76-6.63,19.36-4.55,36.71-11.24,51.58-19.88,14.86-8.64,26.36-18.71,34.15-29.94,7.53-10.84,11.32-22.3,11.25-34.06-.07-11.75-3.98-23.21-11.63-34.06-7.92-11.23-19.53-21.3-34.49-29.94h0Z" fill="#15e9f4"/><ellipse cx="597.8" cy="560.38" rx="5.58" ry="1.99" opacity=".1"/><path d="M595.19,559.15c.15,0,.3-.01.46-.06.53-.14,1.02-1.08,1.3-1.52.18-.29.38-.4.62-.43-.06-.16-.12-.36-.16-.59-.13-.91.36-3.59.39-4.52.04-.93-.33-1.67-.39-2.13-.05-.46.32-1.41.39-2.16l-2.02-.16s.05,1.9.09,2.39c.04.49.4,4.41.42,5.73.02,1.32-.21,2.31-1,3.32-.03.04-.07.09-.1.12Z" fill="#fac2b0"/><path d="M594.57,559.96c.11.35.95.37,1.46.15.48-.21.6-.96.82-1.11h0s.02-.02.04-.02c.25-.09.19,1.13.19,1.13.19.05.31-.12.31-.12,0-.47.17-1.35.42-1.79.18-.33-.05-.57-.24-1.04-.23.03-.43.14-.62.43-.28.45-.77,1.39-1.3,1.52-.16.04-.31.06-.46.06-.55.7-.62.81-.62.81Z" fill="#a81e33"/><path d="M600.41,555.9c.25.53.21,1.17.14,1.84,0,.07-.02.13-.03.19-.14.54-.62.84-.69,1-.08.18.3.34,1,.23.7-.11,1.08-1.43,1.08-1.43l.26,1.34h.26s.04-1.72,0-2.23c-.04-.51-.52-.69-.82-.85-.3-.16-.76-2.23-.93-2.81-.17-.57-.25-2.05-.39-2.77-.14-.72-.97-1.55-.97-1.55l.13-1.28-1.64-.12s.1,1.41.21,1.88c.12.47,2.14,6.02,2.39,6.55Z" fill="#fac2b0"/><path d="M600.83,559.15c.63-.1,1-1.19,1.07-1.4,0-.02.01-.03.01-.03h0s.26,1.34.26,1.34h.26s.04-1.72,0-2.23c0-.09-.03-.16-.06-.23-.14-.34-.52-.49-.77-.62,0,0-.18.67-.36,1.1-.22.54-.44.6-.73.83-.14.54-.62.84-.69,1-.08.18.3.34,1,.23Z" fill="#a81e33"/><path d="M599.99,532.79c-.58.23-.7.76-.54,1.57.15.81.9,3.82.9,3.82,0,0-1.12,3.25-1.25,3.37-.14.12-.61.68-.61.96s.3,1.22.58,1.39c.28.17.82.08.7-.15s-.32-.27-.36-.42c-.03-.15.39-.76.44-1.4,0,0,1.78-2.79,1.87-3.62.09-.83-.69-4.18-.84-4.81-.15-.63-.58-.83-.89-.71Z" fill="#fac2b0"/><path d="M598.34,530.29c-.14.47-.88.94-1.39,1.03,0,0-1.17-2.34-.41-3.36.75-1.03,2.1,1.34,1.8,2.34Z" fill="#fac2b0"/><path d="M598.92,531.95c-.96.04-2.53.94-3.1,1.9-.56.96-.7,2.76-.58,3.06.24.6.59,1.1.62,1.54.03.44.23.84-.08,2.2-.31,1.35-.77,5.21-.01,8.32,0,0,1.52.27,3.65-1.08,0,0,.35-3.34.68-4.3.32-.96.25-2.58,0-3.58-.25-1-.13-2.72.04-3.35s1.36-3.24.18-4.37c0,0-.47-.38-1.39-.34Z" fill="#b51f36"/><path d="M596.28,533.86c-.58.23-.7.76-.54,1.57.15.81.9,3.82.9,3.82,0,0-1.12,3.25-1.25,3.37-.14.12-.61.68-.61.96s.3,1.22.58,1.39c.28.17.82.08.7-.15s-.32-.27-.36-.42c-.03-.15.39-.76.44-1.4,0,0,1.78-2.79,1.87-3.62.09-.83-.69-4.18-.84-4.81s-.58-.83-.89-.71Z" fill="#fac2b0"/><path d="M596.29,528.08c-.07.28.46.72.65,1.43.18.71.73,4.08,1.61,4.99s1.07,1.2,1.07,1.15,1.31-1.56,1.34-4.01c.03-2.45-1.06-4.94-1.93-5.1s-2.48.51-2.73,1.54Z" fill="#52260f"/><path d="M596.85,559s.02-.02.04-.02c.25-.09.19,1.13.19,1.13.19.05.31-.12.31-.12,0-.47.17-1.35.42-1.79,0,0-.65.22-.96.81Z" fill="#751324"/><path d="M601.91,557.73l.26,1.34h.26s.04-1.72,0-2.23c0-.09-.03-.16-.06-.23l-.47,1.12Z" fill="#751324"/><ellipse cx="509.47" cy="502.66" rx="5.45" ry="1.95" opacity=".1"/><path d="M510.79,477.01c.33.91,1.21,3.82,1.35,4.29.86.02,1.43-.36,1.76-.71-.21-1.32-.9-3.67-1.2-4.32-.4-.85-1.54-1.34-1.77-1.23-.67.3-.48.97-.13,1.96Z" fill="#00a35d"/><path d="M509.94,484.97c.22.59,1.09.86,1.09.86,0,0,2.65-3.85,2.89-4.38.06-.13.04-.44-.03-.85-.33.35-.89.73-1.76.71.01.04.02.06.02.06-.14.99-2.22,3.6-2.22,3.6Z" fill="#fac2b0"/><path d="M507.9,470.55c-.98.19-1.2.31-1.24,1.01-.04.71.04,2.13.62,2.7,0,0,1.26-.03,1.6-1.31.34-1.28-.98-2.4-.98-2.4Z" fill="#fac2b0"/><path d="M509.87,473.06l.27,2.14s-.88.61-1.73.31c0,0-.13-1.22-.77-1.58l2.22-.87Z" fill="#fac2b0"/><path d="M508.27,501.35c.37.1,1.35-.06,1.88-.13.53-.07,2.2.21,2.5-.09.28-.26.25-.86,0-1.59-.03-.08-.06-.17-.09-.25-.34-.85-.41-3.11-.51-4.61-.1-1.51-.67-2.55-.67-2.55,0,0,.47-3.71.64-5.1.18-1.39-.5-2.38-.5-2.38l-3.85.69s1.45,6.85,1.52,7.48c.07.63,1.7,6.36,1.65,6.75,0,.04-.03.08-.07.12-.36.4-2.1.99-2.1.99-.44.23-.76.56-.39.66Z" fill="#003b52"/><path d="M508.27,501.35c.37.1,1.35-.06,1.88-.13.53-.07,2.2.21,2.5-.09.28-.26.25-.86,0-1.59-.32.18-.95.4-1.87.16-.36.4-2.1.99-2.1.99-.44.23-.76.56-.39.66Z" fill="#6b3d18"/><path d="M505.09,503.03c1.09-.09,3.37-.22,3.52-.62.16-.41,0-1.19,0-1.19,0,0,0,0,0-.01.02-.21.32-3.2.47-3.98.16-.81.06-2.84-.53-3.4,0,0,2.09-5.8,1.84-7.17-.25-1.37-.25-1.19-.25-1.19l-4.18.2s.06,6.61.22,8.26c.16,1.65.47,7.1.47,7.1,0,0-2.62,1.35-2.75,1.52-.13.17.09.58,1.18.48Z" fill="#004761"/><path d="M505.09,503.03c1.09-.09,3.37-.22,3.52-.62.16-.41,0-1.19,0-1.19,0,0,0,0,0-.01-.38.1-1.07.18-1.96-.18,0,0-2.62,1.35-2.75,1.52-.13.17.09.58,1.18.48Z" fill="#6b3d18"/><path d="M509.56,474.93c-.86.11-2.88,1.09-3.12,1.41-.24.32-.97,2.23-.58,4.89.4,2.66.1,4.43.1,4.43,0,0,3.74.76,5.54-1.01,0,0-.26-2.09,0-3.04.26-.95,1.03-2.11.89-4.25s-.89-2.66-2.84-2.42Z" fill="#008f52"/><path d="M505.13,481.43c.72.16,1.36.53,1.74.78.35-1.08.82-3.36.97-4.07.17-.79-.33-1.59-.68-1.67-.55-.14-.84-.13-1.16.58-.27.59-.72,3.42-.87,4.38Z" fill="#00a35d"/><path d="M502.56,488.04c.25.03.73-.09.67-.24-.06-.15-.39-.2-.39-.2,0,0-.13-.52-.02-.6.1-.07.8-.41.88-.94,0,0,2.72-2.68,3.07-3.56.03-.08.07-.19.1-.3-.38-.25-1.02-.62-1.74-.78-.03.2-.05.33-.05.33l-2.17,3.61s-.88.51-1.02,1.14c-.14.63.41,1.51.66,1.54Z" fill="#fac2b0"/><path d="M507.42,472.63s-.3-.64-.44-1.17c-.13-.53-.55-.25-.54-.54,0-.3,1.62-1.51,3-.85,0,0,.58.14.72.6.14.47.57,2.63-.32,2.93s-1.58.02-1.77-.3c-.2-.32-.65-.67-.65-.67Z" fill="#6b461b"/><path d="M507.42,472.63s0-.7.42-.6c.41.1.27.97-.25,1.19l-.17-.58Z" fill="#fac2b0"/><ellipse cx="372.6" cy="599.47" rx="5.45" ry="1.95" opacity=".1"/><path d="M378.93,580.32c-.53.39-.6.94-.6.94,0,0-2.51-.7-3.27-1.57-.77-.87-2.65-4.73-2.94-5.35-.3-.62.13-1.17.13-1.17.29-.12.92-.33,1.23.25.3.58,2.06,4.46,2.34,4.8.28.33,3.13,2.1,3.13,2.1Z" fill="#009498"/><path d="M381.1,581.41c-.02.15-.7.79-1.04.71-.33-.08-1.49-.53-1.74-.86,0,0,.08-.55.6-.94,0,0,1.44-.65,1.57-.45.13.2-.63.67-.63.67,0,0,1.25.72,1.24.87Z" fill="#fac2b0"/><path d="M373.89,597.12c-.23.13-.52.28-.82.35-.4.11-.69-.07-.85-.21,0-.02,0-.04,0-.06.07-.88-.7-3.4-.83-4.07-.12-.67.53-1.38.27-2.61-.27-1.22-.27-4.5-.27-4.5,0,0-.63,3.83-.71,4.66-.08.84-1.55,7.25-1.34,7.94.03.11.08.21.14.3-.99.43-1.63.13-1.95-.12.01-.06.02-.12.03-.18.12-.81-.18-4.66-.26-5.6-.08-.94.77-2.16.91-2.71.13-.55.07-3.16-.13-4.36-.2-1.2.31-2.22.31-2.22l5.2-1.01c.27.87.2,7.64.2,8.31,0,.67,0,5.19,0,5.74,0,.13.03.25.09.34Z" fill="#5a1f0c"/><path d="M371.34,601.32c-1.38.39-2.28-.47-2.63-.77-.35-.31-.71.08-1.18-.31-.43-.36-.14-.73,0-1.42.32.25.96.55,1.95.12.33.51,1,.82,1,.82.65.59,2.24,1.18.86,1.57Z" fill="#ac882e"/><path d="M376.54,599.18c-.9.24-1.87-.43-2.32-.47-.45-.04-1.3.2-1.73-.06-.42-.26-.33-.56-.26-1.39.16.15.44.32.85.21.3-.08.59-.22.82-.35.19.31.67.5,1.36.84.92.45,2.18.98,1.28,1.22Z" fill="#ac882e"/><path d="M368.5,583.12l-.09.63s1.63.68,3.74-.08c0,0,.85-.32,1.47-.93l-.06-.61-5.05,1Z" fill="#29120d"/><path d="M372.24,583.08s.01.54.16.54c.15,0,.62-.29.64-.36s.06-.6-.03-.6-.71.34-.77.42Z" fill="#eaeae9"/><path d="M377.63,582.57c-.07.13-1.19-.34-1.19-.34,0,0-.63.69-1.05.57-.41-.12-1.07-.65-1.07-.65-.02-.58.48-.92.48-.92,0,0,1.29-.12,1.78.28.49.4,1.11.92,1.05,1.05Z" fill="#fac2b0"/><path d="M370.28,572.7c.43-.19,2.53.16,2.61.29.08.13.88.93.91,1.97s-.07,1.56-.09,2.97c-.03,1.41.15,3.85.06,4.09s-2.03,1.83-3.91,1.52-1.65-.28-1.63-.64.15-3.66-.07-4.24-1.05-2.93-.63-3.62c.42-.69,1.21-1.67,2.75-2.34Z" fill="#01767a"/><path d="M374.8,581.23s-.5.34-.48.92c0,0-3.06-.81-3.83-1.41-.77-.59-2.48-2.95-3.08-4.01-.6-1.06.05-1.55.05-1.55.48-.28,1.01-.14,1.33.35.32.49,2.17,3.28,2.6,3.71.43.43,3.4,1.99,3.4,1.99Z" fill="#009498"/><path d="M371.13,569.36c.87.27,1.22.4,1.38,1.11.16.72-.11,2.52-.69,2.52s-1.51-.29-1.7-1.7c-.19-1.4.47-2.1,1.01-1.93Z" fill="#fac2b0"/><path d="M369.73,571.87l-.02,1.09s.38.75,1.22.7c0,0,.45-.1.5-.6l.07-1.15.11-1.5-2.08.24.19,1.23Z" fill="#fac2b0"/><path d="M370.3,571.16s.57-.24.65-.9c0,0,1.76-.18,1.79-.68.03-.5-1.73-1.39-2.51-1.19s-1.45,1.04-1.08,2.54c0,0,.12.54.58.93,0,0,.32-.15.57-.71Z" fill="#a95d26"/><path d="M369.85,570.84c.05-.19.35-.04.64.37l-.09.34s-.69-.09-.55-.71Z" fill="#fac2b0"/><ellipse cx="583.11" cy="506.29" rx="5.45" ry="1.95" opacity=".1"/><path d="M580.19,505.56c.87.1.94-.48,1.62-.36.68.12,1.06.05,1.26-.24.09-.14.02-.59-.09-1.1-.12-.55-.28-1.17-.32-1.52-.07-.65.12-2.06.1-2.74-.02-.68-.46-1.86-.46-1.86l.17-3.34s.44,3.03.56,3.71c.12.69,1.19,5.85,1.36,6.6.01.06.02.13.02.19.02.67-.65,1.23-1.16,1.94-.56.78.12,1.04.12,1.04,1.24.22,1.53-.63,1.71-.94.18-.31.83-.56,1.2-.89.36-.34.15-.82,0-1.55,0-.03-.01-.07-.02-.11-.14-.86-.27-3.39-.2-4.22.07-.87-.68-2.42-.68-2.42,0,0,.15-.22.28-3.1.13-2.88-.58-5.49-.58-5.49-3.69,1.22-5.11-.49-5.11-.49,0,0-.11-.05-.5,1.72-.39,1.77,1.16,7.57,1.16,7.57.19,1.14.7,5.91.7,5.91,0,.04-.02.08-.04.11-.28.54-2.01,1.01-2.21,1.19-.22.19.24.29,1.11.39Z" fill="#17134b"/><path d="M580.19,505.56c.87.1.94-.48,1.62-.36.68.12,1.06.05,1.26-.24.09-.14.02-.59-.09-1.1-.36.13-.95.25-1.69.12-.28.54-2.01,1.01-2.21,1.19-.22.19.24.29,1.11.39Z" fill="#802a19"/><path d="M583.36,507.89c1.24.22,1.53-.63,1.71-.94.18-.31.83-.56,1.2-.89.36-.34.15-.82,0-1.55,0-.03-.01-.07-.02-.11-.19.32-.53.67-1.09.69-.3.01-.55-.06-.75-.17.02.67-.65,1.23-1.16,1.94-.56.78.12,1.04.12,1.04Z" fill="#802a19"/><path d="M577.54,485.51c.55.32,1.02.46,1.34.52.58-1.15,1.66-3.34,1.84-4.12.24-1.08.11-1.81-.98-1.95,0,0-.58.47-.89,1.27-.25.64-1,3.23-1.3,4.28Z" fill="#f79a4b"/><path d="M572.46,490.39c.07.15.92.92,1.75.46.83-.46,3.74-2.83,4.3-4.1,0,0,.15-.28.37-.72-.32-.06-.79-.2-1.34-.52-.08.28-.13.45-.13.45,0,0-.79.52-1.19,1.06-.39.54-.87,1.6-1.39,1.73-.52.12-1.52-.25-1.64,0-.13.25.71.52.71.52,0,0-1.5.97-1.44,1.12Z" fill="#fac2b0"/><path d="M582.89,479.22c-.79-.26-3,.51-3.15.73-.15.22-.57,1.37-.42,2.75s.5,2.44.46,3.72c-.04,1.28-.17,2.54-.17,2.54,0,0,.71,1.27,2.93,1.14,1.85-.11,2.53-.94,2.53-.94,0,0-.07-3.52.29-5.35.36-1.82.69-2.31.12-2.83s-1.34-1.35-2.59-1.76Z" fill="#f6923c"/><path d="M583.96,483.37c.18.98,1.32,2.8,1.45,3.33.68-.24,1.39-.31,1.93-.31-.11-1.94-1.34-5.12-1.66-5.16-.62-.06-1.91,1.12-1.72,2.14Z" fill="#f79a4b"/><path d="M584.15,490.81s.08.66.94.83c0,0,2.32-3.21,2.26-5.14,0-.04,0-.08,0-.12-.55,0-1.26.08-1.93.31,0,.02,0,.04.01.06l-1.27,4.05Z" fill="#fac2b0"/><path d="M583.8,475.35c-.22-.46-1.13-.45-1.62-.29-.49.16-1.02.2-1.38.12-.36-.08-.71.4-.47.9.24.5.5.77.95.66.45-.11.76,1.99,1.37,1.99s1.48-.31,1.48-1.43-.2-1.72-.31-1.95Z" fill="#3a3a3a"/><path d="M582.17,475.94c-.9,0-1.32.26-1.41.94-.09.68-.05,2.6.55,3.07,0,0,1.66.22,1.96-1.35.29-1.57.18-2.58-1.19-2.68l.09.03Z" fill="#fac2b0"/><path d="M583.11,477.89s-.23.02-.27-.44c-.04-.47-.24-.71-.85-.62-.61.09-1.04.04-1.34-.27-.31-.31-.08-.93.86-.97.93-.04,1.86.11,2.08.94.22.83.21,1.19-.08,1.36-.3.17-.39,0-.39,0Z" fill="#3a3a3a"/><path d="M583.31,478.32l.24,1.18s-.16,1.03-1.22,1.03c0,0-.57-.08-.57-.48l-.17-1.12,1.73-.6Z" fill="#fac2b0"/><path d="M583.11,477.89s.44-.67.71-.36-.28.84-.67.8l-.04-.44Z" fill="#fac2b0"/><ellipse cx="446.73" cy="477.43" rx="5.45" ry="1.95" opacity=".1"/><path d="M449.92,466.07s-.1,1.43-.19,1.67c-.09.24-3.29,5.84-3.41,6.26-.07.22-.03,1.08-.06,1.84-.03.67-.1,1.26-.34,1.24-.51-.04-.68-1.81-.9-2.35-.23-.54.01-1.19.38-1.44.37-.26,2.08-5.24,2.77-5.8l.14-1.28,1.62-.14Z" fill="#f1baa9"/><path d="M446.25,475.85c-.03.67-.1,1.26-.34,1.24-.51-.04-.68-1.81-.9-2.35-.23-.54.01-1.19.38-1.44,0,0,.05,2.37.87,2.56Z" fill="#00415a"/><path d="M447.96,475.81c0,.5-.1,1.07-.57,1.22-.49.15-.83-.31-1.04-.76-.04-.59.02-1.07.02-1.07,0,0-.31-2.78-.38-3.84-.07-1.06.09-2.58.09-3.12s-.18-1.62-.18-1.62l1.87-.24s.11,1.5.09,2.07-.16,5.9-.18,6.46c0,.16.12.5.28.9Z" fill="#fac2b0"/><path d="M447.69,478.35c-1.01.02-1.28-1.16-1.33-2.08.21.45.55.9,1.04.76.47-.14.58-.71.57-1.22.39,1.04.92,2.52-.28,2.54Z" fill="#00415a"/><path d="M445.57,458.59s-.77,1.32-.51,3c.26,1.68.85,5.36.85,5.36,0,0,2.12.49,4.1-.69,0,0,.91-5.04.68-6.43-.23-1.4-.49-1.71-.49-1.71l-4.63.47Z" fill="#00506e"/><path d="M448.73,447.73s.54-.95.11-1.76-1.47-.86-1.99-.77c-.51.08-1.45.63-1.49,2.16-.05,1.53-.1,4.14-.48,4.94l2.71-1.1,1.14-3.46Z" fill="#3a3a3a"/><path d="M449.24,449.95c.64,0,.65,4.13,1.29,4.67.64.54,2.59,2.44,2.59,2.44,0,0,1.44-.18,1.54.13.1.32-.85.27-.85.27,0,0,1.27.38,1.25.65-.02.27-.69.92-1.42.45-.74-.47-1.17-.99-1.17-.99,0,0-3.02-1.65-3.29-2.44-.27-.79-.84-3.46-.92-4.11-.08-.65.27-1.08.99-1.07Z" fill="#fac2b0"/><path d="M446.56,450.1c-.31.12-1.69,1.16-1.92,1.44s-.3,1.48.55,2.45c.85.97.94,3.26.37,4.6,0,0,1.05.77,2.69.4,1.64-.37,1.95-.87,1.95-.87,0,0-.57-1.38-.39-2.61.18-1.23.89-1.82.88-2.49-.02-.67-.81-2.87-1.3-3.13-.49-.26-1.21-.43-2.82.21Z" fill="#6e3192"/><path d="M446,450.46s.04,1.9,2.19,2.02c0,0,.89-.64.18-1.77-.71-1.13-1.35-.76-1.35-.76l-1.02.51Z" fill="#fac2b0"/><path d="M445.26,453.46c-.71.69-1.32,1.41-1.56,1.74-.56-.21-.86-.53-1.01-.81.62-.99,1.62-2.43,1.81-2.65.25-.28.88-.4,1.17-.09.3.32.5.93-.4,1.8Z" fill="#7c469a"/><path d="M448.25,449.56c-.2.19-.34.39-.45.59,0,.02-.02.03-.03.05-.03.05-.05.1-.07.15-.18.41-.2.73-.2.73-1.21.19-1.51-.63-1.51-.63.42-.74.62-1.67.62-1.67h0l1.64.78Z" fill="#fac4b3"/><path d="M443.98,461.3c-.01.07-.1.09-.14.03-.11-.16-.27-.44-.35-.76,0,0-.28,1.08-.26,1.63,0,.11-.12.19-.22.14-.23-.11-.52-.34-.55-.77-.05-.71.17-1.95.17-1.95,0,0-.73-3.76-.41-4.43.08-.17.25-.45.46-.79.16.28.45.6,1.01.81-.07.09-.11.15-.11.17-.03.11-.1,3.99-.1,3.99,0,0,.65,1.02.49,1.94Z" fill="#fac2b0"/><path d="M447.84,450.17s0,.02-.02.04c-.02,0-.04,0-.06,0-.03.05-.05.1-.07.15-.18-.09-.74-.41-.86-.98.03.04.44.6.96.78.01,0,.03.01.04.02Z" opacity=".2"/><path d="M448.22,450.11c-.13.08-.26.11-.39.1-.02,0-.04,0-.06,0-.35-.05-.69-.36-.93-.83,0,0,0,0,0,0-.09-.18-.17-.37-.22-.59h0c-.09-.35-.13-.76-.09-1.18.15-1.65,1.29-1.31,1.29-1.31,1.2,0,1.11.52,1.17,1.01.06.49.03,2.31-.77,2.8Z" fill="#fac2b0"/><path d="M446.14,448.02s.63.07,1.25-.67c.63-.74,1.51-.59,1.51-.59,0,0,.03-.62-.54-.79-.58-.17-1.79-.13-2.17.74-.37.87-.05,1.32-.05,1.32Z" fill="#3a3a3a"/><path d="M446.75,448.32s-.39-.84-.75-.63-.22,1.05.75,1.11v-.48Z" fill="#fac2b0"/><ellipse cx="434.81" cy="585.02" rx="5.45" ry="1.95" opacity=".1"/><path d="M439.61,568.76c0,.66-1,.86-1.26.62-.25-.24-.89-1.35-.89-1.35,0,0-3.2-1.65-3.47-2.45-.09-.27.01-.82.22-1.49.5.24,1.11.47,1.44.59-.03.04-.04.07-.04.07,0,0,2.03,2.34,2.64,2.54.61.2,1.35.82,1.35,1.48Z" fill="#fac2b0"/><path d="M437.76,561.41c-.38.64-1.83,2.85-2.1,3.26-.33-.12-.94-.36-1.44-.59.41-1.33,1.39-3.02,1.84-3.99.3-.64,1.24-.17,1.24-.17.61.51.89.79.47,1.49Z" fill="#fac2b0" opacity=".3"/><path d="M438.22,576.35c-.16,1.02-.73,4.86-.68,5.7,0,.04,0,.07.02.11-.96.28-1.66.19-2.01.11.01-.05.02-.09.03-.14.19-.81-.16-3.45-.11-4.47.06-1.02.39-1.46.39-1.46l.05-4.23s-.88,3.31-1.17,4.38c-.29,1.07-1.46,7.11-1.67,7.76,0,.03-.01.06-.02.09-1.04.24-1.68,0-2.04-.24,0-.02.01-.03.01-.03,0,0,.26-2.85.24-3.61-.03-.76-.16-1.67,0-2.48.16-.81.86-2.27.86-2.27,0,0,.18-4.26.15-5.2-.03-.94.94-2.22.94-2.22l5.2-.2c.81,1.84-.05,7.38-.21,8.4Z" fill="#1a4222"/><path d="M435.41,557.98c.82-.11,2.11.63,2.53.91.43.28.76.89.73,1.38s-.4,3.58-.45,4.89c-.05,1.3.21,2.79.21,2.79,0,0-2.15,1.45-5.4.12,0,0-.37-.34-.18-1.19.18-.85.12-4.41-.34-5.49-.46-1.07-.13-1.91.41-2.33.55-.41,1.92-1,2.49-1.08Z" fill="#ae4825"/><path d="M434.3,586.96c-.89.16-2.93-1.1-3.37-1.39-.4-.26.01-1.4.09-1.61.36.25,1,.48,2.04.24-.05.65,1.51,1.61,1.51,1.61.44.6.63.99-.26,1.15Z" fill="#504017"/><path d="M438.67,584.16c-.88.03-1-.5-2.31-.58-1.23-.07-1-.59-.81-1.32.35.09,1.05.18,2.01-.11.22.77,2.13,1.24,2.28,1.54.16.31-.29.44-1.17.47Z" fill="#504017"/><path d="M433.74,561.41c-.38.64-1.83,2.85-2.1,3.26-.33-.12-.94-.36-1.44-.59.41-1.33,1.25-3.1,1.84-3.99.89-1.34,1.45-.71,1.45-.71.61.51.68,1.32.26,2.03Z" fill="#cc552a"/><path d="M435.59,568.76c0,.66-1,.86-1.26.62-.25-.24-.89-1.35-.89-1.35,0,0-3.2-1.65-3.47-2.45-.09-.27.01-.82.22-1.49.5.24,1.11.47,1.44.59-.03.04-.04.07-.04.07,0,0,2.03,2.34,2.64,2.54.61.2,1.35.82,1.35,1.48Z" fill="#fac2b0"/><path d="M435.93,553.92c1.05-.2,1.75.49,1.75.99s-.21,2.46-.87,3.14c0,0-2.41-.42-1.76-3.14,0,0,.21-.86.89-.99Z" fill="#fac2b0"/><path d="M434.55,556.57v1.67s.44.48,1.15.43c.71-.05.74-.38.74-.38l.18-1.51-1.3-1.35s-.75-.07-.77,0c-.02.07,0,1.15,0,1.15Z" fill="#fac2b0"/><path d="M435.77,554.67s.41.57,2.6.26c0,0-.83-1.61-2.28-1.67-1.45-.06-1.58.74-1.58.74,0,0-1.37.91.05,2.57,0,0,.84-.7,1.02-1.08.18-.38.2-.82.2-.82Z" fill="#543631"/><path d="M435.26,555.88s-.84-.79-.9-.14c-.05.54.9.61.9.61v-.48Z" fill="#fac2b0"/><path d="M366.6,520.25c-.32-.07-.82.83-.77,2.3.04,1.48,1.23,3.18,1.77,3.24.54.06,3.76-1.1,5.51-1.45.06-.01,1.02-.26,1.01-.96-.01-.69-1.19-.15-1.19-.15,0,0,.11-.58-.02-.56-.13.02-.5.88-.5.88,0,0-3.72,1.08-4.15.65-.43-.43-.63-3.04-.99-3.4-.36-.36-.67-.54-.67-.54Z" fill="#fac2b0"/><path d="M370.34,515.09s.56.81-.2,3.42c0,0-1.42.05-1.66-1.53-.24-1.58.89-1.97,1.86-1.89Z" fill="#fac2b0"/><path d="M368.24,519.21c.9.06,2.87,1.3,3.07,1.7.2.4.45,1.39,0,2.75-.45,1.35-.35,3.2.32,4.02,0,0-2.6,1.58-4.73-.28,0,0,.93-1.7-.44-4.2s.78-4.06,1.79-4Z" fill="#1f8441"/><path d="M368.73,545.41c-.76.02-2.53.61-2.91.09-.38-.52-.16-1.19,0-1.64,0,0,.39.04.78.56.31.41,1.17.14,1.48-.25.39.27.83.45,1.14.41.59-.07.26.81-.49.83Z" fill="#00444e"/><path d="M372.71,543.67c-.34.05-.83.09-1.42.03-.1-.86-.25-1.87-.44-2.34-.38-.9-.87-3.13-.42-4.41,0,0-.44-2.69-1.61-4.49,0,0-.38,3.53-.52,4.38-.12.7-.95,4.27-1.07,5.83-.36,0-.87-.03-1.34-.1.05-1.02.09-2.33.04-2.73-.09-.68-.13-2.55.43-3.47,0,0,.4-2.95.09-4.09-.31-1.14-.58-2.88.44-4.87l4.73.28s.83,2.46.79,5.63c-.04,3.16.31,3.98.34,4.43.03.39-.13,4.38-.05,5.93Z" fill="#015864"/><path d="M374.94,547.13c-.87.13-1.86-.25-2.24-.49-.38-.23-.81.31-1.19-.18-.38-.49-.13-1.18-.07-1.28,0,0,.5.55,1.81,0,.34.43.9.85,1.86,1.26,0,0,.7.56-.16.69Z" fill="#00444e"/><path d="M373.24,545.18c-1.31.55-1.81,0-1.81,0,0,0-.05-.67-.14-1.47.59.06,1.08.02,1.42-.03.01.24.03.43.05.53.08.32.21.65.47.98Z" fill="#fac2b0"/><path d="M368.09,544.16c-.31.39-1.17.66-1.48.25-.39-.52-.78-.56-.78-.56,0,0,.03-.57.07-1.29.47.07.98.09,1.34.1-.03.34-.02.58.04.68.15.27.46.58.82.82Z" fill="#fac2b0"/><path d="M368.64,513.9c.85-.04,1.7.69,1.76.95.06.26.12.78-.21,1.26-.33.48-.43,1-.43,1.53s.17,1.45-.63,2.42c-.8.97-1.48,1.81-1.48,1.81,0,0-1.39-1.13-1.17-2.66.22-1.53.33-1.51.17-2.26-.16-.75-.43-2.92,1.98-3.04Z" fill="#52260f"/><path d="M371.05,520.92c.4.22.71,1.07.4,2.28-.32,1.2-.83,2.81-.74,3.34.09.53.91,2.67,1.17,3.7.26,1.03.01,2.33-.53,2.21-.54-.12-.65-.75-.52-1.26.14-.52.11-.85-.13-1.36-.25-.5-1.62-2.51-1.45-3.7.16-1.19.56-3.38.9-4.34.34-.96.75-.95.91-.87Z" fill="#fac2b0"/><ellipse cx="479.92" cy="634.03" rx="5.45" ry="1.95" opacity=".1"/><path d="M484.13,631.01c-.34.49-.96.78-1.43.93,0,0,0,0,0,0-.32-1.08-.9-1.46-1.44-2.51-.52-1.02-.21-2.31-.2-2.38-.01.03-.18.24-2.42-3.04-2.35-3.44-1.67-6.29-1.67-6.29l5.69,1.18s.45,6.47.67,7.25c.23.77.17,4.66.78,4.85Z" fill="#004a73"/><path d="M485.45,632.33c-.57.14-.86,1.26-1.93,1.37-1.07.12-.5-.69-.82-1.76.47-.16,1.09-.45,1.43-.93.01,0,.02,0,.03,0,.64.07,2.25-1.25,2.85-.51.61.74-1,1.68-1.57,1.82Z" fill="#02263a"/><path d="M482.67,618.9s-1.7,6.65-2.01,7.82c-.31,1.16-3.1,5.4-4.2,6.59l-1.57-.79s1.19-3.25,1.95-4.02c.77-.77,1.17-.77,1.42-1.4.25-.64-.64-5.8,0-7.31l.37-.92,4.04.05Z" fill="#005887"/><path d="M477.59,635.85c-.79-.31-3.56-1.25-3.47-2.17.09-.92.77-1.16.77-1.16l1.57.79s.94,1.36,1.8,1.87c.86.5.12.99-.67.68Z" fill="#02263a"/><path d="M478.15,610.38c-.27.53-1.46,3.49-1.7,4.06-.24.57-.46,4.6-.44,5.01,0,.03,0,.05.01.08-.62-.09-1.29.2-1.29.2,0,0,0-5.28.13-5.92.13-.64,1.5-4.18,1.73-4.84.24-.66.76-.65,1.21-.46.66.29.62,1.34.35,1.88Z" fill="#d064a5"/><path d="M476.36,620.96c-.11.29-.86.99-1.39.46-.53-.53-.24-1.7-.24-1.7,0,0,.67-.29,1.29-.2,0,.01,0,.02,0,.03.12.35.71.6.75.88.04.31-.42.53-.42.53Z" fill="#fac2b0"/><path d="M476.04,619.55s0-.02,0-.03c.62.09,0,.03,0,.03Z" fill="#fac2b0"/><path d="M481.27,603.52c.93.05,1.4,0,1.39,1.59,0,.86-.16,2.41-.56,2.49s-1.55.33-1.93-.17-.36-2.36-.17-2.97c.19-.61,1.27-.94,1.27-.94Z" fill="#fac2b0"/><path d="M479.35,606.73l-.22,1.63s1.08.61,2.14.13v-1.76h-1.92Z" fill="#fac2b0"/><path d="M479.65,607.23c.56.16,1.67-.46,2.06-1.8.39-1.34.94-1.02,1.02-1.25.09-.23.23-.98-.37-1-.6-.02-1.03-.04-1.17-.16-.14-.12-.82-.48-1.33-.29-.51.19-1.2.76-1.13,1.47,0,0-.42.32-.31.91.11.59.5.82.61,1.23s.04.71.63.89Z" fill="#6b461b"/><path d="M481.39,606.43s-.78-.52-.47-1.09c.31-.57.82.6.82.6l-.35.48Z" fill="#fac2b0"/><path d="M480.08,607.99c1.32.18,3.39,1.52,3.46,1.91.07.39-.07,5.27-.34,6.39-.27,1.11-.52,2.61-.52,2.61,0,0-3.89,1.07-5.69-1.18,0,0,.41-2.39.23-3.34-.18-.95-1.14-5.07-.23-5.98.91-.91,3.09-.41,3.09-.41Z" fill="#bf529d"/><path d="M488.1,621.45c-.84.29-.45-.39-.45-.68s-.53-.86-.55-1.38c0,0-2.98-2.23-3.54-3.2-.57-.97-1.6-3.87-1.81-4.87-.21-1,.71-1.52.71-1.52.78-.29,1.08-.28,1.51.98.42,1.26.57,3.46,1.26,4.48.61.89,2.12,2.29,2.69,3.05.09.12.15.22.19.3.29.63.84,2.54,0,2.83Z" fill="#d064a5"/><path d="M488.1,621.45c-.84.29-.45-.39-.45-.68s-.53-.86-.55-1.38c0,0,.93-.12.81-1.08.09.12.15.22.19.3.29.63.84,2.54,0,2.83Z" fill="#fac2b0"/><polygon points="413.11 479.06 406.06 491.22 419.38 501.52 397.2 501.35 382.15 511.38 377.8 499.58 356.6 495.76 374.67 488.34 374.31 475.5 392.13 483.18 413.11 479.06" opacity=".1"/><polygon points="372.78 481.59 372.76 488.84 372.42 476.52 372.44 469.27 372.78 481.59" fill="#ffcb04"/><polygon points="409.66 472.68 409.64 479.93 402.87 491.6 402.89 484.35 409.66 472.68" fill="#e9bb1f"/><polygon points="375.79 492.36 375.77 499.61 355.44 495.95 355.46 488.7 375.79 492.36" fill="#dfb425"/><polygon points="415.67 494.23 415.65 501.48 394.38 501.32 394.4 494.07 415.67 494.23" fill="#e9bb1f"/><polygon points="382.17 504.13 382.15 511.38 375.77 499.61 375.79 492.36 382.17 504.13" fill="#e9bb1f"/><polygon points="394.4 494.07 394.38 501.32 382.15 511.38 382.17 504.13 394.4 494.07" fill="#dfb425"/><polygon points="409.66 472.68 402.89 484.35 415.67 494.22 394.4 494.07 382.17 504.13 375.79 492.36 355.46 488.7 372.78 481.59 372.44 469.27 389.53 476.64 409.66 472.68" fill="#ffcb04"/><polygon points="462.7 506.86 455.65 519.03 468.97 529.32 446.79 529.16 431.74 539.19 427.39 527.38 406.19 523.57 424.26 516.15 423.9 503.3 441.72 510.99 462.7 506.86" opacity=".1"/><polygon points="422.37 509.39 422.35 516.64 422.01 504.32 422.03 497.07 422.37 509.39" fill="#ffcb04"/><polygon points="459.25 500.48 459.23 507.73 452.46 519.4 452.48 512.15 459.25 500.48" fill="#e9bb1f"/><polygon points="425.38 520.16 425.36 527.42 405.03 523.76 405.05 516.51 425.38 520.16" fill="#dfb425"/><polygon points="465.26 522.03 465.24 529.28 443.97 529.12 443.99 521.87 465.26 522.03" fill="#e9bb1f"/><polygon points="431.76 531.93 431.74 539.18 425.36 527.42 425.38 520.16 431.76 531.93" fill="#e9bb1f"/><polygon points="443.99 521.87 443.97 529.12 431.74 539.18 431.76 531.93 443.99 521.87" fill="#dfb425"/><polygon points="459.25 500.48 452.48 512.15 465.26 522.03 443.99 521.87 431.76 531.93 425.38 520.16 405.05 516.51 422.37 509.39 422.03 497.07 439.12 504.44 459.25 500.48" fill="#ffcb04"/><polygon points="512.29 534.66 505.24 546.83 518.56 557.13 496.38 556.96 481.33 566.99 476.98 555.18 455.78 551.37 473.85 543.95 473.49 531.11 491.31 538.79 512.29 534.66" opacity=".1"/><polygon points="471.96 537.2 471.94 544.45 471.6 532.12 471.62 524.87 471.96 537.2" fill="#ffcb04"/><polygon points="508.84 528.29 508.82 535.54 502.05 547.21 502.07 539.96 508.84 528.29" fill="#e9bb1f"/><polygon points="474.97 547.97 474.95 555.22 454.61 551.56 454.64 544.31 474.97 547.97" fill="#dfb425"/><polygon points="514.85 549.84 514.83 557.09 493.56 556.93 493.58 549.68 514.85 549.84" fill="#e9bb1f"/><polygon points="481.35 559.74 481.33 566.99 474.95 555.22 474.97 547.97 481.35 559.74" fill="#e9bb1f"/><polygon points="493.58 549.67 493.56 556.92 481.33 566.99 481.35 559.74 493.58 549.67" fill="#dfb425"/><polygon points="508.84 528.29 502.07 539.96 514.85 549.83 493.58 549.67 481.35 559.74 474.97 547.97 454.64 544.31 471.96 537.2 471.62 524.87 488.71 532.24 508.84 528.29" fill="#ffcb04"/><polygon points="561.88 562.47 554.83 574.63 568.15 584.93 545.97 584.77 530.92 594.79 526.57 582.99 505.37 579.17 523.44 571.76 523.08 558.91 540.9 566.59 561.88 562.47" opacity=".1"/><polygon points="521.55 565 521.53 572.25 521.19 559.93 521.21 552.68 521.55 565" fill="#ffcb04"/><polygon points="558.43 556.09 558.41 563.34 551.64 575.01 551.66 567.76 558.43 556.09" fill="#e9bb1f"/><polygon points="524.56 575.77 524.54 583.02 504.2 579.36 504.23 572.11 524.56 575.77" fill="#dfb425"/><polygon points="564.44 577.64 564.42 584.89 543.15 584.73 543.17 577.48 564.44 577.64" fill="#e9bb1f"/><polygon points="530.94 587.54 530.92 594.79 524.54 583.02 524.56 575.77 530.94 587.54" fill="#e9bb1f"/><polygon points="543.17 577.48 543.15 584.73 530.92 594.79 530.94 587.54 543.17 577.48" fill="#dfb425"/><polygon points="558.43 556.09 551.66 567.76 564.44 577.64 543.17 577.48 530.94 587.54 524.56 575.77 504.23 572.11 521.55 565 521.21 552.68 538.3 560.05 558.43 556.09" fill="#ffcb04"/><polygon points="611.47 590.27 604.42 602.44 617.74 612.73 595.56 612.57 580.51 622.6 576.16 610.79 554.96 606.98 573.02 599.56 572.67 586.71 590.49 594.4 611.47 590.27" opacity=".1"/><polygon points="571.14 592.8 571.12 600.05 570.78 587.73 570.8 580.48 571.14 592.8" fill="#ffcb04"/><polygon points="608.02 583.89 608 591.14 601.23 602.81 601.25 595.56 608.02 583.89" fill="#e9bb1f"/><polygon points="574.15 603.58 574.13 610.83 553.79 607.17 553.81 599.92 574.15 603.58" fill="#dfb425"/><polygon points="614.03 605.44 614.01 612.69 592.74 612.54 592.76 605.29 614.03 605.44" fill="#e9bb1f"/><polygon points="580.53 615.34 580.51 622.59 574.13 610.83 574.15 603.58 580.53 615.34" fill="#e9bb1f"/><polygon points="592.76 605.28 592.74 612.53 580.51 622.59 580.53 615.34 592.76 605.28" fill="#dfb425"/><polygon points="608.02 583.89 601.25 595.56 614.03 605.44 592.76 605.28 580.53 615.34 574.15 603.58 553.81 599.92 571.14 592.8 570.8 580.48 587.89 587.85 608.02 583.89" fill="#ffcb04"/></svg>