<svg width="350" height="81" viewBox="0 0 350 81" fill="none" xmlns="http://www.w3.org/2000/svg">
<rect width="350" height="81" rx="10" fill="#F3F3F3"/>
<path d="M0 10C0 4.47715 4.47715 0 10 0H89V81H10C4.47715 81 0 76.5229 0 71V10Z" fill="#E8E7E7"/>
<path d="M44.4998 31.2503H35.2498C34.4321 31.2503 33.6478 31.5752 33.0696 32.1534C32.4914 32.7316 32.1665 33.5159 32.1665 34.3337V49.7503C32.1665 50.5681 32.4914 51.3523 33.0696 51.9306C33.6478 52.5088 34.4321 52.8337 35.2498 52.8337H50.6665C51.4843 52.8337 52.2685 52.5088 52.8467 51.9306C53.425 51.3523 53.7498 50.5681 53.7498 49.7503V40.5003M42.9582 42.042L56.8332 28.167M56.8332 28.167H49.1248M56.8332 28.167V35.8753" stroke="#404040" stroke-width="2" stroke-linecap="round" stroke-linejoin="round"/>
<path d="M114.055 35.9219L117.047 26.625H119.211L115.133 38H113.672L114.055 35.9219ZM111.289 26.625L114.258 35.9219L114.664 38H113.195L109.133 26.625H111.289ZM122.312 29.5469V38H120.422V29.5469H122.312ZM120.297 27.3281C120.297 27.0417 120.391 26.8047 120.578 26.6172C120.771 26.4245 121.036 26.3281 121.375 26.3281C121.708 26.3281 121.971 26.4245 122.164 26.6172C122.357 26.8047 122.453 27.0417 122.453 27.3281C122.453 27.6094 122.357 27.8438 122.164 28.0312C121.971 28.2188 121.708 28.3125 121.375 28.3125C121.036 28.3125 120.771 28.2188 120.578 28.0312C120.391 27.8438 120.297 27.6094 120.297 27.3281ZM128.102 38.1562C127.477 38.1562 126.911 38.0547 126.406 37.8516C125.906 37.6432 125.479 37.3542 125.125 36.9844C124.776 36.6146 124.508 36.1797 124.32 35.6797C124.133 35.1797 124.039 34.6406 124.039 34.0625V33.75C124.039 33.0885 124.135 32.4896 124.328 31.9531C124.521 31.4167 124.789 30.9583 125.133 30.5781C125.477 30.1927 125.883 29.8984 126.352 29.6953C126.82 29.4922 127.328 29.3906 127.875 29.3906C128.479 29.3906 129.008 29.4922 129.461 29.6953C129.914 29.8984 130.289 30.1849 130.586 30.5547C130.888 30.9193 131.112 31.3542 131.258 31.8594C131.409 32.3646 131.484 32.9219 131.484 33.5312V34.3359H124.953V32.9844H129.625V32.8359C129.615 32.4974 129.547 32.1797 129.422 31.8828C129.302 31.5859 129.117 31.3464 128.867 31.1641C128.617 30.9818 128.284 30.8906 127.867 30.8906C127.555 30.8906 127.276 30.9583 127.031 31.0938C126.792 31.224 126.591 31.4141 126.43 31.6641C126.268 31.9141 126.143 32.2161 126.055 32.5703C125.971 32.9193 125.93 33.3125 125.93 33.75V34.0625C125.93 34.4323 125.979 34.776 126.078 35.0938C126.182 35.4062 126.333 35.6797 126.531 35.9141C126.729 36.1484 126.969 36.3333 127.25 36.4688C127.531 36.599 127.852 36.6641 128.211 36.6641C128.664 36.6641 129.068 36.5729 129.422 36.3906C129.776 36.2083 130.083 35.9505 130.344 35.6172L131.336 36.5781C131.154 36.8438 130.917 37.099 130.625 37.3438C130.333 37.5833 129.977 37.7786 129.555 37.9297C129.138 38.0807 128.654 38.1562 128.102 38.1562ZM135.25 36.125L137.203 29.5469H138.406L138.078 31.5156L136.109 38H135.031L135.25 36.125ZM134.102 29.5469L135.625 36.1562L135.75 38H134.547L132.258 29.5469H134.102ZM140.234 36.0781L141.711 29.5469H143.547L141.266 38H140.062L140.234 36.0781ZM138.609 29.5469L140.539 36.0469L140.781 38H139.703L137.711 31.5078L137.383 29.5469H138.609ZM151.109 36.125L153.062 29.5469H154.266L153.938 31.5156L151.969 38H150.891L151.109 36.125ZM149.961 29.5469L151.484 36.1562L151.609 38H150.406L148.117 29.5469H149.961ZM156.094 36.0781L157.57 29.5469H159.406L157.125 38H155.922L156.094 36.0781ZM154.469 29.5469L156.398 36.0469L156.641 38H155.562L153.57 31.5078L153.242 29.5469H154.469ZM164.414 38.1562C163.789 38.1562 163.224 38.0547 162.719 37.8516C162.219 37.6432 161.792 37.3542 161.438 36.9844C161.089 36.6146 160.82 36.1797 160.633 35.6797C160.445 35.1797 160.352 34.6406 160.352 34.0625V33.75C160.352 33.0885 160.448 32.4896 160.641 31.9531C160.833 31.4167 161.102 30.9583 161.445 30.5781C161.789 30.1927 162.195 29.8984 162.664 29.6953C163.133 29.4922 163.641 29.3906 164.188 29.3906C164.792 29.3906 165.32 29.4922 165.773 29.6953C166.227 29.8984 166.602 30.1849 166.898 30.5547C167.201 30.9193 167.424 31.3542 167.57 31.8594C167.721 32.3646 167.797 32.9219 167.797 33.5312V34.3359H161.266V32.9844H165.938V32.8359C165.927 32.4974 165.859 32.1797 165.734 31.8828C165.615 31.5859 165.43 31.3464 165.18 31.1641C164.93 30.9818 164.596 30.8906 164.18 30.8906C163.867 30.8906 163.589 30.9583 163.344 31.0938C163.104 31.224 162.904 31.4141 162.742 31.6641C162.581 31.9141 162.456 32.2161 162.367 32.5703C162.284 32.9193 162.242 33.3125 162.242 33.75V34.0625C162.242 34.4323 162.292 34.776 162.391 35.0938C162.495 35.4062 162.646 35.6797 162.844 35.9141C163.042 36.1484 163.281 36.3333 163.562 36.4688C163.844 36.599 164.164 36.6641 164.523 36.6641C164.977 36.6641 165.38 36.5729 165.734 36.3906C166.089 36.2083 166.396 35.9505 166.656 35.6172L167.648 36.5781C167.466 36.8438 167.229 37.099 166.938 37.3438C166.646 37.5833 166.289 37.7786 165.867 37.9297C165.451 38.0807 164.966 38.1562 164.414 38.1562ZM169.273 26H171.156V36.1953L170.977 38H169.273V26ZM176.672 33.6953V33.8594C176.672 34.4844 176.602 35.0599 176.461 35.5859C176.326 36.1068 176.117 36.5599 175.836 36.9453C175.56 37.3307 175.216 37.6302 174.805 37.8438C174.398 38.0521 173.927 38.1562 173.391 38.1562C172.865 38.1562 172.406 38.0573 172.016 37.8594C171.625 37.6615 171.297 37.3802 171.031 37.0156C170.771 36.651 170.56 36.2161 170.398 35.7109C170.237 35.2057 170.122 34.6484 170.055 34.0391V33.5156C170.122 32.901 170.237 32.3438 170.398 31.8438C170.56 31.3385 170.771 30.9036 171.031 30.5391C171.297 30.1693 171.622 29.8854 172.008 29.6875C172.398 29.4896 172.854 29.3906 173.375 29.3906C173.917 29.3906 174.393 29.4948 174.805 29.7031C175.221 29.9115 175.568 30.2083 175.844 30.5938C176.12 30.974 176.326 31.4271 176.461 31.9531C176.602 32.4792 176.672 33.0599 176.672 33.6953ZM174.789 33.8594V33.6953C174.789 33.3151 174.758 32.9583 174.695 32.625C174.633 32.2865 174.529 31.9896 174.383 31.7344C174.242 31.4792 174.049 31.2786 173.805 31.1328C173.565 30.9818 173.266 30.9062 172.906 30.9062C172.573 30.9062 172.286 30.9635 172.047 31.0781C171.807 31.1927 171.607 31.349 171.445 31.5469C171.284 31.7448 171.156 31.974 171.062 32.2344C170.974 32.4948 170.914 32.776 170.883 33.0781V34.4922C170.93 34.8828 171.029 35.2422 171.18 35.5703C171.336 35.8932 171.555 36.1536 171.836 36.3516C172.117 36.5443 172.479 36.6406 172.922 36.6406C173.271 36.6406 173.565 36.5703 173.805 36.4297C174.044 36.2891 174.234 36.0938 174.375 35.8438C174.521 35.5885 174.625 35.2917 174.688 34.9531C174.755 34.6146 174.789 34.25 174.789 33.8594ZM183.008 35.7109C183.008 35.5234 182.961 35.3542 182.867 35.2031C182.773 35.0469 182.594 34.9062 182.328 34.7812C182.068 34.6562 181.682 34.5417 181.172 34.4375C180.724 34.3385 180.312 34.2214 179.938 34.0859C179.568 33.9453 179.25 33.776 178.984 33.5781C178.719 33.3802 178.513 33.1458 178.367 32.875C178.221 32.6042 178.148 32.2917 178.148 31.9375C178.148 31.5938 178.224 31.2682 178.375 30.9609C178.526 30.6536 178.742 30.3828 179.023 30.1484C179.305 29.9141 179.646 29.7292 180.047 29.5938C180.453 29.4583 180.906 29.3906 181.406 29.3906C182.115 29.3906 182.721 29.5104 183.227 29.75C183.737 29.9844 184.128 30.3047 184.398 30.7109C184.669 31.112 184.805 31.5651 184.805 32.0703H182.922C182.922 31.8464 182.865 31.638 182.75 31.4453C182.641 31.2474 182.474 31.0885 182.25 30.9688C182.026 30.8438 181.745 30.7812 181.406 30.7812C181.083 30.7812 180.815 30.8333 180.602 30.9375C180.393 31.0365 180.237 31.1667 180.133 31.3281C180.034 31.4896 179.984 31.6667 179.984 31.8594C179.984 32 180.01 32.1276 180.062 32.2422C180.12 32.3516 180.214 32.4531 180.344 32.5469C180.474 32.6354 180.651 32.7188 180.875 32.7969C181.104 32.875 181.391 32.9505 181.734 33.0234C182.38 33.1589 182.935 33.3333 183.398 33.5469C183.867 33.7552 184.227 34.026 184.477 34.3594C184.727 34.6875 184.852 35.1042 184.852 35.6094C184.852 35.9844 184.771 36.3281 184.609 36.6406C184.453 36.9479 184.224 37.2161 183.922 37.4453C183.62 37.6693 183.258 37.8438 182.836 37.9688C182.419 38.0938 181.951 38.1562 181.43 38.1562C180.664 38.1562 180.016 38.0208 179.484 37.75C178.953 37.474 178.549 37.1224 178.273 36.6953C178.003 36.263 177.867 35.8151 177.867 35.3516H179.688C179.708 35.7005 179.805 35.9792 179.977 36.1875C180.154 36.3906 180.372 36.5391 180.633 36.6328C180.898 36.7214 181.172 36.7656 181.453 36.7656C181.792 36.7656 182.076 36.7214 182.305 36.6328C182.534 36.5391 182.708 36.4141 182.828 36.2578C182.948 36.0964 183.008 35.9141 183.008 35.7109ZM188.516 29.5469V38H186.625V29.5469H188.516ZM186.5 27.3281C186.5 27.0417 186.594 26.8047 186.781 26.6172C186.974 26.4245 187.24 26.3281 187.578 26.3281C187.911 26.3281 188.174 26.4245 188.367 26.6172C188.56 26.8047 188.656 27.0417 188.656 27.3281C188.656 27.6094 188.56 27.8438 188.367 28.0312C188.174 28.2188 187.911 28.3125 187.578 28.3125C187.24 28.3125 186.974 28.2188 186.781 28.0312C186.594 27.8438 186.5 27.6094 186.5 27.3281ZM194.453 29.5469V30.9219H189.688V29.5469H194.453ZM191.062 27.4766H192.945V35.6641C192.945 35.9245 192.982 36.125 193.055 36.2656C193.133 36.401 193.24 36.4922 193.375 36.5391C193.51 36.5859 193.669 36.6094 193.852 36.6094C193.982 36.6094 194.107 36.6016 194.227 36.5859C194.346 36.5703 194.443 36.5547 194.516 36.5391L194.523 37.9766C194.367 38.0234 194.185 38.0651 193.977 38.1016C193.773 38.138 193.539 38.1562 193.273 38.1562C192.841 38.1562 192.458 38.0807 192.125 37.9297C191.792 37.7734 191.531 37.5208 191.344 37.1719C191.156 36.8229 191.062 36.3594 191.062 35.7812V27.4766ZM199.633 38.1562C199.008 38.1562 198.443 38.0547 197.938 37.8516C197.438 37.6432 197.01 37.3542 196.656 36.9844C196.307 36.6146 196.039 36.1797 195.852 35.6797C195.664 35.1797 195.57 34.6406 195.57 34.0625V33.75C195.57 33.0885 195.667 32.4896 195.859 31.9531C196.052 31.4167 196.32 30.9583 196.664 30.5781C197.008 30.1927 197.414 29.8984 197.883 29.6953C198.352 29.4922 198.859 29.3906 199.406 29.3906C200.01 29.3906 200.539 29.4922 200.992 29.6953C201.445 29.8984 201.82 30.1849 202.117 30.5547C202.419 30.9193 202.643 31.3542 202.789 31.8594C202.94 32.3646 203.016 32.9219 203.016 33.5312V34.3359H196.484V32.9844H201.156V32.8359C201.146 32.4974 201.078 32.1797 200.953 31.8828C200.833 31.5859 200.648 31.3464 200.398 31.1641C200.148 30.9818 199.815 30.8906 199.398 30.8906C199.086 30.8906 198.807 30.9583 198.562 31.0938C198.323 31.224 198.122 31.4141 197.961 31.6641C197.799 31.9141 197.674 32.2161 197.586 32.5703C197.503 32.9193 197.461 33.3125 197.461 33.75V34.0625C197.461 34.4323 197.51 34.776 197.609 35.0938C197.714 35.4062 197.865 35.6797 198.062 35.9141C198.26 36.1484 198.5 36.3333 198.781 36.4688C199.062 36.599 199.383 36.6641 199.742 36.6641C200.195 36.6641 200.599 36.5729 200.953 36.3906C201.307 36.2083 201.615 35.9505 201.875 35.6172L202.867 36.5781C202.685 36.8438 202.448 37.099 202.156 37.3438C201.865 37.5833 201.508 37.7786 201.086 37.9297C200.669 38.0807 200.185 38.1562 199.633 38.1562Z" fill="#111111"/>
<path d="M111.432 53.875L113.061 48.6602H113.775L113.635 49.6973L111.977 55H111.279L111.432 53.875ZM110.336 48.6602L111.725 53.9336L111.824 55H111.092L109.252 48.6602H110.336ZM115.334 53.8926L116.658 48.6602H117.736L115.896 55H115.17L115.334 53.8926ZM113.934 48.6602L115.527 53.7871L115.709 55H115.018L113.312 49.6855L113.172 48.6602H113.934ZM120.457 53.875L122.086 48.6602H122.801L122.661 49.6973L121.002 55H120.305L120.457 53.875ZM119.362 48.6602L120.75 53.9336L120.85 55H120.118L118.278 48.6602H119.362ZM124.36 53.8926L125.684 48.6602H126.762L124.922 55H124.196L124.36 53.8926ZM122.959 48.6602L124.553 53.7871L124.735 55H124.043L122.338 49.6855L122.198 48.6602H122.959ZM129.483 53.875L131.112 48.6602H131.827L131.686 49.6973L130.028 55H129.331L129.483 53.875ZM128.388 48.6602L129.776 53.9336L129.876 55H129.143L127.304 48.6602H128.388ZM133.386 53.8926L134.71 48.6602H135.788L133.948 55H133.222L133.386 53.8926ZM131.985 48.6602L133.579 53.7871L133.761 55H133.069L131.364 49.6855L131.224 48.6602H131.985ZM136.195 54.4258C136.195 54.2422 136.251 54.0879 136.365 53.9629C136.482 53.834 136.65 53.7695 136.869 53.7695C137.087 53.7695 137.253 53.834 137.367 53.9629C137.484 54.0879 137.542 54.2422 137.542 54.4258C137.542 54.6055 137.484 54.7578 137.367 54.8828C137.253 55.0078 137.087 55.0703 136.869 55.0703C136.65 55.0703 136.482 55.0078 136.365 54.8828C136.251 54.7578 136.195 54.6055 136.195 54.4258ZM141.881 54.2266C142.139 54.2266 142.377 54.1738 142.596 54.0684C142.814 53.9629 142.994 53.8184 143.135 53.6348C143.275 53.4473 143.355 53.2344 143.375 52.9961H144.406C144.387 53.3711 144.26 53.7207 144.025 54.0449C143.795 54.3652 143.492 54.625 143.117 54.8242C142.742 55.0195 142.33 55.1172 141.881 55.1172C141.404 55.1172 140.988 55.0332 140.633 54.8652C140.281 54.6973 139.988 54.4668 139.754 54.1738C139.523 53.8809 139.349 53.5449 139.232 53.166C139.119 52.7832 139.062 52.3789 139.062 51.9531V51.707C139.062 51.2812 139.119 50.8789 139.232 50.5C139.349 50.1172 139.523 49.7793 139.754 49.4863C139.988 49.1934 140.281 48.9629 140.633 48.7949C140.988 48.627 141.404 48.543 141.881 48.543C142.377 48.543 142.81 48.6445 143.181 48.8477C143.553 49.0469 143.844 49.3203 144.055 49.668C144.269 50.0117 144.387 50.4023 144.406 50.8398H143.375C143.355 50.5781 143.281 50.3418 143.152 50.1309C143.027 49.9199 142.855 49.752 142.637 49.627C142.422 49.498 142.17 49.4336 141.881 49.4336C141.549 49.4336 141.269 49.5 141.043 49.6328C140.82 49.7617 140.642 49.9375 140.51 50.1602C140.381 50.3789 140.287 50.623 140.228 50.8926C140.174 51.1582 140.146 51.4297 140.146 51.707V51.9531C140.146 52.2305 140.174 52.5039 140.228 52.7734C140.283 53.043 140.375 53.2871 140.504 53.5059C140.637 53.7246 140.814 53.9004 141.037 54.0332C141.264 54.1621 141.545 54.2266 141.881 54.2266ZM146.711 49.6562V55H145.627V48.6602H146.682L146.711 49.6562ZM148.692 48.625L148.686 49.6328C148.596 49.6133 148.51 49.6016 148.428 49.5977C148.35 49.5898 148.26 49.5859 148.158 49.5859C147.908 49.5859 147.688 49.625 147.496 49.7031C147.305 49.7812 147.143 49.8906 147.01 50.0312C146.877 50.1719 146.772 50.3398 146.694 50.5352C146.619 50.7266 146.571 50.9375 146.547 51.168L146.242 51.3438C146.242 50.9609 146.28 50.6016 146.354 50.2656C146.432 49.9297 146.551 49.6328 146.711 49.375C146.871 49.1133 147.075 48.9102 147.321 48.7656C147.571 48.6172 147.867 48.543 148.211 48.543C148.289 48.543 148.379 48.5527 148.481 48.5723C148.582 48.5879 148.653 48.6055 148.692 48.625ZM149.292 51.9004V51.7656C149.292 51.3086 149.358 50.8848 149.491 50.4941C149.624 50.0996 149.815 49.7578 150.065 49.4688C150.315 49.1758 150.618 48.9492 150.973 48.7891C151.329 48.625 151.727 48.543 152.169 48.543C152.614 48.543 153.014 48.625 153.37 48.7891C153.729 48.9492 154.034 49.1758 154.284 49.4688C154.538 49.7578 154.731 50.0996 154.864 50.4941C154.997 50.8848 155.063 51.3086 155.063 51.7656V51.9004C155.063 52.3574 154.997 52.7812 154.864 53.1719C154.731 53.5625 154.538 53.9043 154.284 54.1973C154.034 54.4863 153.731 54.7129 153.376 54.877C153.024 55.0371 152.626 55.1172 152.18 55.1172C151.735 55.1172 151.335 55.0371 150.979 54.877C150.624 54.7129 150.319 54.4863 150.065 54.1973C149.815 53.9043 149.624 53.5625 149.491 53.1719C149.358 52.7812 149.292 52.3574 149.292 51.9004ZM150.376 51.7656V51.9004C150.376 52.2168 150.413 52.5156 150.487 52.7969C150.561 53.0742 150.673 53.3203 150.821 53.5352C150.973 53.75 151.163 53.9199 151.389 54.0449C151.616 54.166 151.88 54.2266 152.18 54.2266C152.477 54.2266 152.737 54.166 152.96 54.0449C153.186 53.9199 153.374 53.75 153.522 53.5352C153.671 53.3203 153.782 53.0742 153.856 52.7969C153.934 52.5156 153.973 52.2168 153.973 51.9004V51.7656C153.973 51.4531 153.934 51.1582 153.856 50.8809C153.782 50.5996 153.669 50.3516 153.516 50.1367C153.368 49.918 153.18 49.7461 152.954 49.6211C152.731 49.4961 152.469 49.4336 152.169 49.4336C151.872 49.4336 151.61 49.4961 151.384 49.6211C151.161 49.7461 150.973 49.918 150.821 50.1367C150.673 50.3516 150.561 50.5996 150.487 50.8809C150.413 51.1582 150.376 51.4531 150.376 51.7656ZM158.03 53.875L159.659 48.6602H160.374L160.234 49.6973L158.575 55H157.878L158.03 53.875ZM156.935 48.6602L158.323 53.9336L158.423 55H157.691L155.851 48.6602H156.935ZM161.933 53.8926L163.257 48.6602H164.335L162.495 55H161.769L161.933 53.8926ZM160.532 48.6602L162.126 53.7871L162.308 55H161.616L159.911 49.6855L159.771 48.6602H160.532ZM166.535 50.0137V55H165.451V48.6602H166.476L166.535 50.0137ZM166.277 51.5898L165.826 51.5723C165.83 51.1387 165.894 50.7383 166.019 50.3711C166.144 50 166.32 49.6777 166.547 49.4043C166.773 49.1309 167.043 48.9199 167.355 48.7715C167.672 48.6191 168.021 48.543 168.404 48.543C168.716 48.543 168.998 48.5859 169.248 48.6719C169.498 48.7539 169.711 48.8867 169.886 49.0703C170.066 49.2539 170.203 49.4922 170.297 49.7852C170.39 50.0742 170.437 50.4277 170.437 50.8457V55H169.347V50.834C169.347 50.502 169.298 50.2363 169.201 50.0371C169.103 49.834 168.961 49.6875 168.773 49.5977C168.586 49.5039 168.355 49.457 168.082 49.457C167.812 49.457 167.566 49.5137 167.343 49.627C167.125 49.7402 166.935 49.8965 166.775 50.0957C166.619 50.2949 166.496 50.5234 166.406 50.7812C166.32 51.0352 166.277 51.3047 166.277 51.5898ZM173.264 48.6602V55H172.174V48.6602H173.264ZM172.092 46.9785C172.092 46.8027 172.145 46.6543 172.25 46.5332C172.359 46.4121 172.52 46.3516 172.731 46.3516C172.938 46.3516 173.096 46.4121 173.205 46.5332C173.318 46.6543 173.375 46.8027 173.375 46.9785C173.375 47.1465 173.318 47.291 173.205 47.4121C173.096 47.5293 172.938 47.5879 172.731 47.5879C172.52 47.5879 172.359 47.5293 172.25 47.4121C172.145 47.291 172.092 47.1465 172.092 46.9785ZM176.09 50.0137V55H175.006V48.6602H176.032L176.09 50.0137ZM175.833 51.5898L175.381 51.5723C175.385 51.1387 175.45 50.7383 175.575 50.3711C175.7 50 175.876 49.6777 176.102 49.4043C176.329 49.1309 176.598 48.9199 176.911 48.7715C177.227 48.6191 177.577 48.543 177.96 48.543C178.272 48.543 178.553 48.5859 178.803 48.6719C179.053 48.7539 179.266 48.8867 179.442 49.0703C179.622 49.2539 179.758 49.4922 179.852 49.7852C179.946 50.0742 179.993 50.4277 179.993 50.8457V55H178.903V50.834C178.903 50.502 178.854 50.2363 178.756 50.0371C178.659 49.834 178.516 49.6875 178.329 49.5977C178.141 49.5039 177.911 49.457 177.637 49.457C177.368 49.457 177.122 49.5137 176.899 49.627C176.68 49.7402 176.491 49.8965 176.331 50.0957C176.174 50.2949 176.051 50.5234 175.962 50.7812C175.876 51.0352 175.833 51.3047 175.833 51.5898ZM181.355 51.9004V51.7656C181.355 51.3086 181.421 50.8848 181.554 50.4941C181.687 50.0996 181.878 49.7578 182.128 49.4688C182.378 49.1758 182.681 48.9492 183.036 48.7891C183.392 48.625 183.79 48.543 184.231 48.543C184.677 48.543 185.077 48.625 185.433 48.7891C185.792 48.9492 186.097 49.1758 186.347 49.4688C186.601 49.7578 186.794 50.0996 186.927 50.4941C187.06 50.8848 187.126 51.3086 187.126 51.7656V51.9004C187.126 52.3574 187.06 52.7812 186.927 53.1719C186.794 53.5625 186.601 53.9043 186.347 54.1973C186.097 54.4863 185.794 54.7129 185.439 54.877C185.087 55.0371 184.689 55.1172 184.243 55.1172C183.798 55.1172 183.397 55.0371 183.042 54.877C182.687 54.7129 182.382 54.4863 182.128 54.1973C181.878 53.9043 181.687 53.5625 181.554 53.1719C181.421 52.7812 181.355 52.3574 181.355 51.9004ZM182.439 51.7656V51.9004C182.439 52.2168 182.476 52.5156 182.55 52.7969C182.624 53.0742 182.735 53.3203 182.884 53.5352C183.036 53.75 183.226 53.9199 183.452 54.0449C183.679 54.166 183.942 54.2266 184.243 54.2266C184.54 54.2266 184.8 54.166 185.022 54.0449C185.249 53.9199 185.437 53.75 185.585 53.5352C185.733 53.3203 185.845 53.0742 185.919 52.7969C185.997 52.5156 186.036 52.2168 186.036 51.9004V51.7656C186.036 51.4531 185.997 51.1582 185.919 50.8809C185.845 50.5996 185.731 50.3516 185.579 50.1367C185.431 49.918 185.243 49.7461 185.017 49.6211C184.794 49.4961 184.532 49.4336 184.231 49.4336C183.935 49.4336 183.673 49.4961 183.446 49.6211C183.224 49.7461 183.036 49.918 182.884 50.1367C182.735 50.3516 182.624 50.5996 182.55 50.8809C182.476 51.1582 182.439 51.4531 182.439 51.7656ZM189.091 48.6602L190.48 50.9688L191.886 48.6602H193.158L191.083 51.7891L193.222 55H191.968L190.503 52.6211L189.039 55H187.779L189.912 51.7891L187.843 48.6602H189.091ZM198.006 53.3184C198.006 53.1621 197.971 53.0176 197.9 52.8848C197.834 52.748 197.695 52.625 197.484 52.5156C197.277 52.4023 196.965 52.3047 196.547 52.2227C196.195 52.1484 195.877 52.0605 195.592 51.959C195.31 51.8574 195.07 51.7344 194.871 51.5898C194.676 51.4453 194.525 51.2754 194.42 51.0801C194.314 50.8848 194.262 50.6562 194.262 50.3945C194.262 50.1445 194.316 49.9082 194.426 49.6855C194.539 49.4629 194.697 49.2656 194.9 49.0938C195.107 48.9219 195.355 48.7871 195.644 48.6895C195.934 48.5918 196.256 48.543 196.611 48.543C197.119 48.543 197.553 48.6328 197.912 48.8125C198.271 48.9922 198.547 49.2324 198.738 49.5332C198.93 49.8301 199.025 50.1602 199.025 50.5234H197.941C197.941 50.3477 197.889 50.1777 197.783 50.0137C197.682 49.8457 197.531 49.707 197.332 49.5977C197.137 49.4883 196.896 49.4336 196.611 49.4336C196.31 49.4336 196.066 49.4805 195.879 49.5742C195.695 49.6641 195.56 49.7793 195.475 49.9199C195.393 50.0605 195.352 50.209 195.352 50.3652C195.352 50.4824 195.371 50.5879 195.41 50.6816C195.453 50.7715 195.527 50.8555 195.633 50.9336C195.738 51.0078 195.887 51.0781 196.078 51.1445C196.269 51.2109 196.514 51.2773 196.81 51.3438C197.33 51.4609 197.758 51.6016 198.094 51.7656C198.43 51.9297 198.68 52.1309 198.844 52.3691C199.008 52.6074 199.09 52.8965 199.09 53.2363C199.09 53.5137 199.031 53.7676 198.914 53.998C198.801 54.2285 198.635 54.4277 198.416 54.5957C198.201 54.7598 197.943 54.8887 197.643 54.9824C197.346 55.0723 197.012 55.1172 196.641 55.1172C196.082 55.1172 195.609 55.0176 195.223 54.8184C194.836 54.6191 194.543 54.3613 194.344 54.0449C194.144 53.7285 194.045 53.3945 194.045 53.043H195.135C195.15 53.3398 195.236 53.5762 195.393 53.752C195.549 53.9238 195.74 54.0469 195.967 54.1211C196.193 54.1914 196.418 54.2266 196.641 54.2266C196.937 54.2266 197.185 54.1875 197.385 54.1094C197.588 54.0312 197.742 53.9238 197.848 53.7871C197.953 53.6504 198.006 53.4941 198.006 53.3184ZM203.17 48.6602V49.4922H199.743V48.6602H203.17ZM200.903 47.1191H201.987V53.4297C201.987 53.6445 202.02 53.8066 202.086 53.916C202.153 54.0254 202.239 54.0977 202.344 54.1328C202.45 54.168 202.563 54.1855 202.684 54.1855C202.774 54.1855 202.868 54.1777 202.965 54.1621C203.067 54.1426 203.143 54.127 203.194 54.1152L203.2 55C203.114 55.0273 203 55.0527 202.86 55.0762C202.723 55.1035 202.557 55.1172 202.362 55.1172C202.096 55.1172 201.852 55.0645 201.629 54.959C201.407 54.8535 201.229 54.6777 201.096 54.4316C200.967 54.1816 200.903 53.8457 200.903 53.4238V47.1191ZM207.075 55.1172C206.634 55.1172 206.233 55.043 205.874 54.8945C205.518 54.7422 205.212 54.5293 204.954 54.2559C204.7 53.9824 204.505 53.6582 204.368 53.2832C204.231 52.9082 204.163 52.498 204.163 52.0527V51.8066C204.163 51.291 204.239 50.832 204.391 50.4297C204.544 50.0234 204.751 49.6797 205.013 49.3984C205.274 49.1172 205.571 48.9043 205.903 48.7598C206.235 48.6152 206.579 48.543 206.934 48.543C207.388 48.543 207.778 48.6211 208.106 48.7773C208.438 48.9336 208.71 49.1523 208.921 49.4336C209.132 49.7109 209.288 50.0391 209.39 50.418C209.491 50.793 209.542 51.2031 209.542 51.6484V52.1348H204.807V51.25H208.458V51.168C208.442 50.8867 208.384 50.6133 208.282 50.3477C208.184 50.082 208.028 49.8633 207.813 49.6914C207.599 49.5195 207.306 49.4336 206.934 49.4336C206.688 49.4336 206.462 49.4863 206.255 49.5918C206.048 49.6934 205.87 49.8457 205.722 50.0488C205.573 50.252 205.458 50.5 205.376 50.793C205.294 51.0859 205.253 51.4238 205.253 51.8066V52.0527C205.253 52.3535 205.294 52.6367 205.376 52.9023C205.462 53.1641 205.585 53.3945 205.745 53.5938C205.909 53.793 206.106 53.9492 206.337 54.0625C206.571 54.1758 206.837 54.2324 207.134 54.2324C207.516 54.2324 207.841 54.1543 208.106 53.998C208.372 53.8418 208.604 53.6328 208.804 53.3711L209.46 53.8926C209.323 54.0996 209.149 54.2969 208.938 54.4844C208.727 54.6719 208.468 54.8242 208.159 54.9414C207.854 55.0586 207.493 55.1172 207.075 55.1172ZM213.441 55.1172C212.999 55.1172 212.599 55.043 212.24 54.8945C211.884 54.7422 211.577 54.5293 211.32 54.2559C211.066 53.9824 210.87 53.6582 210.734 53.2832C210.597 52.9082 210.529 52.498 210.529 52.0527V51.8066C210.529 51.291 210.605 50.832 210.757 50.4297C210.909 50.0234 211.117 49.6797 211.378 49.3984C211.64 49.1172 211.937 48.9043 212.269 48.7598C212.601 48.6152 212.945 48.543 213.3 48.543C213.753 48.543 214.144 48.6211 214.472 48.7773C214.804 48.9336 215.076 49.1523 215.286 49.4336C215.497 49.7109 215.654 50.0391 215.755 50.418C215.857 50.793 215.908 51.2031 215.908 51.6484V52.1348H211.173V51.25H214.824V51.168C214.808 50.8867 214.749 50.6133 214.648 50.3477C214.55 50.082 214.394 49.8633 214.179 49.6914C213.964 49.5195 213.671 49.4336 213.3 49.4336C213.054 49.4336 212.827 49.4863 212.62 49.5918C212.413 49.6934 212.236 49.8457 212.087 50.0488C211.939 50.252 211.824 50.5 211.742 50.793C211.659 51.0859 211.618 51.4238 211.618 51.8066V52.0527C211.618 52.3535 211.659 52.6367 211.742 52.9023C211.827 53.1641 211.951 53.3945 212.111 53.5938C212.275 53.793 212.472 53.9492 212.702 54.0625C212.937 54.1758 213.202 54.2324 213.499 54.2324C213.882 54.2324 214.206 54.1543 214.472 53.998C214.738 53.8418 214.97 53.6328 215.169 53.3711L215.826 53.8926C215.689 54.0996 215.515 54.2969 215.304 54.4844C215.093 54.6719 214.833 54.8242 214.525 54.9414C214.22 55.0586 213.859 55.1172 213.441 55.1172ZM218.353 46V55H217.263V46H218.353ZM223.787 53.3184C223.787 53.1621 223.752 53.0176 223.682 52.8848C223.615 52.748 223.477 52.625 223.266 52.5156C223.059 52.4023 222.746 52.3047 222.328 52.2227C221.977 52.1484 221.658 52.0605 221.373 51.959C221.092 51.8574 220.852 51.7344 220.653 51.5898C220.457 51.4453 220.307 51.2754 220.201 51.0801C220.096 50.8848 220.043 50.6562 220.043 50.3945C220.043 50.1445 220.098 49.9082 220.207 49.6855C220.321 49.4629 220.479 49.2656 220.682 49.0938C220.889 48.9219 221.137 48.7871 221.426 48.6895C221.715 48.5918 222.037 48.543 222.393 48.543C222.901 48.543 223.334 48.6328 223.694 48.8125C224.053 48.9922 224.328 49.2324 224.52 49.5332C224.711 49.8301 224.807 50.1602 224.807 50.5234H223.723C223.723 50.3477 223.67 50.1777 223.565 50.0137C223.463 49.8457 223.313 49.707 223.114 49.5977C222.918 49.4883 222.678 49.4336 222.393 49.4336C222.092 49.4336 221.848 49.4805 221.66 49.5742C221.477 49.6641 221.342 49.7793 221.256 49.9199C221.174 50.0605 221.133 50.209 221.133 50.3652C221.133 50.4824 221.153 50.5879 221.192 50.6816C221.235 50.7715 221.309 50.8555 221.414 50.9336C221.52 51.0078 221.668 51.0781 221.86 51.1445C222.051 51.2109 222.295 51.2773 222.592 51.3438C223.112 51.4609 223.539 51.6016 223.875 51.7656C224.211 51.9297 224.461 52.1309 224.625 52.3691C224.789 52.6074 224.871 52.8965 224.871 53.2363C224.871 53.5137 224.813 53.7676 224.696 53.998C224.582 54.2285 224.416 54.4277 224.197 54.5957C223.983 54.7598 223.725 54.8887 223.424 54.9824C223.127 55.0723 222.793 55.1172 222.422 55.1172C221.864 55.1172 221.391 55.0176 221.004 54.8184C220.617 54.6191 220.324 54.3613 220.125 54.0449C219.926 53.7285 219.826 53.3945 219.826 53.043H220.916C220.932 53.3398 221.018 53.5762 221.174 53.752C221.33 53.9238 221.522 54.0469 221.748 54.1211C221.975 54.1914 222.199 54.2266 222.422 54.2266C222.719 54.2266 222.967 54.1875 223.166 54.1094C223.369 54.0312 223.524 53.9238 223.629 53.7871C223.735 53.6504 223.787 53.4941 223.787 53.3184ZM226.315 54.4258C226.315 54.2422 226.372 54.0879 226.485 53.9629C226.602 53.834 226.77 53.7695 226.989 53.7695C227.208 53.7695 227.374 53.834 227.487 53.9629C227.604 54.0879 227.663 54.2422 227.663 54.4258C227.663 54.6055 227.604 54.7578 227.487 54.8828C227.374 55.0078 227.208 55.0703 226.989 55.0703C226.77 55.0703 226.602 55.0078 226.485 54.8828C226.372 54.7578 226.315 54.6055 226.315 54.4258ZM232.001 54.2266C232.259 54.2266 232.497 54.1738 232.716 54.0684C232.935 53.9629 233.114 53.8184 233.255 53.6348C233.396 53.4473 233.476 53.2344 233.495 52.9961H234.527C234.507 53.3711 234.38 53.7207 234.146 54.0449C233.915 54.3652 233.612 54.625 233.237 54.8242C232.862 55.0195 232.45 55.1172 232.001 55.1172C231.525 55.1172 231.109 55.0332 230.753 54.8652C230.402 54.6973 230.109 54.4668 229.874 54.1738C229.644 53.8809 229.47 53.5449 229.353 53.166C229.239 52.7832 229.183 52.3789 229.183 51.9531V51.707C229.183 51.2812 229.239 50.8789 229.353 50.5C229.47 50.1172 229.644 49.7793 229.874 49.4863C230.109 49.1934 230.402 48.9629 230.753 48.7949C231.109 48.627 231.525 48.543 232.001 48.543C232.497 48.543 232.931 48.6445 233.302 48.8477C233.673 49.0469 233.964 49.3203 234.175 49.668C234.39 50.0117 234.507 50.4023 234.527 50.8398H233.495C233.476 50.5781 233.402 50.3418 233.273 50.1309C233.148 49.9199 232.976 49.752 232.757 49.627C232.542 49.498 232.29 49.4336 232.001 49.4336C231.669 49.4336 231.39 49.5 231.163 49.6328C230.941 49.7617 230.763 49.9375 230.63 50.1602C230.501 50.3789 230.407 50.623 230.349 50.8926C230.294 51.1582 230.267 51.4297 230.267 51.707V51.9531C230.267 52.2305 230.294 52.5039 230.349 52.7734C230.403 53.043 230.495 53.2871 230.624 53.5059C230.757 53.7246 230.935 53.9004 231.157 54.0332C231.384 54.1621 231.665 54.2266 232.001 54.2266ZM235.461 51.9004V51.7656C235.461 51.3086 235.527 50.8848 235.66 50.4941C235.793 50.0996 235.984 49.7578 236.234 49.4688C236.484 49.1758 236.787 48.9492 237.142 48.7891C237.498 48.625 237.896 48.543 238.338 48.543C238.783 48.543 239.183 48.625 239.539 48.7891C239.898 48.9492 240.203 49.1758 240.453 49.4688C240.707 49.7578 240.9 50.0996 241.033 50.4941C241.166 50.8848 241.232 51.3086 241.232 51.7656V51.9004C241.232 52.3574 241.166 52.7812 241.033 53.1719C240.9 53.5625 240.707 53.9043 240.453 54.1973C240.203 54.4863 239.9 54.7129 239.545 54.877C239.193 55.0371 238.795 55.1172 238.349 55.1172C237.904 55.1172 237.504 55.0371 237.148 54.877C236.793 54.7129 236.488 54.4863 236.234 54.1973C235.984 53.9043 235.793 53.5625 235.66 53.1719C235.527 52.7812 235.461 52.3574 235.461 51.9004ZM236.545 51.7656V51.9004C236.545 52.2168 236.582 52.5156 236.656 52.7969C236.73 53.0742 236.841 53.3203 236.99 53.5352C237.142 53.75 237.332 53.9199 237.558 54.0449C237.785 54.166 238.048 54.2266 238.349 54.2266C238.646 54.2266 238.906 54.166 239.129 54.0449C239.355 53.9199 239.543 53.75 239.691 53.5352C239.839 53.3203 239.951 53.0742 240.025 52.7969C240.103 52.5156 240.142 52.2168 240.142 51.9004V51.7656C240.142 51.4531 240.103 51.1582 240.025 50.8809C239.951 50.5996 239.838 50.3516 239.685 50.1367C239.537 49.918 239.349 49.7461 239.123 49.6211C238.9 49.4961 238.638 49.4336 238.338 49.4336C238.041 49.4336 237.779 49.4961 237.552 49.6211C237.33 49.7461 237.142 49.918 236.99 50.1367C236.841 50.3516 236.73 50.5996 236.656 50.8809C236.582 51.1582 236.545 51.4531 236.545 51.7656ZM243.672 49.9199V55H242.582V48.6602H243.613L243.672 49.9199ZM243.449 51.5898L242.945 51.5723C242.949 51.1387 243.006 50.7383 243.115 50.3711C243.225 50 243.387 49.6777 243.602 49.4043C243.816 49.1309 244.084 48.9199 244.404 48.7715C244.725 48.6191 245.096 48.543 245.518 48.543C245.815 48.543 246.088 48.5859 246.338 48.6719C246.588 48.7539 246.805 48.8848 246.988 49.0645C247.172 49.2441 247.315 49.4746 247.416 49.7559C247.518 50.0371 247.568 50.377 247.568 50.7754V55H246.484V50.8281C246.484 50.4961 246.428 50.2305 246.315 50.0312C246.205 49.832 246.049 49.6875 245.846 49.5977C245.643 49.5039 245.404 49.457 245.131 49.457C244.811 49.457 244.543 49.5137 244.328 49.627C244.113 49.7402 243.941 49.8965 243.813 50.0957C243.684 50.2949 243.59 50.5234 243.531 50.7812C243.477 51.0352 243.449 51.3047 243.449 51.5898ZM247.557 50.9922L246.83 51.2148C246.834 50.8672 246.891 50.5332 247 50.2129C247.113 49.8926 247.275 49.6074 247.486 49.3574C247.701 49.1074 247.965 48.9102 248.277 48.7656C248.59 48.6172 248.947 48.543 249.35 48.543C249.69 48.543 249.99 48.5879 250.252 48.6777C250.518 48.7676 250.74 48.9062 250.92 49.0938C251.104 49.2773 251.242 49.5137 251.336 49.8027C251.43 50.0918 251.477 50.4355 251.477 50.834V55H250.387V50.8223C250.387 50.4668 250.33 50.1914 250.217 49.9961C250.107 49.7969 249.951 49.6582 249.748 49.5801C249.549 49.498 249.311 49.457 249.033 49.457C248.795 49.457 248.584 49.498 248.4 49.5801C248.217 49.6621 248.063 49.7754 247.938 49.9199C247.813 50.0605 247.717 50.2227 247.65 50.4062C247.588 50.5898 247.557 50.7852 247.557 50.9922Z" fill="#606060"/>
</svg>
