<svg width="22" height="22" viewBox="0 0 22 22" fill="none" xmlns="http://www.w3.org/2000/svg">
<path d="M11.0367 1.83355C6.03165 1.83355 1.95248 5.91271 1.95248 10.9177C1.95248 12.5219 2.37415 14.0802 3.16248 15.4552L1.87915 20.1669L6.69165 18.9019C8.02082 19.626 9.51498 20.011 11.0367 20.011C16.0417 20.011 20.1208 15.9319 20.1208 10.9269C20.1208 8.49771 19.1767 6.21521 17.4625 4.50105C16.622 3.65231 15.6209 2.97935 14.5177 2.52138C13.4145 2.06341 12.2311 1.82959 11.0367 1.83355ZM11.0458 3.36438C13.0625 3.36438 14.9508 4.15271 16.3808 5.58271C17.0824 6.28444 17.6387 7.11768 18.0178 8.03472C18.3969 8.95176 18.5913 9.93458 18.59 10.9269C18.59 15.0885 15.1983 18.471 11.0367 18.471C9.67998 18.471 8.35082 18.1135 7.19582 17.4169L6.92082 17.261L4.06082 18.0127L4.82165 15.226L4.63832 14.9327C3.88165 13.7304 3.48118 12.3383 3.48332 10.9177C3.49248 6.75605 6.87498 3.36438 11.0458 3.36438ZM7.81915 6.71938C7.67248 6.71938 7.42498 6.77438 7.21415 7.00355C7.01248 7.23271 6.41665 7.79188 6.41665 8.90105C6.41665 10.0194 7.23248 11.0919 7.33332 11.2477C7.46165 11.4035 8.94665 13.6952 11.2292 14.6669C11.77 14.9144 12.1917 15.0519 12.5217 15.1527C13.0625 15.3269 13.5575 15.2994 13.9517 15.2444C14.3917 15.1802 15.29 14.6944 15.4825 14.1627C15.675 13.631 15.675 13.1819 15.62 13.081C15.5558 12.9894 15.4092 12.9344 15.18 12.8335C14.9508 12.7052 13.8325 12.1552 13.6308 12.0819C13.42 12.0085 13.2917 11.9719 13.1175 12.1919C12.9708 12.421 12.5308 12.9344 12.4025 13.081C12.265 13.2369 12.1367 13.2552 11.9167 13.1452C11.6783 13.026 10.945 12.7877 10.0833 12.0177C9.40498 11.4127 8.95582 10.6702 8.81832 10.441C8.70832 10.221 8.80915 10.0835 8.91915 9.98271C9.01998 9.88188 9.16665 9.71688 9.25832 9.57938C9.37748 9.45105 9.41415 9.35021 9.48748 9.20355C9.56082 9.04771 9.52415 8.91938 9.46915 8.80938C9.41415 8.70854 8.95582 7.57188 8.76332 7.12271C8.57998 6.68271 8.39665 6.73771 8.24998 6.72855C8.12165 6.72855 7.97498 6.71938 7.81915 6.71938Z" fill="#686868"/>
</svg>
